<svg xmlns="http://www.w3.org/2000/svg" xmlns:xlink="http://www.w3.org/1999/xlink" version="1.1" x="0px" y="0px" viewBox="0 0 100 86" enable-background="new 0 0 100 100" xml:space="preserve"><g display="none"><rect x="-885.872" y="-213.875" display="inline" fill="#000000" width="1424.929" height="472.476"/></g><g><polygon points="93.507,44.188 87.987,44.188 82.358,48.79 79.704,48.79 85.332,44.188 79.81,44.188 74.183,48.79 58.959,48.79    58.959,51.382 74.182,51.382 79.81,55.983 85.332,55.983 79.704,51.382 82.357,51.382 87.987,55.983 93.507,55.983 86.293,50.086     "/><rect x="53.738" y="48.79" width="2.218" height="2.592"/><polygon points="23.474,42.803 4.339,49.782 3.507,50.086 4.339,50.389 23.474,57.369 20.578,51.382 51.213,51.382 51.213,48.79    20.578,48.79  "/></g></svg>
