<!DOCTYPE svg PUBLIC "-//W3C//DTD SVG 20010904//EN"
  "http://www.w3.org/TR/2001/REC-SVG-20010904/DTD/svg10.dtd">
<svg xmlns="http://www.w3.org/2000/svg" width="135px" height="169px" id="warrior"
     viewBox="0 0 135 169" preserveAspectRatio="xMidYMid meet">
  <g id="layer102" fill="#5b2c87" stroke="none">
    <path
      d="M23.7094 168.1594 c0.0422 -0.3375 0.2391 -1.4203 0.4219 -2.4328 0.1687 -0.9984 0.3516 -2.2078 0.3937 -2.6719 0.2672 -3.0094 0.3937 -4.1062 0.5766 -5.4141 0.1125 -0.8156 0.2672 -2.1094 0.3516 -2.8828 0.1406 -1.4203 0.4359 -3.4453 0.9844 -6.9609 0.1687 -1.0406 0.3656 -2.3766 0.4219 -2.9531 0.1969 -1.8703 0.4922 -3.6141 1.8422 -10.9688 0.2391 -1.2797 0.5203 -2.7562 0.6328 -3.2906 0.1125 -0.5344 0.2672 -1.3922 0.3375 -1.8984 0.1547 -1.1531 1.4484 -7.3266 1.8281 -8.6906 0.1547 -0.5625 0.3516 -1.4766 0.4359 -2.0391 0.0844 -0.5625 0.1969 -1.0828 0.2391 -1.1672 0.0984 -0.1547 0.1547 -0.3797 0.2391 -0.9562 0.1125 -0.6609 0.4078 -1.7016 1.3781 -4.7391 0.4922 -1.5891 0.9562 -3.0656 1.0125 -3.3047 0.0422 -0.225 0.1687 -0.6047 0.2813 -0.8438 0.0984 -0.225 0.5344 -1.3219 0.9703 -2.4188 0.4359 -1.0969 1.2656 -3.0938 1.8562 -4.4297 1.7578 -4.0078 1.8844 -4.3594 1.8844 -5.4281 -0.0141 -2.3062 -1.4484 -4.1484 -6.8625 -8.8031 -1.9266 -1.6453 -4.8656 -4.0219 -7.3406 -5.9203 -0.8859 -0.6891 -1.6453 -1.2797 -1.6875 -1.3219 -0.0703 -0.0984 -0.8859 -0.7453 -1.3359 -1.0828 -0.1547 -0.1125 -0.6609 -0.4922 -1.125 -0.8578 -0.45 -0.3656 -1.3781 -1.0828 -2.0391 -1.5891 -0.675 -0.5062 -2.1656 -1.6453 -3.3187 -2.5313 -1.1531 -0.8859 -2.5734 -1.9688 -3.15 -2.4047 -0.5766 -0.4219 -1.1531 -0.8719 -1.2656 -0.9844 -0.1125 -0.1125 -0.7172 -0.5906 -1.3359 -1.0828 -3.0656 -2.3906 -6.8203 -5.4984 -7.9312 -6.5531 -0.9 -0.8578 -1.7156 -1.9406 -1.9828 -2.6156 -0.0984 -0.2672 -0.2391 -0.5484 -0.3094 -0.6187 -0.0562 -0.0844 -0.1125 -0.4359 -0.1125 -0.7875 0 -0.7875 0.3656 -1.1953 1.5328 -1.6734 0.6187 -0.2672 1.1109 -0.3375 2.8125 -0.3937 2.2359 -0.0844 6.975 0.1547 7.2422 0.3516 0.0844 0.0703 1.0406 0.1687 2.1234 0.225 1.0828 0.0562 2.6297 0.1828 3.4453 0.2953 0.8156 0.0984 2.2078 0.2672 3.0938 0.3516 2.3906 0.225 4.1625 0.4219 5.2734 0.5766 0.9422 0.1406 1.8844 0.2391 5.0625 0.5344 0.7734 0.0844 2.2641 0.2391 3.3047 0.3656 1.2516 0.1547 3.1219 0.2531 5.4844 0.2672 3.2625 0.0141 3.6281 -0.0141 3.9937 -0.2391 0.3797 -0.2531 0.9141 -1.2094 0.9281 -1.6594 0 -0.1266 -0.2953 -0.5625 -0.6469 -0.9562 -1.575 -1.7437 -4.7672 -4.0641 -14.8922 -10.8 -5.5406 -3.6703 -6.3281 -4.2047 -6.6094 -4.4297 -0.1687 -0.1406 -0.2813 -0.2109 -4.05 -2.7703 -1.6312 -1.1109 -3.5437 -2.4469 -4.2469 -2.9672 -0.6891 -0.5203 -1.4203 -1.0266 -1.6172 -1.1391 -0.1969 -0.1125 -0.3797 -0.2391 -0.4219 -0.2813 -0.0422 -0.0422 -1.0547 -0.7312 -2.25 -1.5328 -2.5031 -1.6594 -3.7687 -2.6578 -5.5687 -4.4016 -2.1656 -2.0672 -3.6422 -4.3594 -3.2906 -5.0344 0.1547 -0.2813 1.0406 -0.7875 1.7578 -0.9844 0.225 -0.0703 1.9688 -0.2953 3.8672 -0.4781 3.375 -0.3516 3.5016 -0.3516 5.8359 -0.1547 1.3219 0.1266 3.5578 0.2953 4.9922 0.3797 3.0094 0.1828 3.9797 0.2672 6.6797 0.6047 4.6687 0.5625 5.8781 0.7594 11.6719 1.9828 1.3219 0.2813 2.5172 0.5203 2.6719 0.5484 0.1687 0.0141 0.3516 0.0703 0.4219 0.1125 0.0844 0.0422 0.5906 0.1547 1.125 0.2531 1.3078 0.225 2.3203 0.4359 5.3016 1.125 5.9484 1.35 7.5516 1.1391 11.7141 -1.575 2.7 -1.7578 4.4297 -2.5453 7.9453 -3.6281 2.4469 -0.7453 3.4031 -0.9562 5.3438 -1.2094 0.2672 -0.0281 1.1953 -0.1828 2.0391 -0.3516 1.35 -0.2672 2.1937 -0.3094 6.6797 -0.3656 4.2609 -0.0562 5.4141 -0.0281 6.8203 0.1687 0.9281 0.1266 2.0953 0.2813 2.6016 0.3516 0.5062 0.0703 1.0688 0.1547 1.2656 0.1969 0.1969 0.0422 0.675 0.1406 1.0547 0.225 2.3344 0.4922 5.625 1.3641 6.4688 1.7297 0.5484 0.225 1.2375 0.5062 1.5469 0.6187 1.0547 0.3797 5.9484 2.8547 6.8484 3.4594 1.35 0.9141 2.8125 1.9828 4.7531 3.5016 2.0391 1.575 6.3984 5.9203 7.6781 7.6359 0.45 0.6187 0.8578 1.1531 0.9 1.1953 0.0422 0.0422 0.1406 0.1687 0.2109 0.2953 0.0844 0.1266 0.2391 0.3797 0.3656 0.5625 0.8156 1.2094 2.5594 4.1906 3.0375 5.1891 0.3094 0.6609 0.7594 1.8562 1.0125 2.6719 0.2531 0.8156 0.5344 1.7156 0.6469 1.9969 0.3656 0.9422 1.0688 4.0078 1.2656 5.5687 0.1125 0.8297 0.3094 2.1375 0.4219 2.9109 0.4359 2.7 0.5203 4.4578 0.45 8.4375 -0.0562 2.1656 -0.1406 4.3453 -0.225 4.8516 -0.0703 0.5062 -0.2391 1.9266 -0.3656 3.1641 -0.3656 3.6422 -0.4922 4.6828 -0.7734 6.6094 -0.1547 1.0125 -0.3375 2.4047 -0.4219 3.0938 -0.0703 0.7031 -0.2953 2.025 -0.4781 2.9531 -0.1828 0.9281 -0.5062 2.5453 -0.7172 3.5859 -0.2109 1.0406 -0.4641 2.2359 -0.5625 2.6437 -0.1125 0.4078 -0.2672 1.2656 -0.3516 1.8984 -0.0984 0.6328 -0.225 1.2234 -0.2953 1.3219 -0.0844 0.0844 -0.2109 0.9984 -0.2813 2.0109 -0.1687 2.0109 -0.0281 3.6984 0.3516 4.4297 0.1266 0.2391 0.225 0.4922 0.225 0.5906 0 0.0844 0.3656 1.0406 0.8156 2.1094 0.8719 2.0531 1.125 2.7703 1.8562 5.3859 0.2531 0.8859 0.6047 2.1375 0.8016 2.7844 0.4781 1.6453 1.4063 5.4281 1.575 6.4266 0.0703 0.4641 0.4078 1.9828 0.7172 3.375 0.3234 1.3922 0.6328 2.8125 0.7031 3.1641 0.0562 0.3516 0.2672 1.3922 0.4641 2.3203 0.1969 0.9281 0.3937 2.025 0.45 2.4188 0.0562 0.4078 0.1547 0.7734 0.2109 0.8156 0.0703 0.0422 0.1687 0.4359 0.2109 0.8859 0.0562 0.4359 0.3375 2.0391 0.6328 3.5437 0.2813 1.5047 0.6047 3.1922 0.7031 3.7266 0.0984 0.5484 0.3234 1.7437 0.4922 2.6719 0.1828 0.9281 0.3656 2.0672 0.4219 2.5313 0.0562 0.4641 0.2109 1.575 0.3516 2.4609 0.7594 4.6266 1.9266 13.1344 2.1234 15.6094 0.0844 1.0406 0.1828 2.8687 0.225 4.05 l0.0703 2.1375 -55.7016 0 -55.7016 0 0.0844 -0.5906z"/>
  </g>
  <g id="layer103" fill="#fcfbfc" stroke="none">
    <path
      d="M82.4063 72.6188 c-4.95 -0.6609 -9.0281 -2.5453 -12.3047 -5.7094 -2.9391 -2.8266 -4.6687 -6.0469 -5.3297 -9.9422 -0.8156 -4.8094 0.8438 -10.1109 4.3453 -13.9359 1.9125 -2.0672 3.7266 -3.4172 6.3141 -4.6406 3.1219 -1.4906 5.2453 -1.9828 8.9437 -2.0672 2.2078 -0.0562 2.8687 -0.0281 4.3453 0.225 8.3953 1.4203 14.8641 7.2844 16.3266 14.7797 0.4359 2.1937 0.4781 3.2766 0.2109 5.0484 -0.1266 0.8859 -0.3937 2.1516 -0.5766 2.8125 -0.4359 1.5187 -1.6594 4.0078 -2.6156 5.2875 -0.9984 1.35 -3.2062 3.5156 -4.4719 4.3734 -3.0797 2.0812 -5.85 3.1359 -9.8719 3.7125 -2.2219 0.3234 -3.2203 0.3234 -5.3156 0.0562z m9.0984 -6.8766 c5.2312 -0.9984 9.1687 -4.4719 10.1672 -9 0.3516 -1.6031 0.3516 -2.4328 0 -3.9375 -1.0688 -4.5844 -4.9359 -8.0016 -10.1672 -9 -1.4484 -0.2672 -4.1203 -0.2672 -5.5828 0.0141 -5.9344 1.125 -10.2656 5.7234 -10.2656 10.9125 0 5.1891 4.1062 9.6891 9.9844 10.9406 1.5187 0.3375 4.3312 0.3656 5.8641 0.0703z"/>
  </g>

</svg>
