<!DOCTYPE svg PUBLIC "-//W3C//DTD SVG 20010904//EN"
  "http://www.w3.org/TR/2001/REC-SVG-20010904/DTD/svg10.dtd">
<svg xmlns="http://www.w3.org/2000/svg" width="135px" height="169px" id="warrior"
     viewBox="0 0 135 169" preserveAspectRatio="xMidYMid meet">
  <g id="layer101" fill="#000000" stroke="none">
    <path
      d="M15.8344 168.3703 c-0.4359 -1.9828 -0.6047 -7.7906 -0.3797 -13.3312 0.5062 -12.6422 2.3625 -26.9156 5.1469 -39.7969 0.6187 -2.8266 0.7312 -3.3469 0.9703 -4.2609 0.1266 -0.4922 0.1969 -0.9984 0.1547 -1.1391 -0.1687 -0.5625 -1.4625 -1.575 -5.3297 -4.1344 -5.9203 -3.9375 -7.7344 -5.3719 -10.7156 -8.4094 -2.5031 -2.5594 -4.6406 -5.2312 -5.4 -6.7219 l-0.3094 -0.6047 0.3094 -0.8156 c0.9844 -2.6437 5.3156 -7.5516 9.5062 -10.7859 2.9391 -2.2781 7.3406 -5.1609 12.0797 -7.9031 2.2359 -1.2937 2.7281 -1.6594 2.925 -2.1656 0.1125 -0.2531 0.3656 -1.4344 0.5766 -2.6297 1.4484 -8.0719 2.1656 -11.1375 3.5156 -15.0187 2.4328 -7.0453 6.8203 -15.1453 9.9281 -18.3094 1.3781 -1.4063 1.7719 -1.5469 2.9531 -1.0828 3.3328 1.35 10.35 7.3687 15.2578 13.1062 0.9281 1.0828 2.9672 3.5578 4.5281 5.4844 4.1625 5.1891 5.5125 6.5391 6.5109 6.5391 0.8859 0 2.1656 -1.3359 5.8641 -6.075 3.2344 -4.1484 4.6547 -5.8641 6.8203 -8.2266 4.2891 -4.6969 10.9266 -10.1812 13.2047 -10.9406 0.8297 -0.2813 1.125 -0.1547 2.2219 0.9422 3.3891 3.3609 7.9875 11.3344 10.6594 18.4641 1.3359 3.5437 3.0516 9.7312 4.4578 16.0313 0.2109 0.9281 0.5062 2.0672 0.6469 2.5313 0.3375 0.9984 0.4922 1.125 3.7969 2.925 2.8969 1.575 2.9812 1.6312 4.5141 2.5734 1.9266 1.1812 2.9812 1.9266 4.7672 3.3469 3.0938 2.475 7.5234 6.8062 9.1125 8.9156 l0.8719 1.1672 0 1.5187 c0 0.8297 -0.0562 1.5609 -0.1266 1.6312 -0.0844 0.0844 -0.45 0.6469 -0.8156 1.2656 -0.3797 0.6187 -1.1531 1.7578 -1.7297 2.5313 -1.0688 1.4203 -4.1203 4.6125 -5.4141 5.6391 -2.2641 1.8141 -5.5969 4.0359 -9.1406 6.1031 -0.6891 0.4078 -1.6594 1.0266 -2.1375 1.3641 -0.8297 0.5766 -0.8859 0.6609 -0.8859 1.1672 0 0.6187 0.2109 2.2359 0.4922 3.8672 0.1125 0.6187 0.3234 1.8844 0.4781 2.8125 0.1547 0.9281 0.4078 2.4469 0.5625 3.375 0.2672 1.6312 0.5625 3.4453 1.1391 7.0313 1.8422 11.4891 3.1922 24.2016 3.8672 36.0703 0.1125 2.1234 0.2391 4.3031 0.2813 4.8375 0.0281 0.5344 0 1.0828 -0.0844 1.2375 -0.1266 0.2391 -1.7156 0.2531 -52.8609 0.2531 l-52.7062 0 -0.0844 -0.3797z"/>
  </g>
  <g id="layer102" fill="#d7d7d7" stroke="none">
    <path
      d="M15.8344 168.3703 c-0.4359 -1.9828 -0.6047 -7.7906 -0.3797 -13.3312 0.5062 -12.6422 2.3625 -26.9156 5.1469 -39.7969 0.6187 -2.8266 0.7312 -3.3469 0.9703 -4.2609 0.1266 -0.4922 0.1969 -0.9984 0.1547 -1.1391 -0.1687 -0.5625 -1.4625 -1.575 -5.3297 -4.1344 -5.9203 -3.9375 -7.7344 -5.3719 -10.7156 -8.4094 -2.5031 -2.5594 -4.6406 -5.2312 -5.4 -6.7219 l-0.3094 -0.6047 0.3094 -0.8156 c0.9844 -2.6437 5.3156 -7.5516 9.5062 -10.7859 2.9391 -2.2781 7.3406 -5.1609 12.0797 -7.9031 2.2359 -1.2937 2.7281 -1.6594 2.925 -2.1656 0.1125 -0.2531 0.3656 -1.4344 0.5766 -2.6297 1.4484 -8.0719 2.1656 -11.1375 3.5156 -15.0187 2.4328 -7.0453 6.8203 -15.1453 9.9281 -18.3094 1.3781 -1.4063 1.7719 -1.5469 2.9531 -1.0828 3.3328 1.35 10.35 7.3687 15.2578 13.1062 0.9281 1.0828 2.9672 3.5578 4.5281 5.4844 4.1625 5.1891 5.5125 6.5391 6.5109 6.5391 0.8859 0 2.1656 -1.3359 5.8641 -6.075 3.2344 -4.1484 4.6547 -5.8641 6.8203 -8.2266 4.2891 -4.6969 10.9266 -10.1812 13.2047 -10.9406 0.8297 -0.2813 1.125 -0.1547 2.2219 0.9422 3.3891 3.3609 7.9875 11.3344 10.6594 18.4641 1.3359 3.5437 3.0516 9.7312 4.4578 16.0313 0.2109 0.9281 0.5062 2.0672 0.6469 2.5313 0.3375 0.9984 0.4922 1.125 3.7969 2.925 2.8969 1.575 2.9812 1.6312 4.5141 2.5734 1.9266 1.1812 2.9812 1.9266 4.7672 3.3469 3.0938 2.475 7.5234 6.8062 9.1125 8.9156 l0.8719 1.1672 0 1.5187 c0 0.8297 -0.0562 1.5609 -0.1266 1.6312 -0.0844 0.0844 -0.45 0.6469 -0.8156 1.2656 -0.3797 0.6187 -1.1531 1.7578 -1.7297 2.5313 -1.0688 1.4203 -4.1203 4.6125 -5.4141 5.6391 -2.2641 1.8141 -5.5969 4.0359 -9.1406 6.1031 -0.6891 0.4078 -1.6594 1.0266 -2.1375 1.3641 -0.8297 0.5766 -0.8859 0.6609 -0.8859 1.1672 0 0.6187 0.2109 2.2359 0.4922 3.8672 0.1125 0.6187 0.3234 1.8844 0.4781 2.8125 0.1547 0.9281 0.4078 2.4469 0.5625 3.375 0.2672 1.6312 0.5625 3.4453 1.1391 7.0313 1.8422 11.4891 3.1922 24.2016 3.8672 36.0703 0.1125 2.1234 0.2391 4.3031 0.2813 4.8375 0.0281 0.5344 0 1.0828 -0.0844 1.2375 -0.1266 0.2391 -1.7156 0.2531 -52.8609 0.2531 l-52.7062 0 -0.0844 -0.3797z m12.375 -58.4156 c0.3937 -0.2672 0.8016 -0.5344 0.9141 -0.6187 0.1266 -0.0703 0.6891 -0.45 1.2656 -0.8438 1.6312 -1.1109 4.725 -2.7984 7.0172 -3.8391 0.9141 -0.4078 4.2469 -1.5047 5.4844 -1.7859 1.2516 -0.2953 2.6719 -0.675 3.9375 -1.0547 0.5062 -0.1547 1.3922 -0.4078 1.9688 -0.5766 1.2516 -0.3516 2.7 -0.9281 4.5 -1.7859 0.7875 -0.3797 2.5453 -1.4203 2.6719 -1.5891 0.0422 -0.0562 0.9 -0.6609 1.9266 -1.3359 1.7859 -1.2094 2.5734 -1.9688 3.1922 -3.0797 0.1266 -0.225 0.3937 -0.7031 0.5906 -1.0547 0.1969 -0.3516 0.5203 -1.1109 0.7312 -1.6875 0.3656 -0.9984 0.3797 -1.1812 0.3656 -3.5859 0 -2.1094 -0.0562 -2.7562 -0.3234 -3.8672 -0.4922 -2.0812 -1.4484 -4.9359 -1.8 -5.3578 -0.0984 -0.1125 -0.1828 -0.2953 -0.1828 -0.3797 0 -0.3094 -1.4344 -2.8687 -2.0672 -3.6844 -1.8281 -2.3625 -3.0656 -3.4031 -5.3719 -4.5281 -1.6875 -0.8156 -1.8 -0.8578 -3.2344 -0.9703 -0.8156 -0.0562 -2.475 -0.0703 -3.6703 -0.0281 -1.8281 0.0703 -2.3766 0.1406 -3.4453 0.4641 -1.7437 0.5484 -3.3891 1.1672 -4.0078 1.5469 -0.1125 0.0703 -0.9703 0.5062 -1.8984 0.9703 -3.3891 1.7156 -4.5844 2.4891 -8.0156 5.2031 -2.7141 2.1516 -8.0719 7.4531 -10.3781 10.2797 -0.6047 0.7312 -1.2516 1.5328 -1.4484 1.7578 -1.1391 1.3359 -3.1781 5.1188 -3.9094 7.2422 -0.9844 2.8687 -0.5062 4.2047 1.8844 5.3719 1.6172 0.7875 3.2484 1.5187 3.3891 1.5187 0.1125 0 0.9844 0.3937 1.6031 0.7453 0.4922 0.2672 1.5187 0.7594 2.9531 1.4344 1.5047 0.7031 2.5453 1.4484 2.7562 1.9969 0.0703 0.1828 0.1547 0.9 0.1828 1.575 0.0422 0.7875 0.1406 1.4063 0.2953 1.7016 0.225 0.4219 0.2813 0.45 0.8297 0.3937 0.3516 -0.0422 0.8719 -0.2672 1.2937 -0.5484z m80.9016 0.0984 c0.2672 -0.2813 0.3375 -0.5484 0.3937 -1.5328 0.0562 -0.7875 0.1828 -1.3781 0.3797 -1.8 0.2953 -0.6047 0.3656 -0.6609 3.6703 -2.3344 1.8562 -0.9422 3.4453 -1.7156 3.5437 -1.7297 0.0984 0 0.9703 -0.3797 1.9406 -0.8438 0.9703 -0.4641 1.8 -0.8438 1.8422 -0.8438 0.0562 0 0.3797 -0.2531 0.7453 -0.5484 1.5047 -1.2656 1.6453 -2.7844 0.5062 -5.4281 -0.1125 -0.225 -0.4219 -0.9562 -0.7031 -1.6172 -0.2813 -0.6469 -0.7031 -1.4625 -0.9281 -1.8 -0.225 -0.3234 -0.4078 -0.6328 -0.4078 -0.675 0 -0.1406 -1.575 -2.3625 -2.1797 -3.0797 -0.3234 -0.3797 -0.8578 -1.0688 -1.1812 -1.5187 -0.8719 -1.1953 -7.3547 -7.6359 -9.1125 -9.0422 -0.8297 -0.675 -1.575 -1.3078 -1.6594 -1.3922 -0.0703 -0.0984 -0.5766 -0.4781 -1.125 -0.8438 -0.5344 -0.3656 -1.0125 -0.7031 -1.0547 -0.7594 -0.0422 -0.0562 -0.4219 -0.3094 -0.8438 -0.5766 -0.4219 -0.2672 -0.8016 -0.5203 -0.8438 -0.5625 -0.0562 -0.0703 -0.7453 -0.4781 -2.4047 -1.4063 -0.675 -0.3797 -3.3328 -1.6875 -3.4172 -1.6875 -0.0422 0 -0.3516 -0.1125 -0.6891 -0.2531 -0.6187 -0.2672 -0.7875 -0.3375 -2.7703 -1.0547 l-1.1953 -0.4219 -3.4453 0 c-3.3328 0.0141 -3.4734 0.0281 -4.4297 0.3656 -1.0266 0.3797 -2.2922 1.0406 -3.3328 1.7578 -2.3344 1.6172 -3.8953 3.825 -5.9484 8.3953 -0.5484 1.2094 -0.7312 1.7719 -1.2234 3.5859 -0.4359 1.575 -0.45 1.7016 -0.45 4.5703 0 2.7 0.0281 3.0234 0.3094 3.7969 0.7875 2.1656 2.0109 3.9234 3.4453 4.9359 0.8859 0.6328 1.9547 1.4203 2.9531 2.1516 1.6875 1.2516 7.1016 3.6703 8.2266 3.6703 0.0844 0 0.5625 0.1266 1.0406 0.2672 0.4922 0.1547 1.4203 0.4078 2.0812 0.5766 5.6531 1.4344 9.5484 3.0938 14.0625 6.0047 0.5062 0.3234 1.0125 0.675 1.125 0.7734 0.5203 0.4641 1.9969 1.2234 2.4047 1.2375 0.2109 0 0.4922 -0.1406 0.675 -0.3375z m-38.2781 -2.7844 c0.9562 -0.4641 2.0672 -1.5469 2.475 -2.4047 0.4922 -1.0125 0.6891 -2.1937 0.6328 -3.7406 l-0.0422 -1.4906 -0.6609 -1.0125 c-0.7312 -1.1109 -1.9266 -2.1094 -2.9531 -2.475 -0.8578 -0.2953 -4.0359 -0.7031 -5.4562 -0.7031 -0.9562 0 -1.3359 0.0703 -1.8141 0.3094 -0.8297 0.4219 -1.7578 1.3219 -2.2078 2.1094 -0.3094 0.5625 -0.3516 0.7734 -0.3094 1.6312 0.0422 0.9 0.1125 1.0969 0.7172 2.0672 1.5469 2.4891 4.8937 5.1047 7.6078 5.9625 0.8438 0.2672 1.0125 0.2391 2.0109 -0.2531z"/>
    <path
      d="M46.1953 95.6109 c-0.7734 -0.1547 -1.8141 -0.3656 -2.3203 -0.4922 -0.5062 -0.1125 -1.1391 -0.2672 -1.4063 -0.3234 -0.5484 -0.1266 -1.5469 -0.5906 -1.5469 -0.7031 0 -0.0422 0.2953 -0.2109 0.675 -0.3516 1.7578 -0.7312 3.5156 -2.0672 4.5984 -3.4875 4.4578 -5.8922 1.2516 -13.8797 -6.3703 -15.8062 -0.7312 -0.1828 -1.5047 -0.3375 -1.7297 -0.3375 -0.225 0 -0.4078 -0.0562 -0.4078 -0.1266 0 -0.1828 1.2656 -0.9703 1.8422 -1.1531 0.2672 -0.0844 0.6047 -0.2109 0.7594 -0.2813 1.3922 -0.6328 4.0641 -0.8719 5.4562 -0.4781 0.8156 0.225 1.6734 0.5344 2.4891 0.9 0.3516 0.1547 1.2094 0.7031 2.7281 1.7437 0.8438 0.5906 2.8547 2.6437 3.7969 3.8953 0.8156 1.0969 2.3344 4.2609 2.3344 4.8937 0 0.1266 0.1266 0.6047 0.2672 1.0688 0.4641 1.5047 0.7594 3.4031 0.675 4.3453 -0.1969 2.0812 -0.8719 3.8109 -1.9547 4.95 -0.8719 0.9141 -1.5047 1.2375 -3.3891 1.7016 -1.7578 0.4359 -4.3594 0.45 -6.4969 0.0422z"/>
    <path
      d="M91.6875 95.7516 c-0.2672 -0.0703 -1.0266 -0.2109 -1.6875 -0.3375 -1.1812 -0.2109 -2.475 -0.5484 -3.0234 -0.7875 -0.1547 -0.0562 -0.6328 -0.2672 -1.0547 -0.45 -0.4219 -0.1828 -1.0406 -0.5625 -1.35 -0.8297 l-0.5906 -0.4922 1.2375 -0.1547 c5.5828 -0.7453 9.4781 -4.6406 9.4641 -9.45 -0.0141 -4.8234 -3.9656 -8.6484 -9.675 -9.3656 l-0.7031 -0.0844 0.6047 -0.5484 c1.2516 -1.1109 3.2203 -1.4625 6.0187 -1.0688 2.5734 0.3656 4.5422 1.1812 6.3 2.6156 1.0688 0.8859 2.6016 2.4609 2.9953 3.0797 0.1266 0.2109 0.3375 0.5062 0.4781 0.6609 0.3234 0.3797 1.2937 2.2641 1.4906 2.8828 0.0844 0.2672 0.3516 1.0125 0.5766 1.6312 0.6187 1.7016 0.8156 3.5578 0.6047 5.6672 -0.2391 2.4188 -0.7453 3.5578 -2.2641 5.0906 -0.9703 0.9844 -1.6312 1.3078 -3.5437 1.7437 -1.2375 0.2953 -1.8422 0.3516 -3.4453 0.3375 -1.0688 -0.0141 -2.1656 -0.0703 -2.4328 -0.1406z"/>
  </g>

</svg>
