<!DOCTYPE svg PUBLIC "-//W3C//DTD SVG 20010904//EN"
  "http://www.w3.org/TR/2001/REC-SVG-20010904/DTD/svg10.dtd">
<svg xmlns="http://www.w3.org/2000/svg" width="135px" height="169px" id="warrior"
     viewBox="0 0 135 169" preserveAspectRatio="xMidYMid meet">
  <g id="layer101" fill="#02030c" stroke="none">
    <path
      d="M16.0313 168.6375 c0 -0.3234 2.4469 -13.95 3.8812 -21.6141 1.1531 -6.1875 4.1766 -21.4875 4.9781 -25.1719 0.1547 -0.6891 0.6891 -3.2203 1.2094 -5.625 1.9266 -9.0562 4.2609 -18.8719 6.1031 -25.6219 0.5203 -1.9125 0.8156 -3.2625 0.7734 -3.4594 -0.225 -0.8859 -2.1937 -2.6859 -4.8797 -4.4859 -3.9937 -2.6719 -12.4172 -7.1719 -21.4875 -11.5031 -1.35 -0.6469 -3.3609 -1.6031 -4.4719 -2.1375 l-2.0109 -0.9703 0.7453 -0.8578 c1.4766 -1.7156 4.4719 -4.5844 6.2859 -6.0187 3.6984 -2.9531 7.8469 -5.2875 13.3172 -7.5234 2.2078 -0.9 5.5547 -2.0531 11.7 -4.0359 1.2797 -0.4078 1.3641 -0.5203 7.1859 -9.3938 7.3687 -11.25 16.4531 -20.7844 25.8328 -27.0984 10.9266 -7.3547 22.0641 -11.3203 36.0141 -12.8391 2.6859 -0.2953 2.7141 -0.2953 3.2344 -0.0141 2.0531 1.0547 4.0219 5.2453 5.9344 12.6703 3.1219 12.0375 5.4984 29.9812 6.2578 47.1797 0.45 9.9141 0.4219 15.525 -0.0844 24.6797 -0.1969 3.5859 -0.4078 2.6016 2.2781 10.2656 3.9375 11.2078 5.9484 17.6625 8.4234 26.8875 0.6609 2.4328 1.0266 3.9234 1.6875 6.75 2.5453 10.9406 4.1766 20.5172 5.2031 30.6281 0.2672 2.5313 0.7172 8.6062 0.6891 9.1828 -0.0141 0.225 -2.9391 0.2391 -59.4141 0.2391 -32.6672 0 -59.3859 -0.0562 -59.3859 -0.1125z"/>
  </g>
  <g id="layer102" fill="#3f6eb2" stroke="none">
    <path
      d="M16.0313 168.6375 c0 -0.3234 2.4469 -13.95 3.8812 -21.6141 1.1531 -6.1875 4.1766 -21.4875 4.9781 -25.1719 0.1547 -0.6891 0.6891 -3.2203 1.2094 -5.625 1.9266 -9.0562 4.2609 -18.8719 6.1031 -25.6219 0.5203 -1.9125 0.8156 -3.2625 0.7734 -3.4594 -0.225 -0.8859 -2.1937 -2.6859 -4.8797 -4.4859 -3.9937 -2.6719 -12.4172 -7.1719 -21.4875 -11.5031 -1.35 -0.6469 -3.3609 -1.6031 -4.4719 -2.1375 l-2.0109 -0.9703 0.7453 -0.8578 c1.4766 -1.7156 4.4719 -4.5844 6.2859 -6.0187 3.6984 -2.9531 7.8469 -5.2875 13.3172 -7.5234 2.2078 -0.9 5.5547 -2.0531 11.7 -4.0359 1.2797 -0.4078 1.3641 -0.5203 7.1859 -9.3938 7.3687 -11.25 16.4531 -20.7844 25.8328 -27.0984 10.9266 -7.3547 22.0641 -11.3203 36.0141 -12.8391 2.6859 -0.2953 2.7141 -0.2953 3.2344 -0.0141 2.0531 1.0547 4.0219 5.2453 5.9344 12.6703 3.1219 12.0375 5.4984 29.9812 6.2578 47.1797 0.45 9.9141 0.4219 15.525 -0.0844 24.6797 -0.1969 3.5859 -0.4078 2.6016 2.2781 10.2656 3.9375 11.2078 5.9484 17.6625 8.4234 26.8875 0.6609 2.4328 1.0266 3.9234 1.6875 6.75 2.5453 10.9406 4.1766 20.5172 5.2031 30.6281 0.2672 2.5313 0.7172 8.6062 0.6891 9.1828 -0.0141 0.225 -2.9391 0.2391 -59.4141 0.2391 -32.6672 0 -59.3859 -0.0562 -59.3859 -0.1125z m60.3281 -97.7062 c5.4422 -0.6187 9.8438 -2.2781 13.5984 -5.1047 4.4437 -3.3469 6.8766 -8.4937 6.6094 -13.9781 -0.225 -4.725 -2.1937 -9.2531 -5.4984 -12.7266 -4.0219 -4.2047 -9.4219 -6.4969 -15.9047 -6.7359 -2.5875 -0.0984 -4.8656 0.2391 -7.4391 1.0969 -0.9141 0.3094 -1.7016 0.5203 -1.7297 0.4922 -0.0422 -0.0281 0.675 -0.6609 1.5609 -1.3922 4.0781 -3.3047 6.8766 -4.9641 9.0141 -5.3016 1.2375 -0.1969 2.0953 -0.6469 2.925 -1.5328 1.0125 -1.0828 1.4203 -2.0812 1.4344 -3.4594 0 -0.9984 -0.0562 -1.2375 -0.45 -2.0531 -0.5062 -1.0125 -1.4766 -2.1094 -2.4328 -2.7422 -0.5625 -0.3797 -0.7172 -0.4078 -1.8844 -0.4078 -1.35 0 -1.9688 0.1547 -3.7969 0.9422 -3.9797 1.7297 -10.7719 6.9047 -15.4828 11.8125 -1.9547 2.025 -2.3906 2.6437 -2.25 3.1641 0.1969 0.8156 2.9953 3.2766 5.2312 4.6266 0.225 0.1406 0.1266 0.2813 -1.0125 1.4906 -1.4766 1.5609 -2.6156 3.1078 -3.5016 4.7531 -3.9094 7.3547 -2.8547 15.7922 2.6578 21.3047 3.2062 3.2203 7.425 5.0906 12.9656 5.7656 2.0812 0.2531 3.1641 0.2531 5.3859 -0.0141z"/>
    <path
      d="M85.9922 61.9875 c0.8578 -1.8422 1.0688 -2.7 1.1531 -4.9078 0.1406 -3.5859 -0.7594 -6.2437 -3.0094 -8.9016 -1.5187 -1.8141 -3.9375 -3.3328 -6.4406 -4.05 -1.5609 -0.45 -4.6687 -0.45 -6.3 0 -4.7109 1.2937 -8.1281 4.7672 -9.3234 9.45 -0.2109 0.8016 -0.2672 1.5187 -0.2531 3.0234 0.0141 2.2641 0.2813 3.5297 1.1109 5.2172 0.2672 0.5625 0.4922 1.0828 0.4922 1.1812 0 0.2672 -2.1094 -1.9406 -2.8406 -2.9672 -3.0234 -4.2188 -3.4312 -9.4078 -1.1109 -13.9359 2.1797 -4.2469 6.4969 -7.3125 11.7984 -8.3672 1.8984 -0.3797 5.4281 -0.3375 7.3266 0.0844 3.4453 0.7594 6.1875 2.1656 8.4937 4.3594 1.9266 1.8422 3.2203 3.9234 3.9937 6.4406 0.3375 1.1391 0.3797 1.4344 0.3656 3.5578 0 2.1094 -0.0281 2.4328 -0.3656 3.5578 -0.6609 2.1656 -1.7297 4.0219 -3.3187 5.7375 -0.7312 0.8016 -2.025 1.8141 -2.3062 1.8141 -0.0422 0 0.1969 -0.5906 0.5344 -1.2937z"/>
  </g>

</svg>
