<!DOCTYPE svg PUBLIC "-//W3C//DTD SVG 20010904//EN"
  "http://www.w3.org/TR/2001/REC-SVG-20010904/DTD/svg10.dtd">
<svg xmlns="http://www.w3.org/2000/svg" width="135px" height="169px" id="warrior"
     viewBox="0 0 135 169" preserveAspectRatio="xMidYMid meet">
  <g id="layer101" fill="#000000" stroke="none">
    <path
      d="M8.4797 168.3703 c-0.2109 -0.7734 -0.1125 -10.6453 0.1547 -14.2453 1.0406 -14.4703 3.1078 -26.4656 6.4406 -37.3359 1.4625 -4.7953 2.4891 -7.3687 3.8953 -9.7594 0.2391 -0.3937 0.4359 -0.8016 0.4359 -0.9 0 -0.0984 -0.5484 -0.3516 -1.2375 -0.5625 -5.5687 -1.8141 -10.6453 -6.1172 -13.7672 -11.6859 -2.1937 -3.8953 -3.4734 -8.1281 -4.1344 -13.6547 -0.3375 -2.9109 -0.3656 -9.3516 -0.0562 -12.6703 1.8422 -18.9844 11.2922 -29.1094 29.1094 -31.2047 8.8453 -1.0406 16.2281 -0.1687 22.0781 2.5875 6.0328 2.8547 10.9125 7.9875 13.8375 14.5687 1.2516 2.8266 2.1656 4.7109 2.3766 4.8937 0.2813 0.225 0.8016 -0.3937 2.7562 -3.3469 2.2922 -3.4312 3.8109 -5.3438 6.1312 -7.6781 2.1656 -2.1656 3.5719 -3.3328 5.8359 -4.8094 6.9047 -4.5 15.1453 -6.3984 24.7922 -5.7234 6.8344 0.4922 12.2344 2.2641 16.6219 5.4703 6.0328 4.4016 9.6891 11.5313 10.9688 21.4594 0.2391 1.8 0.2813 2.9812 0.2813 8.0578 0 6.3 -0.1125 7.7906 -0.8578 11.3906 -1.3641 6.6516 -4.1203 12.2625 -7.9875 16.2563 -2.5734 2.6437 -5.2172 4.4016 -8.2125 5.4422 l-0.9703 0.3375 0.0844 0.5203 c0.0422 0.2953 0.8156 2.5031 1.7156 4.9219 3.825 10.2797 5.6953 16.8047 6.9328 24.2297 1.5047 8.9719 2.3484 18.7453 2.5031 28.9406 l0.0703 4.8797 -59.85 0 -59.85 0 -0.0984 -0.3797z"/>
  </g>
  <g id="layer102" fill="#58ae41" stroke="none">
    <path
      d="M8.4797 168.3703 c-0.2109 -0.7734 -0.1125 -10.6453 0.1547 -14.2453 1.0406 -14.4703 3.1078 -26.4656 6.4406 -37.3359 1.4625 -4.7953 2.4891 -7.3687 3.8953 -9.7594 0.2391 -0.3937 0.4359 -0.8016 0.4359 -0.9 0 -0.0984 -0.5484 -0.3516 -1.2375 -0.5625 -5.5687 -1.8141 -10.6453 -6.1172 -13.7672 -11.6859 -2.1937 -3.8953 -3.4734 -8.1281 -4.1344 -13.6547 -0.3375 -2.9109 -0.3656 -9.3516 -0.0562 -12.6703 1.8422 -18.9844 11.2922 -29.1094 29.1094 -31.2047 8.8453 -1.0406 16.2281 -0.1687 22.0781 2.5875 6.0328 2.8547 10.9125 7.9875 13.8375 14.5687 1.2516 2.8266 2.1656 4.7109 2.3766 4.8937 0.2813 0.225 0.8016 -0.3937 2.7562 -3.3469 2.2922 -3.4312 3.8109 -5.3438 6.1312 -7.6781 2.1656 -2.1656 3.5719 -3.3328 5.8359 -4.8094 6.9047 -4.5 15.1453 -6.3984 24.7922 -5.7234 6.8344 0.4922 12.2344 2.2641 16.6219 5.4703 6.0328 4.4016 9.6891 11.5313 10.9688 21.4594 0.2391 1.8 0.2813 2.9812 0.2813 8.0578 0 6.3 -0.1125 7.7906 -0.8578 11.3906 -1.3641 6.6516 -4.1203 12.2625 -7.9875 16.2563 -2.5734 2.6437 -5.2172 4.4016 -8.2125 5.4422 l-0.9703 0.3375 0.0844 0.5203 c0.0422 0.2953 0.8156 2.5031 1.7156 4.9219 3.825 10.2797 5.6953 16.8047 6.9328 24.2297 1.5047 8.9719 2.3484 18.7453 2.5031 28.9406 l0.0703 4.8797 -59.85 0 -59.85 0 -0.0984 -0.3797z m60.4547 -40.6969 c0.7453 -0.3797 1.7859 -1.4484 2.1797 -2.25 0.3375 -0.6328 1.2516 -3.2484 1.7578 -4.9781 0.1547 -0.5344 0.2953 -1.3641 0.3094 -1.8281 0.0141 -0.7312 -0.0422 -0.9422 -0.45 -1.575 -0.5203 -0.8016 -1.4484 -1.4766 -2.3766 -1.7297 -0.7734 -0.1969 -2.25 0.0703 -5.2453 0.9281 -2.8687 0.8297 -3.7547 1.4063 -4.5141 2.9109 -0.3797 0.7312 -0.2813 1.3781 0.3797 2.6156 0.5906 1.1391 1.0125 1.6594 2.7281 3.4312 1.8 1.8562 3.15 2.7281 4.2609 2.7562 0.2109 0.0141 0.6469 -0.1125 0.9703 -0.2813z m24.3 -12.0797 c3.7687 -0.4922 6.6656 -2.0391 9.1828 -4.9078 2.2641 -2.5875 4.1062 -6.6937 4.9641 -11.0531 0.3234 -1.6172 0.3656 -5.85 0.0703 -7.3125 -1.3641 -6.9609 -5.9906 -11.5875 -13.1062 -13.1062 -1.8281 -0.3797 -5.0203 -0.3375 -6.6656 0.0844 -6.9469 1.8 -13.3172 7.5938 -15.9187 14.4844 -0.7594 2.0391 -1.2516 5.2172 -1.0969 7.1016 0.6328 7.2703 6.2297 12.3609 15.75 14.2875 2.6578 0.5344 4.8375 0.675 6.8203 0.4219z m-38.9531 -2.5875 c5.4141 -1.0969 9.1266 -3.7969 10.9266 -7.9734 0.7734 -1.7859 1.0406 -3.0656 1.125 -5.3297 0.0984 -2.4328 -0.0984 -4.275 -0.6609 -6.5109 -1.2656 -5.0344 -4.1766 -9.6328 -7.65 -12.1078 -3.1359 -2.25 -7.2422 -3.2484 -11.1797 -2.7422 -5.7516 0.7312 -9.3797 2.3062 -12.4594 5.4 -3.1641 3.15 -5.0203 7.4109 -5.7094 13.0781 -0.4359 3.5719 1.0406 7.1859 4.1484 10.1531 3.2766 3.1359 8.4234 5.5828 13.0922 6.2156 1.5891 0.2109 6.9609 0.0984 8.3672 -0.1828z m-24.1594 -35.5219 c0.6328 -0.1828 1.3078 -0.7312 1.6031 -1.2937 1.0688 -2.0672 -3.7406 -7.2703 -6.2437 -6.7781 -0.5203 0.0984 -1.3641 0.7875 -1.6453 1.3078 -0.6891 1.3359 -0.225 2.4609 1.9547 4.6547 1.5328 1.5609 2.025 1.9266 2.8266 2.1234 0.6187 0.1406 0.9281 0.1406 1.5047 -0.0141z m77.8359 -0.225 c0.6469 -0.3094 3.4453 -3.1219 3.9516 -3.9937 0.5484 -0.9281 0.5344 -2.0391 -0.0562 -2.7562 -0.7031 -0.8859 -1.0969 -1.0969 -1.9266 -1.0969 -2.0391 0.0422 -5.0484 2.8406 -5.7797 5.4141 -0.2672 0.9281 -0.1828 1.2797 0.4922 1.9688 0.8297 0.8438 2.1094 1.0266 3.3187 0.4641z m-72.45 -3.5578 c0.8016 -0.45 1.125 -1.7016 0.7594 -2.8406 -0.4078 -1.2516 -2.5453 -5.0062 -3.3891 -5.9766 -0.5062 -0.5766 -2.0109 -1.3219 -2.6719 -1.3219 -0.7172 0 -1.6734 0.5484 -2.1516 1.2375 -0.3797 0.5484 -0.4219 0.7172 -0.3937 1.5469 0.0281 1.575 0.5625 2.6156 2.4891 4.8797 2.1516 2.5313 3.8672 3.3328 5.3578 2.475z m67.3594 0.0281 c1.2234 -0.6187 2.8687 -2.2641 4.3172 -4.3312 0.8156 -1.1672 1.2375 -2.7141 1.0406 -3.7687 -0.1828 -0.9844 -1.4906 -2.0672 -2.4891 -2.0672 -0.8016 0 -1.8703 0.5344 -2.6016 1.2937 -0.7734 0.8156 -1.0969 1.2937 -2.0531 2.9953 -1.4203 2.5313 -1.8141 3.7547 -1.5469 4.6828 0.225 0.7594 0.5625 1.125 1.2234 1.3641 0.6328 0.225 1.4344 0.1547 2.1094 -0.1687z"/>
    <path
      d="M89.9859 112.0078 c-0.0422 -0.0281 -0.5344 -0.1266 -1.1109 -0.2109 -2.4469 -0.3797 -5.0906 -1.2234 -7.5234 -2.4047 -2.8969 -1.3922 -3.9797 -2.25 -5.1328 -3.9937 -0.7875 -1.2234 -1.4063 -2.7562 -1.7578 -4.3875 -0.2391 -1.0969 -0.2391 -1.2094 0 -2.4609 0.6609 -3.4172 2.3906 -6.975 4.7391 -9.6891 1.3078 -1.5187 3.7687 -3.3187 6.2297 -4.5281 1.9266 -0.9422 3.5156 -1.4766 5.1469 -1.7156 1.2094 -0.1828 3.9656 0.4359 5.9625 1.3359 l0.9844 0.4359 -1.4484 0.5484 c-2.5453 0.9703 -4.1484 1.9688 -5.9766 3.7406 -2.6578 2.5875 -4.0359 5.7234 -4.0359 9.1969 0 3.5859 1.3922 6.75 4.1062 9.3656 1.4344 1.3781 2.5453 2.1375 4.3172 2.9812 l1.35 0.6469 -0.6187 0.2672 c-1.0125 0.4359 -3.2625 0.9422 -4.2469 0.9422 -0.5062 0 -0.9562 -0.0281 -0.9844 -0.0703z"/>
    <path
      d="M48.2906 109.6875 c-2.7422 -0.2953 -5.3859 -1.1109 -8.2828 -2.5313 -4.1203 -2.0531 -6.0187 -3.9234 -7.1297 -7.0594 -0.3094 -0.8859 -0.3937 -1.3641 -0.3937 -2.3062 0 -2.8547 1.6594 -7.4953 3.6563 -10.2094 1.8141 -2.475 5.6953 -4.5281 10.0687 -5.3156 1.8703 -0.3375 3.0375 -0.3797 4.2047 -0.1547 0.9422 0.1969 2.6156 0.7031 2.7844 0.8438 0.0562 0.0562 -0.2672 0.3516 -0.7031 0.6609 -1.1531 0.7734 -3.2344 2.8969 -4.0219 4.0922 -0.9141 1.3641 -1.8422 3.375 -2.2359 4.8234 -0.2813 1.0406 -0.3234 1.5187 -0.3234 3.7266 0 2.1797 0.0422 2.6859 0.3234 3.6844 0.9422 3.4594 3.0656 6.5953 5.85 8.6625 l0.9703 0.7312 -0.8719 0.1547 c-1.3219 0.2391 -2.7844 0.3094 -3.8953 0.1969z"/>
  </g>

</svg>
