<!DOCTYPE svg PUBLIC "-//W3C//DTD SVG 20010904//EN"
  "http://www.w3.org/TR/2001/REC-SVG-20010904/DTD/svg10.dtd">
<svg xmlns="http://www.w3.org/2000/svg" width="135px" height="169px" id="warrior"
     viewBox="0 0 135 169" preserveAspectRatio="xMidYMid meet">
  <g id="layer101" fill="#000000" stroke="none">
    <path
      d="M29.8125 168.4125 c0 -0.1969 -0.0562 -0.3937 -0.1406 -0.4359 -0.0844 -0.0422 -0.1406 -0.7172 -0.1406 -1.5328 0 -1.125 -0.0422 -1.4906 -0.2109 -1.6312 -0.1687 -0.1406 -0.2109 -0.5344 -0.2109 -1.8422 0 -0.9562 -0.0562 -1.6875 -0.1406 -1.7437 -0.0844 -0.0562 -0.1406 -0.8859 -0.1406 -2.0391 0 -1.1531 -0.0562 -1.9828 -0.1406 -2.0391 -0.0844 -0.0562 -0.1406 -0.9844 -0.1406 -2.3203 0 -1.3359 -0.0562 -2.2641 -0.1406 -2.3203 -0.0844 -0.0562 -0.1406 -1.0969 -0.1406 -2.6719 0 -1.575 -0.0562 -2.6156 -0.1406 -2.6719 -0.0844 -0.0562 -0.1406 -1.3922 -0.1406 -3.5719 0 -2.8406 -0.0422 -3.5297 -0.2109 -3.7547 -0.1687 -0.225 -0.1969 -1.0125 -0.2109 -4.5844 0 -2.7984 -0.0562 -4.3312 -0.1406 -4.3312 -0.0984 0 -0.1406 -4.3172 -0.1406 -12.6563 0 -8.3391 0.0422 -12.6563 0.1406 -12.6563 0.0844 0 0.1406 -0.6469 0.1406 -1.6734 0 -1.3078 0.0422 -1.7016 0.2109 -1.8422 0.1547 -0.1266 0.2109 -0.4781 0.2109 -1.35 0 -0.6328 0.0703 -1.2094 0.1406 -1.2516 0.0844 -0.0422 0.1406 -0.5203 0.1406 -1.0547 0 -0.5344 0.0703 -1.0125 0.1406 -1.0547 0.0844 -0.0422 0.1406 -0.4922 0.1406 -0.9984 0 -0.5062 0.0562 -0.9 0.1406 -0.9 0.1828 0 0.1828 -1.5047 0 -1.6172 -0.0844 -0.0422 -0.1406 -0.2531 -0.1406 -0.45 0 -0.2531 -0.2953 -0.6609 -1.1109 -1.4625 -0.6187 -0.6187 -1.2094 -1.1109 -1.3078 -1.1109 -0.0984 0 -0.3656 -0.1969 -0.5906 -0.4219 -0.225 -0.2391 -0.4922 -0.4219 -0.5766 -0.4219 -0.0984 0 -0.2813 -0.1266 -0.4219 -0.2813 -0.1406 -0.1547 -0.3516 -0.2813 -0.4641 -0.2813 -0.1125 0 -0.3234 -0.1547 -0.4781 -0.3516 -0.1547 -0.1969 -0.3797 -0.3516 -0.5062 -0.3516 -0.1406 0 -0.3234 -0.1266 -0.4219 -0.2813 -0.0984 -0.1547 -0.3234 -0.2813 -0.4922 -0.2813 -0.2109 0 -0.4078 -0.1266 -0.5203 -0.3516 -0.0984 -0.1969 -0.2953 -0.3516 -0.4219 -0.3516 -0.1266 0 -0.3516 -0.1266 -0.4922 -0.2813 -0.1406 -0.1547 -0.3516 -0.2813 -0.4641 -0.2813 -0.1125 0 -0.3234 -0.1547 -0.4781 -0.3516 -0.1547 -0.1969 -0.3656 -0.3516 -0.4781 -0.3516 -0.1125 0 -0.3937 -0.225 -0.6328 -0.4922 -0.2391 -0.2672 -0.5484 -0.4922 -0.6891 -0.4922 -0.1266 0 -0.5062 -0.2813 -0.8297 -0.6328 -0.3234 -0.3516 -0.6609 -0.6328 -0.7594 -0.6328 -0.0984 0 -0.3937 -0.225 -0.6609 -0.4922 -0.2672 -0.2672 -0.5484 -0.4922 -0.6328 -0.4922 -0.2109 0 -5.1609 -4.9781 -5.2875 -5.3016 -0.0562 -0.1406 -0.3516 -0.5062 -0.675 -0.8156 -0.3234 -0.2953 -0.5766 -0.6187 -0.5766 -0.7031 0 -0.0844 -0.225 -0.3656 -0.4922 -0.6328 -0.2672 -0.2672 -0.4922 -0.5906 -0.4922 -0.7172 0 -0.1406 -0.1125 -0.3375 -0.2672 -0.4359 -0.1406 -0.0984 -0.2953 -0.3234 -0.3516 -0.4922 -0.0562 -0.1828 -0.1687 -0.3234 -0.2391 -0.3234 -0.0703 0 -0.1266 -0.1125 -0.1266 -0.2672 0 -0.1406 -0.0984 -0.3375 -0.2109 -0.4359 -0.1266 -0.0984 -0.3516 -0.4781 -0.5203 -0.8297 -0.1547 -0.3516 -0.3375 -0.675 -0.4078 -0.7172 -0.225 -0.1547 -1.2516 -2.2922 -1.2516 -2.6156 0 -0.1687 -0.0562 -0.3516 -0.1266 -0.3937 -0.1828 -0.1266 -0.8578 -1.5047 -0.8578 -1.7719 0 -0.2813 -0.3797 -1.0828 -0.5766 -1.1953 -0.0703 -0.0562 -0.1266 -0.2672 -0.1266 -0.4922 0 -0.225 -0.0703 -0.45 -0.1406 -0.4922 -0.0844 -0.0422 -0.1406 -0.2391 -0.1406 -0.4219 0 -0.1828 -0.0703 -0.3797 -0.1406 -0.4219 -0.0844 -0.0422 -0.1406 -0.3234 -0.1406 -0.6187 0 -0.3094 -0.0844 -0.6187 -0.2109 -0.7172 -0.1125 -0.0984 -0.2109 -0.3234 -0.2109 -0.5062 0 -0.1687 -0.0703 -0.3656 -0.1406 -0.4078 -0.0844 -0.0422 -0.1406 -0.2672 -0.1406 -0.4922 0 -0.225 -0.0703 -0.45 -0.1406 -0.4922 -0.0844 -0.0422 -0.1406 -0.3937 -0.1406 -0.7734 0 -0.3797 -0.0703 -0.7312 -0.1406 -0.7734 -0.0844 -0.0422 -0.1406 -0.4641 -0.1406 -0.9141 0 -0.7031 -0.0562 -0.8578 -0.3094 -1.0547 l-0.3234 -0.2109 0 -6.1875 0 -6.1875 0.3234 -0.2109 c0.225 -0.1687 0.3094 -0.3656 0.3094 -0.7875 0 -0.2953 0.0703 -0.5484 0.1406 -0.5484 0.0844 0 0.1406 -0.2391 0.1406 -0.5344 0 -0.3375 0.0984 -0.6469 0.2813 -0.8438 0.1547 -0.1687 0.2813 -0.3937 0.2813 -0.5062 0 -0.0984 0.0984 -0.225 0.2109 -0.2813 0.1125 -0.0422 0.2109 -0.1969 0.2109 -0.3375 0 -0.1406 0.1266 -0.3797 0.2813 -0.5203 0.1547 -0.1406 0.2813 -0.3656 0.2813 -0.5203 0 -0.1547 0.0984 -0.2531 0.2672 -0.2531 0.1547 0 0.3937 -0.1547 0.5484 -0.3516 0.1547 -0.1969 0.4078 -0.3516 0.5766 -0.3516 0.1687 0 0.2953 -0.0562 0.2953 -0.1406 0 -0.0703 0.2391 -0.1406 0.5484 -0.1406 0.3094 0 0.6187 -0.0844 0.7172 -0.2109 0.2391 -0.2953 1.8703 -0.2953 2.1656 0 0.1266 0.1266 0.4781 0.2109 0.9141 0.2109 0.3937 0 0.8438 0.0703 0.9984 0.1406 0.1547 0.0844 0.4078 0.1969 0.5625 0.2813 0.1547 0.0703 0.4359 0.1406 0.6187 0.1406 0.1828 0 0.3797 0.0984 0.4219 0.225 0.0562 0.1547 0.1969 0.2109 0.45 0.1547 0.225 -0.0422 0.3937 0.0141 0.4359 0.1266 0.0422 0.1125 0.1969 0.1969 0.3375 0.1969 0.1406 0 0.2672 0.0703 0.2672 0.1406 0 0.0844 0.1547 0.1406 0.3375 0.1406 0.1828 0 0.3656 0.0984 0.4219 0.2109 0.0422 0.1125 0.2109 0.2109 0.3656 0.2109 0.1547 0 0.2813 0.0703 0.2813 0.1406 0 0.0844 0.1266 0.1406 0.2813 0.1406 0.1547 0 0.2813 0.0703 0.2813 0.1406 0 0.0844 0.225 0.1406 0.4922 0.1406 0.2672 0 0.4922 0.0703 0.4922 0.1406 0 0.0844 0.1125 0.1406 0.2672 0.1406 0.1406 0 0.3797 0.1547 0.5203 0.3516 0.1406 0.1969 0.3656 0.3516 0.4781 0.3656 0.1125 0 0.4078 0.1266 0.6328 0.2672 0.3937 0.2531 0.7453 0.4219 2.6437 1.3359 0.3937 0.1969 0.8297 0.4219 0.9422 0.4781 0.1125 0.0703 0.4078 0.2109 0.6328 0.3094 0.2391 0.1125 0.45 0.2391 0.4922 0.2813 0.1406 0.1828 1.1391 0.6891 1.35 0.6891 0.1125 0 0.2391 0.0984 0.2813 0.2109 0.0562 0.1125 0.2109 0.2109 0.3516 0.2109 0.1406 0 0.2672 0.0703 0.2672 0.1406 0 0.0844 0.1266 0.1406 0.2672 0.1406 0.1547 0 0.3234 0.0703 0.3656 0.1406 0.0422 0.0844 0.2672 0.1406 0.5062 0.1406 0.225 0 0.4078 0.0703 0.4078 0.1406 0 0.0844 0.1266 0.1406 0.2672 0.1406 0.1406 0 0.2953 0.0984 0.3516 0.2109 0.0422 0.1125 0.1969 0.2109 0.3516 0.2109 0.1547 0 0.3234 0.0562 0.3656 0.1406 0.0422 0.0703 0.2109 0.1406 0.3656 0.1406 0.1406 0 0.2672 0.0703 0.2672 0.1406 0 0.0844 0.0984 0.1406 0.225 0.1406 0.1125 0 0.3094 0.0984 0.4219 0.2109 0.1406 0.1266 0.3375 0.1828 0.5625 0.1266 0.2531 -0.0703 0.3375 -0.0281 0.3375 0.1406 0 0.1406 0.1266 0.225 0.3516 0.225 0.1969 0 0.3516 0.0703 0.3516 0.1406 0 0.0844 0.1547 0.1406 0.3516 0.1406 0.3516 0 0.7734 0.1828 1.2234 0.5344 0.1266 0.1125 0.3516 0.1547 0.5203 0.0984 0.1969 -0.0562 0.3234 -0.0141 0.3797 0.1266 0.0562 0.1266 0.2531 0.225 0.4781 0.225 0.225 0 0.45 0.0562 0.4922 0.1406 0.0422 0.0703 0.3234 0.1406 0.6328 0.1406 0.3234 0 0.5625 0.0703 0.6047 0.1969 0.0984 0.2391 1.3922 0.2109 1.4766 -0.0281 0.0281 -0.0984 0.2672 -0.1687 0.5344 -0.1687 0.2672 0 0.4781 -0.0562 0.4781 -0.1406 0 -0.0703 0.1266 -0.1406 0.2813 -0.1406 0.1547 0 0.2813 -0.0562 0.2813 -0.1406 0 -0.0703 0.1547 -0.1406 0.3516 -0.1406 0.225 0 0.3516 -0.0844 0.3516 -0.2109 0 -0.1266 0.1266 -0.2109 0.3375 -0.2109 0.1969 0 0.4641 -0.1687 0.6609 -0.4219 0.1828 -0.225 0.45 -0.4219 0.5766 -0.4219 0.1266 0 0.3516 -0.1547 0.5062 -0.3516 0.1547 -0.1969 0.3797 -0.3516 0.4922 -0.3516 0.1125 0 0.4078 -0.225 0.6469 -0.4922 0.2391 -0.2672 0.5344 -0.4922 0.6469 -0.4922 0.1266 0 0.3937 -0.1969 0.5906 -0.4219 0.1828 -0.2391 0.4359 -0.4219 0.5484 -0.4219 0.1125 0 0.4078 -0.2109 0.6609 -0.4781 0.2531 -0.2672 0.5906 -0.5203 0.7594 -0.5766 0.1687 -0.0422 0.4641 -0.2672 0.6609 -0.5062 0.1969 -0.225 0.4359 -0.4078 0.5344 -0.4078 0.1125 0 0.3797 -0.1828 0.6047 -0.4219 0.225 -0.225 0.4781 -0.4219 0.5906 -0.4219 0.0984 0 0.3797 -0.2109 0.6328 -0.45 0.2531 -0.2531 0.6469 -0.5484 0.8578 -0.6328 0.2109 -0.0984 0.4219 -0.2813 0.4641 -0.3937 0.0562 -0.1125 0.1969 -0.2109 0.3375 -0.2109 0.1266 0 0.3516 -0.1266 0.4922 -0.2813 0.1406 -0.1547 0.3375 -0.2813 0.4359 -0.2813 0.0844 0 0.3656 -0.225 0.6047 -0.4922 0.2391 -0.2672 0.5062 -0.4922 0.6187 -0.4922 0.0984 0 0.3375 -0.1547 0.5203 -0.3516 0.1828 -0.1969 0.4359 -0.3516 0.5625 -0.3516 0.1125 0 0.3094 -0.1266 0.4219 -0.2813 0.1125 -0.1547 0.2813 -0.2813 0.3937 -0.2813 0.0984 0 0.3375 -0.1547 0.5344 -0.3516 0.1969 -0.1969 0.4359 -0.3516 0.5484 -0.3516 0.1125 0 0.2109 -0.0562 0.2109 -0.1406 0 -0.0703 0.1125 -0.1406 0.2391 -0.1406 0.1266 0 0.3656 -0.1125 0.5203 -0.2531 0.1687 -0.1406 0.5203 -0.3516 0.7875 -0.45 0.2672 -0.0984 0.6469 -0.3234 0.8438 -0.4781 0.45 -0.3797 0.9281 -0.6469 1.1531 -0.6469 0.1125 0 0.3094 -0.1547 0.45 -0.3516 0.1406 -0.1969 0.3797 -0.3516 0.5203 -0.3516 0.1547 0 0.2672 -0.0562 0.2672 -0.1406 0 -0.0703 0.1266 -0.1406 0.2672 -0.1406 0.1547 0 0.3234 -0.0562 0.3656 -0.1406 0.0422 -0.0703 0.2109 -0.1406 0.3656 -0.1406 0.1406 0 0.2672 -0.0984 0.2672 -0.2109 0 -0.1125 0.1266 -0.2109 0.2813 -0.2109 0.1547 0 0.2813 -0.0562 0.2813 -0.1406 0 -0.0703 0.1547 -0.1406 0.3516 -0.1406 0.1969 0 0.3516 -0.0562 0.3516 -0.1406 0 -0.0703 0.1266 -0.1406 0.2813 -0.1406 0.1547 0 0.3234 -0.0984 0.3797 -0.225 0.0562 -0.1547 0.1828 -0.1828 0.4641 -0.1266 0.2813 0.0562 0.4078 0.0281 0.4641 -0.1266 0.0562 -0.1266 0.225 -0.225 0.3797 -0.225 0.1547 0 0.2813 -0.0562 0.2813 -0.1406 0 -0.0703 0.0844 -0.1406 0.1828 -0.1406 0.2953 0 1.0828 -0.4219 1.0828 -0.5766 0 -0.0703 0.1266 -0.1266 0.2672 -0.1266 0.1547 0 0.3234 -0.0562 0.3656 -0.1406 0.0422 -0.0844 0.2391 -0.1406 0.4359 -0.1406 0.1969 0 0.45 -0.0984 0.5625 -0.2109 0.1406 -0.1406 0.3516 -0.1687 0.6469 -0.1125 0.3094 0.0562 0.4641 0.0281 0.5625 -0.1406 0.0844 -0.1547 0.3094 -0.2391 0.675 -0.2391 0.2953 0 0.5906 -0.0562 0.6328 -0.1406 0.0422 -0.0844 0.3375 -0.1406 0.6469 -0.1406 0.2953 0 0.5484 -0.0562 0.5484 -0.1406 0 -0.0703 0.2813 -0.1406 0.6328 -0.1406 0.3516 0 0.6328 -0.0562 0.6328 -0.1406 0 -0.0703 0.2813 -0.1406 0.6328 -0.1406 0.4219 0 0.675 -0.0703 0.7172 -0.1969 0.0562 -0.1547 0.9281 -0.2109 4.4156 -0.2953 2.3906 -0.0562 4.4156 -0.0422 4.5281 0.0141 0.0984 0.0703 0.6047 0.0984 1.1109 0.0703 0.7453 -0.0281 0.9422 0 1.0125 0.1828 0.0703 0.1687 0.2953 0.225 0.9281 0.225 0.4641 0 0.8859 0.0703 0.9281 0.1406 0.0422 0.0844 0.4922 0.1406 0.9984 0.1406 0.5062 0 0.9 0.0562 0.9 0.1406 0 0.0844 0.1828 0.1406 0.4078 0.1406 0.2391 0 0.4641 0.0562 0.5062 0.1406 0.0422 0.0844 0.3656 0.1406 0.7172 0.1406 0.45 0 0.6187 0.0562 0.6187 0.2109 0 0.1406 0.1547 0.2109 0.4922 0.2109 0.2672 0 0.4922 0.0703 0.4922 0.1406 0 0.0844 0.1828 0.1406 0.4078 0.1406 0.2391 0 0.4641 0.0703 0.5062 0.1406 0.0422 0.0844 0.2672 0.1406 0.4922 0.1406 0.225 0 0.4219 0.0984 0.4781 0.225 0.0562 0.1547 0.1969 0.2109 0.45 0.1547 0.225 -0.0422 0.3937 0.0141 0.4359 0.1266 0.0422 0.1125 0.1828 0.1969 0.3234 0.1969 0.1547 0 0.3094 0.0562 0.3516 0.1406 0.0422 0.0844 0.2109 0.1406 0.3656 0.1406 0.1406 0 0.2672 0.0703 0.2672 0.1406 0 0.0844 0.1266 0.1406 0.2813 0.1406 0.1547 0 0.2813 0.0562 0.2813 0.1125 0 0.1266 0.9844 0.5906 1.2375 0.5906 0.0984 0 0.1687 0.0703 0.1687 0.1406 0 0.0844 0.1266 0.1406 0.2813 0.1406 0.1547 0 0.2813 0.0562 0.2813 0.1406 0 0.0703 0.1547 0.1687 0.3516 0.225 0.1969 0.0422 0.3516 0.1406 0.3516 0.2109 0 0.0703 0.1266 0.1266 0.2672 0.1266 0.1547 0 0.3234 0.0703 0.3656 0.1406 0.0422 0.0844 0.2109 0.1406 0.3656 0.1406 0.1406 0 0.2672 0.0703 0.2672 0.1406 0 0.0844 0.0984 0.1406 0.2109 0.1406 0.1125 0 0.3516 0.1547 0.5203 0.3516 0.1687 0.1969 0.4078 0.3516 0.5344 0.3516 0.1266 0 0.3516 0.1266 0.4922 0.2813 0.1406 0.1547 0.3234 0.2813 0.4219 0.2813 0.0844 0 0.3656 0.225 0.6328 0.4922 0.2672 0.2672 0.5766 0.4922 0.7031 0.4922 0.1125 0 0.2953 0.1266 0.3937 0.2813 0.0984 0.1547 0.2672 0.2813 0.3937 0.2813 0.1125 0 0.3516 0.1547 0.5344 0.3516 0.1828 0.1969 0.4078 0.3516 0.4922 0.3516 0.0984 0 0.675 0.5062 1.2937 1.125 0.6047 0.6187 1.1812 1.125 1.2797 1.125 0.225 0 4.4719 4.2328 4.4719 4.4578 0 0.0844 0.4078 0.5766 0.9141 1.0688 0.5062 0.5062 0.9141 0.9984 0.9141 1.0969 0 0.1125 0.2813 0.4641 0.6328 0.8016 0.3516 0.3375 0.6328 0.6891 0.6328 0.7875 0 0.0984 0.1547 0.3234 0.3516 0.5062 0.1969 0.1828 0.3516 0.4078 0.3516 0.4922 0 0.0844 0.1969 0.3375 0.4219 0.5625 0.225 0.225 0.4219 0.4641 0.4219 0.5344 0 0.0562 0.1547 0.3234 0.3516 0.5766 0.1969 0.2531 0.3516 0.5344 0.3516 0.6187 0 0.0984 0.0562 0.1687 0.1266 0.1687 0.0703 0 0.225 0.2109 0.3516 0.4781 0.1125 0.2531 0.3234 0.5484 0.4359 0.6469 0.1125 0.0984 0.3094 0.3797 0.4078 0.6187 0.5062 1.1672 0.9281 1.9266 1.2375 2.2922 0.1125 0.1406 0.3094 0.4922 0.45 0.7734 0.1266 0.2813 0.2953 0.5625 0.3656 0.6047 0.0844 0.0422 0.1406 0.2109 0.1406 0.3656 0 0.1406 0.0703 0.2672 0.1406 0.2672 0.0844 0 0.1406 0.1125 0.1547 0.2531 0 0.1266 0.1266 0.4359 0.2672 0.6609 0.3234 0.4922 0.7031 1.3219 0.7031 1.4906 0 0.0703 0.0703 0.1266 0.1406 0.1266 0.0844 0 0.1406 0.1547 0.1406 0.3375 0 0.1828 0.1547 0.6047 0.3375 0.9422 0.1969 0.3375 0.3234 0.6469 0.2813 0.7172 -0.0422 0.0562 0.0984 0.3937 0.2953 0.7453 0.1969 0.3516 0.3516 0.7312 0.3516 0.8438 0 0.1125 0.0703 0.2109 0.1406 0.2109 0.0844 0 0.1406 0.1125 0.1406 0.2672 0 0.3375 0.3797 1.2375 0.5625 1.35 0.0703 0.0422 0.1406 0.2672 0.1406 0.4922 0 0.225 0.0703 0.45 0.1406 0.4922 0.0844 0.0422 0.1406 0.2391 0.1406 0.4219 0 0.1828 0.0703 0.3797 0.1406 0.4219 0.0844 0.0422 0.1406 0.2672 0.1406 0.4922 0 0.225 0.0703 0.45 0.1406 0.4922 0.0844 0.0422 0.1406 0.2953 0.1406 0.5625 0 0.2672 0.0703 0.5203 0.1406 0.5625 0.0844 0.0422 0.1406 0.2672 0.1406 0.4781 0 0.225 0.0984 0.4781 0.2109 0.5766 0.1125 0.0984 0.2109 0.3516 0.2109 0.5766 0 0.225 0.0703 0.4078 0.1406 0.4078 0.0844 0 0.1406 0.1828 0.1406 0.4078 0 0.2391 0.0703 0.4641 0.1406 0.5062 0.0844 0.0422 0.1406 0.2813 0.1406 0.5062 0 0.2391 0.0844 0.45 0.2109 0.4922 0.1406 0.0562 0.2109 0.2813 0.2109 0.6187 0 0.3094 0.0703 0.5906 0.1406 0.6328 0.0844 0.0422 0.1406 0.3375 0.1406 0.6328 0 0.2953 0.0703 0.5906 0.1406 0.6328 0.0844 0.0422 0.1406 0.3234 0.1406 0.6187 0 0.3094 0.0844 0.6187 0.2109 0.7172 0.1266 0.0984 0.2109 0.4078 0.2109 0.7172 0 0.3094 0.0703 0.5484 0.1406 0.5484 0.0844 0 0.1406 0.1828 0.1406 0.4078 0 0.2391 0.0703 0.4641 0.1406 0.5062 0.0844 0.0422 0.1406 0.3375 0.1406 0.6328 0 0.2953 0.0703 0.5906 0.1406 0.6328 0.0703 0.0422 0.1406 0.3937 0.1406 0.7594 0 0.4359 0.0703 0.7453 0.2109 0.8578 0.1406 0.1125 0.2109 0.4219 0.2109 0.8578 0 0.3797 0.0703 0.6891 0.1406 0.6891 0.0844 0 0.1406 0.3375 0.1406 0.7594 0 0.4219 0.0703 0.8156 0.1406 0.8578 0.0703 0.0422 0.1406 0.3937 0.1406 0.7734 0 0.3797 0.0703 0.7312 0.1406 0.7734 0.0703 0.0422 0.1406 0.2953 0.1406 0.5625 0 0.2531 0.0984 0.5625 0.2109 0.6891 0.1266 0.1266 0.2109 0.4641 0.2109 0.9141 0 0.3797 0.0703 0.7453 0.1406 0.7875 0.0844 0.0422 0.1406 0.5203 0.1406 1.0406 0 0.5203 0.0562 0.9984 0.1266 1.0688 0.1266 0.1406 0.225 0.8438 0.3797 2.7844 0.0562 0.6469 0.1406 0.9844 0.2813 1.0406 0.1406 0.0562 0.1969 0.3375 0.1969 1.0969 0 0.5766 0.0703 1.0828 0.1406 1.125 0.0844 0.0422 0.1406 0.5625 0.1406 1.1391 0 0.6047 0.0562 1.0406 0.1406 1.0406 0.0844 0 0.1406 0.5625 0.1406 1.3922 0 0.7875 0.0562 1.4484 0.1406 1.4906 0.0844 0.0422 0.1406 0.4922 0.1406 0.9984 0 0.7312 0.0703 1.0125 0.3516 1.4484 0.1969 0.2813 0.4219 0.7312 0.4781 0.9703 0.2531 0.8719 0.3656 12.6563 0.3516 36.5625 -0.0281 21.2906 -0.0562 24.2578 -0.2391 24.3984 -0.1125 0.0984 -0.2391 0.3375 -0.2953 0.5625 l-0.0844 0.3797 -52.2422 0 -52.2422 0 0 -0.3375z"/>
  </g>
  <g id="layer102" fill="#eec2a3" stroke="none">
    <path
      d="M29.8125 168.4125 c0 -0.1969 -0.0562 -0.3937 -0.1406 -0.4359 -0.0844 -0.0422 -0.1406 -0.7172 -0.1406 -1.5328 0 -1.125 -0.0422 -1.4906 -0.2109 -1.6312 -0.1687 -0.1406 -0.2109 -0.5344 -0.2109 -1.8422 0 -0.9562 -0.0562 -1.6875 -0.1406 -1.7437 -0.0844 -0.0562 -0.1406 -0.8859 -0.1406 -2.0391 0 -1.1531 -0.0562 -1.9828 -0.1406 -2.0391 -0.0844 -0.0562 -0.1406 -0.9844 -0.1406 -2.3203 0 -1.3359 -0.0562 -2.2641 -0.1406 -2.3203 -0.0844 -0.0562 -0.1406 -1.0969 -0.1406 -2.6719 0 -1.575 -0.0562 -2.6156 -0.1406 -2.6719 -0.0844 -0.0562 -0.1406 -1.3922 -0.1406 -3.5719 0 -2.8406 -0.0422 -3.5297 -0.2109 -3.7547 -0.1687 -0.225 -0.1969 -1.0125 -0.2109 -4.5844 0 -2.7984 -0.0562 -4.3312 -0.1406 -4.3312 -0.0984 0 -0.1406 -4.3172 -0.1406 -12.6563 0 -8.3391 0.0422 -12.6563 0.1406 -12.6563 0.0844 0 0.1406 -0.6469 0.1406 -1.6734 0 -1.3078 0.0422 -1.7016 0.2109 -1.8422 0.1547 -0.1266 0.2109 -0.4781 0.2109 -1.35 0 -0.6328 0.0703 -1.2094 0.1406 -1.2516 0.0844 -0.0422 0.1406 -0.5203 0.1406 -1.0547 0 -0.5344 0.0703 -1.0125 0.1406 -1.0547 0.0844 -0.0422 0.1406 -0.4922 0.1406 -0.9984 0 -0.5062 0.0562 -0.9 0.1406 -0.9 0.1828 0 0.1828 -1.5047 0 -1.6172 -0.0844 -0.0422 -0.1406 -0.2531 -0.1406 -0.45 0 -0.2531 -0.2953 -0.6609 -1.1109 -1.4625 -0.6187 -0.6187 -1.2094 -1.1109 -1.3078 -1.1109 -0.0984 0 -0.3656 -0.1969 -0.5906 -0.4219 -0.225 -0.2391 -0.4922 -0.4219 -0.5766 -0.4219 -0.0984 0 -0.2813 -0.1266 -0.4219 -0.2813 -0.1406 -0.1547 -0.3516 -0.2813 -0.4641 -0.2813 -0.1125 0 -0.3234 -0.1547 -0.4781 -0.3516 -0.1547 -0.1969 -0.3797 -0.3516 -0.5062 -0.3516 -0.1406 0 -0.3234 -0.1266 -0.4219 -0.2813 -0.0984 -0.1547 -0.3234 -0.2813 -0.4922 -0.2813 -0.2109 0 -0.4078 -0.1266 -0.5203 -0.3516 -0.0984 -0.1969 -0.2953 -0.3516 -0.4219 -0.3516 -0.1266 0 -0.3516 -0.1266 -0.4922 -0.2813 -0.1406 -0.1547 -0.3516 -0.2813 -0.4641 -0.2813 -0.1125 0 -0.3234 -0.1547 -0.4781 -0.3516 -0.1547 -0.1969 -0.3656 -0.3516 -0.4781 -0.3516 -0.1125 0 -0.3937 -0.225 -0.6328 -0.4922 -0.2391 -0.2672 -0.5484 -0.4922 -0.6891 -0.4922 -0.1266 0 -0.5062 -0.2813 -0.8297 -0.6328 -0.3234 -0.3516 -0.6609 -0.6328 -0.7594 -0.6328 -0.0984 0 -0.3937 -0.225 -0.6609 -0.4922 -0.2672 -0.2672 -0.5484 -0.4922 -0.6328 -0.4922 -0.2109 0 -5.1609 -4.9781 -5.2875 -5.3016 -0.0562 -0.1406 -0.3516 -0.5062 -0.675 -0.8156 -0.3234 -0.2953 -0.5766 -0.6187 -0.5766 -0.7031 0 -0.0844 -0.225 -0.3656 -0.4922 -0.6328 -0.2672 -0.2672 -0.4922 -0.5906 -0.4922 -0.7172 0 -0.1406 -0.1125 -0.3375 -0.2672 -0.4359 -0.1406 -0.0984 -0.2953 -0.3234 -0.3516 -0.4922 -0.0562 -0.1828 -0.1687 -0.3234 -0.2391 -0.3234 -0.0703 0 -0.1266 -0.1125 -0.1266 -0.2672 0 -0.1406 -0.0984 -0.3375 -0.2109 -0.4359 -0.1266 -0.0984 -0.3516 -0.4781 -0.5203 -0.8297 -0.1547 -0.3516 -0.3375 -0.675 -0.4078 -0.7172 -0.225 -0.1547 -1.2516 -2.2922 -1.2516 -2.6156 0 -0.1687 -0.0562 -0.3516 -0.1266 -0.3937 -0.1828 -0.1266 -0.8578 -1.5047 -0.8578 -1.7719 0 -0.2813 -0.3797 -1.0828 -0.5766 -1.1953 -0.0703 -0.0562 -0.1266 -0.2672 -0.1266 -0.4922 0 -0.225 -0.0703 -0.45 -0.1406 -0.4922 -0.0844 -0.0422 -0.1406 -0.2391 -0.1406 -0.4219 0 -0.1828 -0.0703 -0.3797 -0.1406 -0.4219 -0.0844 -0.0422 -0.1406 -0.3234 -0.1406 -0.6187 0 -0.3094 -0.0844 -0.6187 -0.2109 -0.7172 -0.1125 -0.0984 -0.2109 -0.3234 -0.2109 -0.5062 0 -0.1687 -0.0703 -0.3656 -0.1406 -0.4078 -0.0844 -0.0422 -0.1406 -0.2672 -0.1406 -0.4922 0 -0.225 -0.0703 -0.45 -0.1406 -0.4922 -0.0844 -0.0422 -0.1406 -0.3937 -0.1406 -0.7734 0 -0.3797 -0.0703 -0.7312 -0.1406 -0.7734 -0.0844 -0.0422 -0.1406 -0.4641 -0.1406 -0.9141 0 -0.7031 -0.0562 -0.8578 -0.3094 -1.0547 l-0.3234 -0.2109 0 -6.1875 0 -6.1875 0.3234 -0.2109 c0.225 -0.1687 0.3094 -0.3656 0.3094 -0.7875 0 -0.2953 0.0703 -0.5484 0.1406 -0.5484 0.0844 0 0.1406 -0.2391 0.1406 -0.5344 0 -0.3375 0.0984 -0.6469 0.2813 -0.8438 0.1547 -0.1687 0.2813 -0.3937 0.2813 -0.5062 0 -0.0984 0.0984 -0.225 0.2109 -0.2813 0.1125 -0.0422 0.2109 -0.1969 0.2109 -0.3375 0 -0.1406 0.1266 -0.3797 0.2813 -0.5203 0.1547 -0.1406 0.2813 -0.3656 0.2813 -0.5203 0 -0.1547 0.0984 -0.2531 0.2672 -0.2531 0.1547 0 0.3937 -0.1547 0.5484 -0.3516 0.1547 -0.1969 0.4078 -0.3516 0.5766 -0.3516 0.1687 0 0.2953 -0.0562 0.2953 -0.1406 0 -0.0703 0.2391 -0.1406 0.5484 -0.1406 0.3094 0 0.6187 -0.0844 0.7172 -0.2109 0.2391 -0.2953 1.8703 -0.2953 2.1656 0 0.1266 0.1266 0.4781 0.2109 0.9141 0.2109 0.3937 0 0.8438 0.0703 0.9984 0.1406 0.1547 0.0844 0.4078 0.1969 0.5625 0.2813 0.1547 0.0703 0.4359 0.1406 0.6187 0.1406 0.1828 0 0.3797 0.0984 0.4219 0.225 0.0562 0.1547 0.1969 0.2109 0.45 0.1547 0.225 -0.0422 0.3937 0.0141 0.4359 0.1266 0.0422 0.1125 0.1969 0.1969 0.3375 0.1969 0.1406 0 0.2672 0.0703 0.2672 0.1406 0 0.0844 0.1547 0.1406 0.3375 0.1406 0.1828 0 0.3656 0.0984 0.4219 0.2109 0.0422 0.1125 0.2109 0.2109 0.3656 0.2109 0.1547 0 0.2813 0.0703 0.2813 0.1406 0 0.0844 0.1266 0.1406 0.2813 0.1406 0.1547 0 0.2813 0.0703 0.2813 0.1406 0 0.0844 0.225 0.1406 0.4922 0.1406 0.2672 0 0.4922 0.0703 0.4922 0.1406 0 0.0844 0.1125 0.1406 0.2672 0.1406 0.1406 0 0.3797 0.1547 0.5203 0.3516 0.1406 0.1969 0.3656 0.3516 0.4781 0.3656 0.1125 0 0.4078 0.1266 0.6328 0.2672 0.3937 0.2531 0.7453 0.4219 2.6437 1.3359 0.3937 0.1969 0.8297 0.4219 0.9422 0.4781 0.1125 0.0703 0.4078 0.2109 0.6328 0.3094 0.2391 0.1125 0.45 0.2391 0.4922 0.2813 0.1406 0.1828 1.1391 0.6891 1.35 0.6891 0.1125 0 0.2391 0.0984 0.2813 0.2109 0.0562 0.1125 0.2109 0.2109 0.3516 0.2109 0.1406 0 0.2672 0.0703 0.2672 0.1406 0 0.0844 0.1266 0.1406 0.2672 0.1406 0.1547 0 0.3234 0.0703 0.3656 0.1406 0.0422 0.0844 0.2672 0.1406 0.5062 0.1406 0.225 0 0.4078 0.0703 0.4078 0.1406 0 0.0844 0.1266 0.1406 0.2672 0.1406 0.1406 0 0.2953 0.0984 0.3516 0.2109 0.0422 0.1125 0.1969 0.2109 0.3516 0.2109 0.1547 0 0.3234 0.0562 0.3656 0.1406 0.0422 0.0703 0.2109 0.1406 0.3656 0.1406 0.1406 0 0.2672 0.0703 0.2672 0.1406 0 0.0844 0.0984 0.1406 0.225 0.1406 0.1125 0 0.3094 0.0984 0.4219 0.2109 0.1406 0.1266 0.3375 0.1828 0.5625 0.1266 0.2531 -0.0703 0.3375 -0.0281 0.3375 0.1406 0 0.1406 0.1266 0.225 0.3516 0.225 0.1969 0 0.3516 0.0703 0.3516 0.1406 0 0.0844 0.1547 0.1406 0.3516 0.1406 0.3516 0 0.7734 0.1828 1.2234 0.5344 0.1266 0.1125 0.3516 0.1547 0.5203 0.0984 0.1969 -0.0562 0.3234 -0.0141 0.3797 0.1266 0.0562 0.1266 0.2531 0.225 0.4781 0.225 0.225 0 0.45 0.0562 0.4922 0.1406 0.0422 0.0703 0.3234 0.1406 0.6328 0.1406 0.3234 0 0.5625 0.0703 0.6047 0.1969 0.0984 0.2391 1.3922 0.2109 1.4766 -0.0281 0.0281 -0.0984 0.2672 -0.1687 0.5344 -0.1687 0.2672 0 0.4781 -0.0562 0.4781 -0.1406 0 -0.0703 0.1266 -0.1406 0.2813 -0.1406 0.1547 0 0.2813 -0.0562 0.2813 -0.1406 0 -0.0703 0.1547 -0.1406 0.3516 -0.1406 0.225 0 0.3516 -0.0844 0.3516 -0.2109 0 -0.1266 0.1266 -0.2109 0.3375 -0.2109 0.1969 0 0.4641 -0.1687 0.6609 -0.4219 0.1828 -0.225 0.45 -0.4219 0.5766 -0.4219 0.1266 0 0.3516 -0.1547 0.5062 -0.3516 0.1547 -0.1969 0.3797 -0.3516 0.4922 -0.3516 0.1125 0 0.4078 -0.225 0.6469 -0.4922 0.2391 -0.2672 0.5344 -0.4922 0.6469 -0.4922 0.1266 0 0.3937 -0.1969 0.5906 -0.4219 0.1828 -0.2391 0.4359 -0.4219 0.5484 -0.4219 0.1125 0 0.4078 -0.2109 0.6609 -0.4781 0.2531 -0.2672 0.5906 -0.5203 0.7594 -0.5766 0.1687 -0.0422 0.4641 -0.2672 0.6609 -0.5062 0.1969 -0.225 0.4359 -0.4078 0.5344 -0.4078 0.1125 0 0.3797 -0.1828 0.6047 -0.4219 0.225 -0.225 0.4781 -0.4219 0.5906 -0.4219 0.0984 0 0.3797 -0.2109 0.6328 -0.45 0.2531 -0.2531 0.6469 -0.5484 0.8578 -0.6328 0.2109 -0.0984 0.4219 -0.2813 0.4641 -0.3937 0.0562 -0.1125 0.1969 -0.2109 0.3375 -0.2109 0.1266 0 0.3516 -0.1266 0.4922 -0.2813 0.1406 -0.1547 0.3375 -0.2813 0.4359 -0.2813 0.0844 0 0.3656 -0.225 0.6047 -0.4922 0.2391 -0.2672 0.5062 -0.4922 0.6187 -0.4922 0.0984 0 0.3375 -0.1547 0.5203 -0.3516 0.1828 -0.1969 0.4359 -0.3516 0.5625 -0.3516 0.1125 0 0.3094 -0.1266 0.4219 -0.2813 0.1125 -0.1547 0.2813 -0.2813 0.3937 -0.2813 0.0984 0 0.3375 -0.1547 0.5344 -0.3516 0.1969 -0.1969 0.4359 -0.3516 0.5484 -0.3516 0.1125 0 0.2109 -0.0562 0.2109 -0.1406 0 -0.0703 0.1125 -0.1406 0.2391 -0.1406 0.1266 0 0.3656 -0.1125 0.5203 -0.2531 0.1687 -0.1406 0.5203 -0.3516 0.7875 -0.45 0.2672 -0.0984 0.6469 -0.3234 0.8438 -0.4781 0.45 -0.3797 0.9281 -0.6469 1.1531 -0.6469 0.1125 0 0.3094 -0.1547 0.45 -0.3516 0.1406 -0.1969 0.3797 -0.3516 0.5203 -0.3516 0.1547 0 0.2672 -0.0562 0.2672 -0.1406 0 -0.0703 0.1266 -0.1406 0.2672 -0.1406 0.1547 0 0.3234 -0.0562 0.3656 -0.1406 0.0422 -0.0703 0.2109 -0.1406 0.3656 -0.1406 0.1406 0 0.2672 -0.0984 0.2672 -0.2109 0 -0.1125 0.1266 -0.2109 0.2813 -0.2109 0.1547 0 0.2813 -0.0562 0.2813 -0.1406 0 -0.0703 0.1547 -0.1406 0.3516 -0.1406 0.1969 0 0.3516 -0.0562 0.3516 -0.1406 0 -0.0703 0.1266 -0.1406 0.2813 -0.1406 0.1547 0 0.3234 -0.0984 0.3797 -0.225 0.0562 -0.1547 0.1828 -0.1828 0.4641 -0.1266 0.2813 0.0562 0.4078 0.0281 0.4641 -0.1266 0.0562 -0.1266 0.225 -0.225 0.3797 -0.225 0.1547 0 0.2813 -0.0562 0.2813 -0.1406 0 -0.0703 0.0844 -0.1406 0.1828 -0.1406 0.2953 0 1.0828 -0.4219 1.0828 -0.5766 0 -0.0703 0.1266 -0.1266 0.2672 -0.1266 0.1547 0 0.3234 -0.0562 0.3656 -0.1406 0.0422 -0.0844 0.2391 -0.1406 0.4359 -0.1406 0.1969 0 0.45 -0.0984 0.5625 -0.2109 0.1406 -0.1406 0.3516 -0.1687 0.6469 -0.1125 0.3094 0.0562 0.4641 0.0281 0.5625 -0.1406 0.0844 -0.1547 0.3094 -0.2391 0.675 -0.2391 0.2953 0 0.5906 -0.0562 0.6328 -0.1406 0.0422 -0.0844 0.3375 -0.1406 0.6469 -0.1406 0.2953 0 0.5484 -0.0562 0.5484 -0.1406 0 -0.0703 0.2813 -0.1406 0.6328 -0.1406 0.3516 0 0.6328 -0.0562 0.6328 -0.1406 0 -0.0703 0.2813 -0.1406 0.6328 -0.1406 0.4219 0 0.675 -0.0703 0.7172 -0.1969 0.0562 -0.1547 0.9281 -0.2109 4.4156 -0.2953 2.3906 -0.0562 4.4156 -0.0422 4.5281 0.0141 0.0984 0.0703 0.6047 0.0984 1.1109 0.0703 0.7453 -0.0281 0.9422 0 1.0125 0.1828 0.0703 0.1687 0.2953 0.225 0.9281 0.225 0.4641 0 0.8859 0.0703 0.9281 0.1406 0.0422 0.0844 0.4922 0.1406 0.9984 0.1406 0.5062 0 0.9 0.0562 0.9 0.1406 0 0.0844 0.1828 0.1406 0.4078 0.1406 0.2391 0 0.4641 0.0562 0.5062 0.1406 0.0422 0.0844 0.3656 0.1406 0.7172 0.1406 0.45 0 0.6187 0.0562 0.6187 0.2109 0 0.1406 0.1547 0.2109 0.4922 0.2109 0.2672 0 0.4922 0.0703 0.4922 0.1406 0 0.0844 0.1828 0.1406 0.4078 0.1406 0.2391 0 0.4641 0.0703 0.5062 0.1406 0.0422 0.0844 0.2672 0.1406 0.4922 0.1406 0.225 0 0.4219 0.0984 0.4781 0.225 0.0562 0.1547 0.1969 0.2109 0.45 0.1547 0.225 -0.0422 0.3937 0.0141 0.4359 0.1266 0.0422 0.1125 0.1828 0.1969 0.3234 0.1969 0.1547 0 0.3094 0.0562 0.3516 0.1406 0.0422 0.0844 0.2109 0.1406 0.3656 0.1406 0.1406 0 0.2672 0.0703 0.2672 0.1406 0 0.0844 0.1266 0.1406 0.2813 0.1406 0.1547 0 0.2813 0.0562 0.2813 0.1125 0 0.1266 0.9844 0.5906 1.2375 0.5906 0.0984 0 0.1687 0.0703 0.1687 0.1406 0 0.0844 0.1266 0.1406 0.2813 0.1406 0.1547 0 0.2813 0.0562 0.2813 0.1406 0 0.0703 0.1547 0.1687 0.3516 0.225 0.1969 0.0422 0.3516 0.1406 0.3516 0.2109 0 0.0703 0.1266 0.1266 0.2672 0.1266 0.1547 0 0.3234 0.0703 0.3656 0.1406 0.0422 0.0844 0.2109 0.1406 0.3656 0.1406 0.1406 0 0.2672 0.0703 0.2672 0.1406 0 0.0844 0.0984 0.1406 0.2109 0.1406 0.1125 0 0.3516 0.1547 0.5203 0.3516 0.1687 0.1969 0.4078 0.3516 0.5344 0.3516 0.1266 0 0.3516 0.1266 0.4922 0.2813 0.1406 0.1547 0.3234 0.2813 0.4219 0.2813 0.0844 0 0.3656 0.225 0.6328 0.4922 0.2672 0.2672 0.5766 0.4922 0.7031 0.4922 0.1125 0 0.2953 0.1266 0.3937 0.2813 0.0984 0.1547 0.2672 0.2813 0.3937 0.2813 0.1125 0 0.3516 0.1547 0.5344 0.3516 0.1828 0.1969 0.4078 0.3516 0.4922 0.3516 0.0984 0 0.675 0.5062 1.2937 1.125 0.6047 0.6187 1.1812 1.125 1.2797 1.125 0.225 0 4.4719 4.2328 4.4719 4.4578 0 0.0844 0.4078 0.5766 0.9141 1.0688 0.5062 0.5062 0.9141 0.9984 0.9141 1.0969 0 0.1125 0.2813 0.4641 0.6328 0.8016 0.3516 0.3375 0.6328 0.6891 0.6328 0.7875 0 0.0984 0.1547 0.3234 0.3516 0.5062 0.1969 0.1828 0.3516 0.4078 0.3516 0.4922 0 0.0844 0.1969 0.3375 0.4219 0.5625 0.225 0.225 0.4219 0.4641 0.4219 0.5344 0 0.0562 0.1547 0.3234 0.3516 0.5766 0.1969 0.2531 0.3516 0.5344 0.3516 0.6187 0 0.0984 0.0562 0.1687 0.1266 0.1687 0.0703 0 0.225 0.2109 0.3516 0.4781 0.1125 0.2531 0.3234 0.5484 0.4359 0.6469 0.1125 0.0984 0.3094 0.3797 0.4078 0.6187 0.5062 1.1672 0.9281 1.9266 1.2375 2.2922 0.1125 0.1406 0.3094 0.4922 0.45 0.7734 0.1266 0.2813 0.2953 0.5625 0.3656 0.6047 0.0844 0.0422 0.1406 0.2109 0.1406 0.3656 0 0.1406 0.0703 0.2672 0.1406 0.2672 0.0844 0 0.1406 0.1125 0.1547 0.2531 0 0.1266 0.1266 0.4359 0.2672 0.6609 0.3234 0.4922 0.7031 1.3219 0.7031 1.4906 0 0.0703 0.0703 0.1266 0.1406 0.1266 0.0844 0 0.1406 0.1547 0.1406 0.3375 0 0.1828 0.1547 0.6047 0.3375 0.9422 0.1969 0.3375 0.3234 0.6469 0.2813 0.7172 -0.0422 0.0562 0.0984 0.3937 0.2953 0.7453 0.1969 0.3516 0.3516 0.7312 0.3516 0.8438 0 0.1125 0.0703 0.2109 0.1406 0.2109 0.0844 0 0.1406 0.1125 0.1406 0.2672 0 0.3375 0.3797 1.2375 0.5625 1.35 0.0703 0.0422 0.1406 0.2672 0.1406 0.4922 0 0.225 0.0703 0.45 0.1406 0.4922 0.0844 0.0422 0.1406 0.2391 0.1406 0.4219 0 0.1828 0.0703 0.3797 0.1406 0.4219 0.0844 0.0422 0.1406 0.2672 0.1406 0.4922 0 0.225 0.0703 0.45 0.1406 0.4922 0.0844 0.0422 0.1406 0.2953 0.1406 0.5625 0 0.2672 0.0703 0.5203 0.1406 0.5625 0.0844 0.0422 0.1406 0.2672 0.1406 0.4781 0 0.225 0.0984 0.4781 0.2109 0.5766 0.1125 0.0984 0.2109 0.3516 0.2109 0.5766 0 0.225 0.0703 0.4078 0.1406 0.4078 0.0844 0 0.1406 0.1828 0.1406 0.4078 0 0.2391 0.0703 0.4641 0.1406 0.5062 0.0844 0.0422 0.1406 0.2813 0.1406 0.5062 0 0.2391 0.0844 0.45 0.2109 0.4922 0.1406 0.0562 0.2109 0.2813 0.2109 0.6187 0 0.3094 0.0703 0.5906 0.1406 0.6328 0.0844 0.0422 0.1406 0.3375 0.1406 0.6328 0 0.2953 0.0703 0.5906 0.1406 0.6328 0.0844 0.0422 0.1406 0.3234 0.1406 0.6187 0 0.3094 0.0844 0.6187 0.2109 0.7172 0.1266 0.0984 0.2109 0.4078 0.2109 0.7172 0 0.3094 0.0703 0.5484 0.1406 0.5484 0.0844 0 0.1406 0.1828 0.1406 0.4078 0 0.2391 0.0703 0.4641 0.1406 0.5062 0.0844 0.0422 0.1406 0.3375 0.1406 0.6328 0 0.2953 0.0703 0.5906 0.1406 0.6328 0.0703 0.0422 0.1406 0.3937 0.1406 0.7594 0 0.4359 0.0703 0.7453 0.2109 0.8578 0.1406 0.1125 0.2109 0.4219 0.2109 0.8578 0 0.3797 0.0703 0.6891 0.1406 0.6891 0.0844 0 0.1406 0.3375 0.1406 0.7594 0 0.4219 0.0703 0.8156 0.1406 0.8578 0.0703 0.0422 0.1406 0.3937 0.1406 0.7734 0 0.3797 0.0703 0.7312 0.1406 0.7734 0.0703 0.0422 0.1406 0.2953 0.1406 0.5625 0 0.2531 0.0984 0.5625 0.2109 0.6891 0.1266 0.1266 0.2109 0.4641 0.2109 0.9141 0 0.3797 0.0703 0.7453 0.1406 0.7875 0.0844 0.0422 0.1406 0.5203 0.1406 1.0406 0 0.5203 0.0562 0.9984 0.1266 1.0688 0.1266 0.1406 0.225 0.8438 0.3797 2.7844 0.0562 0.6469 0.1406 0.9844 0.2813 1.0406 0.1406 0.0562 0.1969 0.3375 0.1969 1.0969 0 0.5766 0.0703 1.0828 0.1406 1.125 0.0844 0.0422 0.1406 0.5625 0.1406 1.1391 0 0.6047 0.0562 1.0406 0.1406 1.0406 0.0844 0 0.1406 0.5625 0.1406 1.3922 0 0.7875 0.0562 1.4484 0.1406 1.4906 0.0844 0.0422 0.1406 0.4922 0.1406 0.9984 0 0.7312 0.0703 1.0125 0.3516 1.4484 0.1969 0.2813 0.4219 0.7312 0.4781 0.9703 0.2531 0.8719 0.3656 12.6563 0.3516 36.5625 -0.0281 21.2906 -0.0562 24.2578 -0.2391 24.3984 -0.1125 0.0984 -0.2391 0.3375 -0.2953 0.5625 l-0.0844 0.3797 -52.2422 0 -52.2422 0 0 -0.3375z m40.7109 -47.6859 c2.8687 -0.4922 5.8922 -1.1672 12.375 -2.7562 6.4125 -1.5609 9.9703 -2.3062 11.7 -2.4609 1.0688 -0.0844 1.2234 -0.0703 1.9266 0.2813 0.9 0.4359 1.8844 1.3781 3.0234 2.8828 1.0688 1.3922 1.5891 1.8422 2.1656 1.8422 0.2531 0 1.1812 -0.3094 2.0812 -0.6891 0.9 -0.3797 4.5141 -1.6453 8.0156 -2.7984 9.9422 -3.2766 14.2172 -4.8656 14.9063 -5.5547 0.8719 -0.8578 1.3359 -3.5719 1.1953 -6.9891 -0.4359 -11.2078 -4.9922 -25.3828 -11.8266 -36.8156 -8.775 -14.6812 -17.0859 -22.3875 -26.7188 -24.7781 -1.8703 -0.4641 -4.8656 -0.8438 -6.6234 -0.8438 -1.8844 0 -7.5797 0.5344 -9.7594 0.9141 -5.0062 0.8859 -9.2391 2.2922 -13.0219 4.3594 -1.9969 1.0828 -4.7672 3.0234 -6.7359 4.6969 -5.1047 4.3594 -5.625 4.725 -7.3125 5.2594 -0.7875 0.2391 -1.3219 0.2953 -2.6719 0.2953 -2.25 0.0141 -2.6016 -0.0984 -6.9609 -2.025 -0.8297 -0.3656 -1.6312 -0.6187 -2.1094 -0.6609 -0.7031 -0.0703 -0.8438 -0.0281 -1.4766 0.3937 -2.1937 1.4906 -6.0187 8.4234 -9.2391 16.7906 -1.1672 3.0234 -1.2797 3.6422 -0.7875 4.3875 0.8438 1.2516 2.5875 2.7 6.4406 5.3156 4.275 2.9109 6.2016 4.5844 6.4828 5.6109 0.3234 1.1812 0.0281 4.7531 -0.9422 11.2641 -1.2516 8.4375 -1.5328 11.2219 -1.4203 13.9078 0.1125 2.7141 0.4781 3.6141 1.6453 4.0078 0.9703 0.3234 6.6375 0.2672 10.9688 -0.0984 1.8984 -0.1687 4.9641 -0.4359 6.8203 -0.5906 2.1797 -0.1969 4.1484 -0.2813 5.5547 -0.2531 1.9969 0.0422 2.2359 0.0703 2.8687 0.3937 1.1109 0.5625 1.8562 1.3219 2.475 2.5172 0.6609 1.2656 0.9141 1.5328 1.9688 2.1094 0.675 0.3797 0.9141 0.4359 1.8984 0.4359 0.6187 0 2.0109 -0.1547 3.0938 -0.3516z m-60.7922 -66.4031 c0.3375 -0.1266 0.8156 -0.3797 1.0828 -0.5766 0.4219 -0.3234 0.4641 -0.3937 0.4078 -0.9281 -0.1266 -1.0688 -1.3922 -3.5719 -2.3344 -4.6125 -0.45 -0.4922 -0.5625 -0.5484 -0.9703 -0.4922 -0.7594 0.1266 -1.3078 0.6047 -1.3078 1.1391 0 0.7875 1.3078 4.4719 1.9125 5.4 0.2391 0.3656 0.4219 0.3797 1.2094 0.0703z m5.5687 -0.6609 c0.3656 -0.1828 0.8438 -0.5344 1.0688 -0.7734 0.3797 -0.4078 0.4078 -0.4641 0.2531 -0.9562 -0.4078 -1.35 -2.5594 -4.4719 -3.1922 -4.6266 -0.7875 -0.1969 -1.7578 0.3937 -1.7578 1.0688 0 0.6891 1.6031 4.4297 2.25 5.2453 0.3656 0.4641 0.5344 0.4641 1.3781 0.0422z"/>
    <path
      d="M80.4375 69.3281 c-0.3516 -0.0703 -1.4484 -0.3797 -2.4609 -0.7031 -0.9984 -0.3234 -2.1797 -0.6187 -2.6016 -0.6609 -0.4359 -0.0422 -1.8422 0.0703 -3.2203 0.2391 -3.4312 0.4359 -4.5141 0.2672 -4.5141 -0.7453 0 -1.2516 1.4766 -1.9125 4.9359 -2.2219 5.0062 -0.4359 10.6734 1.5469 9.9563 3.4875 -0.1969 0.5484 -1.0406 0.7875 -2.0953 0.6047z"/>
  </g>

</svg>
