<!DOCTYPE svg PUBLIC "-//W3C//DTD SVG 20010904//EN"
  "http://www.w3.org/TR/2001/REC-SVG-20010904/DTD/svg10.dtd">
<svg xmlns="http://www.w3.org/2000/svg" width="135px" height="169px" id="warrior"
     viewBox="0 0 135 169" preserveAspectRatio="xMidYMid meet">
  <g id="layer101" fill="#000000" stroke="none">
  </g>
  <g id="layer102" fill="#282828" stroke="none">
    <path
      d="M15.8344 168.3703 c-0.4359 -1.9828 -0.6047 -7.7906 -0.3797 -13.3312 0.5062 -12.6422 2.3625 -26.9156 5.1469 -39.7969 0.6187 -2.8266 0.7312 -3.3469 0.9703 -4.2609 0.1266 -0.4922 0.1969 -0.9984 0.1547 -1.1391 -0.1687 -0.5625 -1.4625 -1.575 -5.3297 -4.1344 -5.9203 -3.9375 -7.7344 -5.3719 -10.7156 -8.4094 -2.5031 -2.5594 -4.6406 -5.2312 -5.4 -6.7219 l-0.3094 -0.6047 0.3094 -0.8156 c0.9844 -2.6437 5.3156 -7.5516 9.5062 -10.7859 2.9391 -2.2781 7.3406 -5.1609 12.0797 -7.9031 2.2359 -1.2937 2.7281 -1.6594 2.925 -2.1656 0.1125 -0.2531 0.3656 -1.4344 0.5766 -2.6297 1.4484 -8.0719 2.1656 -11.1375 3.5156 -15.0187 2.4328 -7.0453 6.8203 -15.1453 9.9281 -18.3094 1.3781 -1.4063 1.7719 -1.5469 2.9531 -1.0828 3.3328 1.35 10.35 7.3687 15.2578 13.1062 0.9281 1.0828 2.9672 3.5578 4.5281 5.4844 4.1625 5.1891 5.5125 6.5391 6.5109 6.5391 0.8859 0 2.1656 -1.3359 5.8641 -6.075 3.2344 -4.1484 4.6547 -5.8641 6.8203 -8.2266 4.2891 -4.6969 10.9266 -10.1812 13.2047 -10.9406 0.8297 -0.2813 1.125 -0.1547 2.2219 0.9422 3.3891 3.3609 7.9875 11.3344 10.6594 18.4641 1.3359 3.5437 3.0516 9.7312 4.4578 16.0313 0.2109 0.9281 0.5062 2.0672 0.6469 2.5313 0.3375 0.9984 0.4922 1.125 3.7969 2.925 2.8969 1.575 2.9812 1.6312 4.5141 2.5734 1.9266 1.1812 2.9812 1.9266 4.7672 3.3469 3.0938 2.475 7.5234 6.8062 9.1125 8.9156 l0.8719 1.1672 0 1.5187 c0 0.8297 -0.0562 1.5609 -0.1266 1.6312 -0.0844 0.0844 -0.45 0.6469 -0.8156 1.2656 -0.3797 0.6187 -1.1531 1.7578 -1.7297 2.5313 -1.0688 1.4203 -4.1203 4.6125 -5.4141 5.6391 -2.2641 1.8141 -5.5969 4.0359 -9.1406 6.1031 -0.6891 0.4078 -1.6594 1.0266 -2.1375 1.3641 -0.8297 0.5766 -0.8859 0.6609 -0.8859 1.1672 0 0.6187 0.2109 2.2359 0.4922 3.8672 0.1125 0.6187 0.3234 1.8844 0.4781 2.8125 0.1547 0.9281 0.4078 2.4469 0.5625 3.375 0.2672 1.6312 0.5625 3.4453 1.1391 7.0313 1.8422 11.4891 3.1922 24.2016 3.8672 36.0703 0.1125 2.1234 0.2391 4.3031 0.2813 4.8375 0.0281 0.5344 0 1.0828 -0.0844 1.2375 -0.1266 0.2391 -1.7156 0.2531 -52.8609 0.2531 l-52.7062 0 -0.0844 -0.3797z"/>
  </g>
  <g id="layer103" fill="#ffffff" stroke="none">
    <path
      d="M26.0859 110.1094 c-0.1547 -0.2953 -0.2531 -0.9141 -0.2953 -1.7016 -0.0281 -0.675 -0.1125 -1.3922 -0.1828 -1.575 -0.2109 -0.5484 -1.2516 -1.2937 -2.7562 -1.9969 -1.4344 -0.675 -2.4609 -1.1672 -2.9531 -1.4344 -0.6187 -0.3516 -1.4906 -0.7453 -1.6031 -0.7453 -0.1406 0 -1.7719 -0.7312 -3.3891 -1.5187 -2.3906 -1.1672 -2.8687 -2.5031 -1.8844 -5.3719 0.7312 -2.1234 2.7703 -5.9063 3.9094 -7.2422 0.1969 -0.225 0.8438 -1.0266 1.4344 -1.7578 0.9 -1.1109 2.4891 -2.8266 4.5563 -4.9078 1.9969 -2.0109 4.4578 -4.275 5.8359 -5.3719 3.7547 -2.9672 4.9641 -3.7125 10.2656 -6.3562 0.7875 -0.3937 2.1656 -0.9 3.6563 -1.3641 1.0547 -0.3234 1.6172 -0.3937 3.4453 -0.4641 1.1953 -0.0422 2.8547 -0.0281 3.6703 0.0281 1.4344 0.1125 1.5469 0.1547 3.2344 0.9703 2.3062 1.125 3.5437 2.1656 5.3719 4.5281 0.6328 0.8156 2.0672 3.375 2.0672 3.6844 0 0.0844 0.0844 0.2672 0.1828 0.3797 0.3516 0.4219 1.3078 3.2766 1.8 5.3578 0.2672 1.1109 0.3234 1.7578 0.3234 3.8672 0.0141 2.4047 0 2.5875 -0.3656 3.5859 -0.2109 0.5766 -0.5344 1.3359 -0.7312 1.6875 -0.1969 0.3516 -0.4641 0.8297 -0.5906 1.0547 -0.6047 1.0969 -1.4063 1.8562 -3.1922 3.0797 -1.0266 0.6891 -1.8844 1.2937 -1.9266 1.35 -0.1406 0.1687 -1.9125 1.2234 -2.6719 1.5891 -1.7297 0.8156 -3.2625 1.4203 -4.5 1.7719 -0.5766 0.1687 -1.4625 0.4219 -1.9688 0.5766 -1.2656 0.3797 -2.6859 0.7594 -3.9375 1.0547 -1.2094 0.2813 -4.5422 1.3641 -5.4844 1.7859 -2.0672 0.9281 -5.5406 2.8266 -7.0031 3.825 -0.5766 0.3937 -1.1531 0.7875 -1.2656 0.8578 -0.1266 0.0844 -0.5344 0.3516 -0.9281 0.6187 -0.4219 0.2813 -0.9422 0.5062 -1.2937 0.5484 -0.5484 0.0562 -0.6047 0.0281 -0.8297 -0.3937z m26.6203 -14.5406 c1.7719 -0.4359 2.4469 -0.7734 3.375 -1.7156 1.0547 -1.0828 1.7297 -2.7984 1.9547 -4.8656 0.0844 -0.8859 -0.2391 -3.0094 -0.675 -4.3875 -0.1406 -0.4641 -0.2672 -0.9422 -0.2672 -1.0828 0 -0.6187 -1.5187 -3.825 -2.3344 -4.9078 -0.9281 -1.2234 -2.9391 -3.3047 -3.7547 -3.8531 -2.7141 -1.8703 -2.6437 -1.8281 -4.95 -2.5734 -1.0125 -0.3234 -1.2797 -0.3516 -2.6016 -0.2813 -1.3359 0.0703 -2.3766 0.2813 -3.1641 0.6469 -0.1547 0.0703 -0.4922 0.1969 -0.7594 0.2813 -0.5766 0.1828 -1.8422 0.9703 -1.8422 1.1531 0 0.0703 0.1828 0.1266 0.4078 0.1266 0.225 0 0.9984 0.1547 1.7297 0.3375 4.9922 1.2656 8.4094 5.2875 8.4094 9.9281 0 4.0078 -2.6437 7.7203 -6.6375 9.3656 -0.3797 0.1406 -0.675 0.3094 -0.675 0.3516 0 0.1125 0.9984 0.5766 1.5469 0.7031 0.2672 0.0562 0.9 0.2109 1.4063 0.3234 3.7406 0.8859 6.4688 1.0266 8.8313 0.45z"/>
    <path
      d="M107.4375 110.025 c-0.3516 -0.1828 -0.8016 -0.45 -0.9984 -0.5906 -0.1969 -0.1266 -0.9 -0.5906 -1.5469 -1.0266 -4.2188 -2.8266 -8.4656 -4.6406 -14.2594 -6.0891 -0.7734 -0.1969 -2.0953 -0.5484 -2.9531 -0.7875 -0.8438 -0.2391 -1.7297 -0.4922 -1.9688 -0.5625 -1.2234 -0.3375 -5.0484 -2.25 -6.2156 -3.1078 -1.0828 -0.8016 -2.1234 -1.5609 -2.9531 -2.1516 -1.4344 -1.0125 -2.6578 -2.7703 -3.4453 -4.9359 -0.2813 -0.7734 -0.3094 -1.0969 -0.3094 -3.7969 0 -3.0656 0.0703 -3.5578 0.9141 -6.2578 0.6047 -1.9266 2.5313 -5.7234 3.7406 -7.3406 1.6172 -2.1937 3.7687 -3.7969 6.3 -4.7109 0.9562 -0.3375 1.0969 -0.3516 4.4297 -0.3656 l3.4453 0 1.1953 0.4219 c1.9828 0.7172 2.1516 0.7875 2.7703 1.0547 0.3375 0.1406 0.6469 0.2531 0.6891 0.2531 0.0844 0 2.7844 1.3219 3.15 1.5469 0.1125 0.0703 0.6891 0.3937 1.2656 0.7172 1.0969 0.6187 2.9672 1.8141 3.0938 1.9828 0.0422 0.0422 0.5203 0.3797 1.0547 0.7453 0.5484 0.3656 1.0547 0.7453 1.125 0.8438 0.0844 0.0844 0.8297 0.7172 1.6594 1.3922 1.7578 1.4063 8.2406 7.8469 9.1125 9.0422 0.3234 0.45 0.8578 1.1391 1.1812 1.5187 0.6047 0.7172 2.1797 2.9391 2.1797 3.0797 0 0.0422 0.1828 0.3516 0.4078 0.675 0.225 0.3375 0.6469 1.1531 0.9281 1.8 0.2813 0.6609 0.5906 1.3922 0.7031 1.6172 1.1391 2.6437 0.9984 4.1625 -0.5062 5.4281 -0.3656 0.2953 -0.6891 0.5484 -0.7453 0.5484 -0.0422 0 -0.8719 0.3797 -1.8422 0.8438 -0.9703 0.4641 -1.8422 0.8438 -1.9406 0.8438 -0.0984 0.0141 -1.6875 0.7875 -3.5437 1.7297 -3.3047 1.6734 -3.375 1.7297 -3.6703 2.3344 -0.1969 0.4219 -0.3234 1.0125 -0.3797 1.8 -0.0562 0.9844 -0.1266 1.2516 -0.3937 1.5328 -0.4078 0.4219 -0.8578 0.4219 -1.6734 -0.0281z m-9.8719 -14.4703 c1.9125 -0.4359 2.5734 -0.7594 3.5437 -1.7437 1.5187 -1.5328 2.025 -2.6719 2.2641 -5.0906 0.2109 -2.1094 0.0141 -3.9656 -0.6047 -5.6672 -0.225 -0.6187 -0.4922 -1.3641 -0.5766 -1.6312 -0.1969 -0.6187 -1.1672 -2.5031 -1.4906 -2.8828 -0.1406 -0.1547 -0.3516 -0.45 -0.4781 -0.6609 -0.3937 -0.6187 -1.9266 -2.1937 -2.9953 -3.0797 -1.7578 -1.4344 -3.7266 -2.25 -6.3 -2.6156 -2.7984 -0.3937 -4.7672 -0.0422 -6.0187 1.0688 l-0.6047 0.5484 0.7031 0.0844 c2.9109 0.3656 5.1891 1.4063 6.9891 3.1922 4.4719 4.4156 3.2344 11.3203 -2.5594 14.3156 -1.3219 0.6891 -2.6297 1.0969 -4.2188 1.3078 l-1.2375 0.1547 0.5906 0.4922 c0.3094 0.2672 0.9281 0.6469 1.35 0.8297 0.4219 0.1828 0.9 0.3937 1.0547 0.45 0.5484 0.2391 1.8422 0.5766 3.0234 0.7875 0.6609 0.1266 1.4203 0.2672 1.6875 0.3375 0.2672 0.0703 1.3641 0.1266 2.4328 0.1406 1.6031 0.0141 2.2078 -0.0422 3.4453 -0.3375z"/>
    <path
      d="M68.8219 107.5219 c-2.7141 -0.8578 -6.0609 -3.4734 -7.6078 -5.9625 -0.6047 -0.9703 -0.675 -1.1672 -0.7172 -2.0672 -0.0422 -0.8578 0 -1.0688 0.3094 -1.6312 0.45 -0.7875 1.3781 -1.6875 2.2078 -2.1094 0.4781 -0.2391 0.8578 -0.3094 1.8141 -0.3094 1.4203 0 4.5984 0.4078 5.4562 0.7031 1.0266 0.3656 2.2219 1.3641 2.9531 2.475 l0.6609 1.0125 0.0422 1.4906 c0.0562 1.5469 -0.1406 2.7281 -0.6328 3.7406 -0.4078 0.8578 -1.5187 1.9406 -2.475 2.4047 -0.9984 0.4922 -1.1672 0.5203 -2.0109 0.2531z"/>
  </g>

</svg>
