<!DOCTYPE svg PUBLIC "-//W3C//DTD SVG 20010904//EN"
  "http://www.w3.org/TR/2001/REC-SVG-20010904/DTD/svg10.dtd">
<svg xmlns="http://www.w3.org/2000/svg" width="135px" height="169px" id="warrior"
     viewBox="0 0 135 169" preserveAspectRatio="xMidYMid meet">
  <g id="layer101" fill="#000000" stroke="none">
    <path
      d="M17.6625 168.5391 c-0.1547 -0.1125 -0.5484 -0.2109 -0.8859 -0.2109 -0.6328 0 -0.7453 -0.1266 -0.3797 -0.4359 0.1969 -0.1547 0.2109 -0.3937 0.1266 -1.6031 -0.0703 -1.1531 -0.0562 -1.4625 0.1266 -1.6875 0.1547 -0.2109 0.2109 -0.6328 0.225 -1.575 0 -0.7734 0.0562 -1.3078 0.1406 -1.3078 0.0844 0 0.1406 -0.5344 0.1406 -1.3219 0 -0.7453 0.0562 -1.3781 0.1406 -1.4203 0.0844 -0.0422 0.1406 -0.5203 0.1406 -1.0406 0 -0.7031 0.0562 -1.0125 0.225 -1.1531 0.1687 -0.1406 0.2109 -0.3937 0.1687 -1.0547 -0.0281 -0.5766 0.0281 -0.9562 0.1406 -1.0688 0.0984 -0.0984 0.1687 -0.5203 0.1687 -0.9703 0 -0.45 0.0703 -0.8578 0.1547 -0.9141 0.0984 -0.0562 0.1266 -0.3094 0.0844 -0.675 -0.0562 -0.3937 -0.0141 -0.7312 0.1125 -0.9844 0.1125 -0.225 0.2109 -0.7312 0.2109 -1.1531 0 -0.4078 0.0703 -0.7875 0.1406 -0.8297 0.0844 -0.0422 0.1406 -0.4641 0.1406 -0.9141 0 -0.45 0.0703 -0.8719 0.1406 -0.9141 0.0844 -0.0422 0.1406 -0.3937 0.1406 -0.7594 0 -0.4359 0.0703 -0.7453 0.2109 -0.8578 0.1266 -0.1125 0.2109 -0.4078 0.2109 -0.7875 0 -0.3234 0.0703 -0.6469 0.1406 -0.6891 0.0844 -0.0422 0.1406 -0.3937 0.1406 -0.7734 0 -0.3797 0.0703 -0.7312 0.1406 -0.7734 0.0844 -0.0422 0.1406 -0.3937 0.1406 -0.7734 0 -0.3797 0.0703 -0.7312 0.1406 -0.7734 0.0844 -0.0422 0.1406 -0.3937 0.1406 -0.7734 0 -0.3797 0.0703 -0.7312 0.1406 -0.7734 0.0844 -0.0422 0.1406 -0.3656 0.1406 -0.7031 0 -0.3375 0.0703 -0.6609 0.1406 -0.7031 0.0844 -0.0422 0.1406 -0.3234 0.1406 -0.6047 0 -0.2813 0.0984 -0.6328 0.1969 -0.7734 0.1266 -0.1687 0.1687 -0.45 0.1266 -0.8016 -0.0562 -0.4359 -0.0281 -0.5766 0.1547 -0.6469 0.1687 -0.0703 0.225 -0.2672 0.225 -0.8438 0 -0.4219 0.0703 -0.7594 0.1406 -0.7594 0.0844 0 0.1406 -0.2531 0.1406 -0.5484 0 -0.3094 0.0703 -0.6047 0.1406 -0.6469 0.0844 -0.0422 0.1406 -0.3797 0.1406 -0.7312 0 -0.3656 0.0844 -0.7453 0.1969 -0.8719 0.1266 -0.1406 0.2531 -0.7031 0.3094 -1.35 0.0422 -0.6187 0.1687 -1.2234 0.2672 -1.3359 0.0984 -0.1125 0.2109 -0.4359 0.2672 -0.7031 0.0422 -0.2672 0.1125 -0.7453 0.1687 -1.0547 0.0422 -0.3094 0.1547 -0.6469 0.2391 -0.7453 0.0844 -0.1125 0.1406 -0.4641 0.1125 -0.8016 -0.0141 -0.3375 0.0422 -0.6469 0.1266 -0.7031 0.0703 -0.0422 0.1406 -0.3094 0.1406 -0.5766 0 -0.2813 0.0984 -0.6047 0.225 -0.7172 0.1406 -0.1547 0.1969 -0.3656 0.1406 -0.6187 -0.0422 -0.2391 0 -0.45 0.1125 -0.5484 0.1828 -0.1406 0.2813 -0.5906 0.4219 -1.8 0.0281 -0.2531 0.1266 -0.5484 0.225 -0.6609 0.0984 -0.1125 0.1969 -0.4078 0.225 -0.6609 0.1266 -1.1391 0.2391 -1.6734 0.3516 -1.7437 0.0703 -0.0422 0.1266 -0.3094 0.1266 -0.6047 0 -0.3094 0.0844 -0.6187 0.2109 -0.7172 0.1266 -0.0984 0.2109 -0.4078 0.2109 -0.7172 0 -0.2953 0.0703 -0.5766 0.1406 -0.6187 0.0844 -0.0422 0.1406 -0.2391 0.1406 -0.4219 0 -0.1828 0.0703 -0.3797 0.1406 -0.4219 0.0844 -0.0422 0.1406 -0.2953 0.1406 -0.5625 0 -0.2672 0.0703 -0.5203 0.1406 -0.5625 0.0844 -0.0422 0.1406 -0.3375 0.1406 -0.6328 0 -0.2953 0.0703 -0.5906 0.1406 -0.6328 0.0844 -0.0422 0.1406 -0.2391 0.1406 -0.4219 0 -0.1828 0.0703 -0.3797 0.1406 -0.4219 0.0844 -0.0422 0.1406 -0.3234 0.1406 -0.6047 0 -0.2813 0.0984 -0.6328 0.2109 -0.7734 0.0984 -0.1547 0.1547 -0.3516 0.1266 -0.4359 -0.0422 -0.0984 0.0281 -0.2672 0.1547 -0.3656 0.1125 -0.0984 0.2109 -0.3516 0.2109 -0.5766 0 -0.2109 0.0703 -0.4359 0.1406 -0.4781 0.0844 -0.0422 0.1406 -0.2953 0.1406 -0.5344 0 -0.2531 0.0984 -0.5766 0.2109 -0.7172 0.1125 -0.1406 0.1687 -0.3234 0.1266 -0.3797 -0.0422 -0.0703 0.0281 -0.2672 0.1406 -0.4359 0.1125 -0.1828 0.2531 -0.6328 0.2953 -0.9984 0.0562 -0.3656 0.1969 -0.7594 0.2953 -0.8719 0.1125 -0.0984 0.1969 -0.2672 0.1969 -0.3656 0 -0.2109 0.2672 -1.0969 0.4359 -1.4203 0.0703 -0.1406 0.1266 -0.3797 0.1266 -0.5203 0 -0.1547 0.0703 -0.3234 0.1406 -0.3656 0.0844 -0.0422 0.1406 -0.2672 0.1406 -0.4781 0 -0.225 0.0984 -0.4781 0.2109 -0.5766 0.1125 -0.0984 0.2109 -0.3234 0.2109 -0.5062 0 -0.1687 0.0703 -0.3656 0.1406 -0.4078 0.0844 -0.0422 0.1406 -0.2391 0.1406 -0.4219 0 -0.1828 0.0703 -0.3797 0.1406 -0.4219 0.0844 -0.0422 0.1406 -0.3516 0.1406 -0.6891 0 -0.4922 -0.0844 -0.675 -0.4922 -1.0688 -0.2672 -0.2672 -0.4922 -0.5484 -0.4922 -0.6328 0 -0.0844 -0.3094 -0.4641 -0.7031 -0.8438 -0.3797 -0.3797 -0.7031 -0.7734 -0.7031 -0.8578 0 -0.0984 -0.4078 -0.5625 -0.9141 -1.0547 -0.4922 -0.4781 -0.9562 -1.0125 -0.9984 -1.1672 -0.0562 -0.1687 -0.3937 -0.6047 -0.7734 -0.9844 -0.3797 -0.3656 -0.6891 -0.7453 -0.6891 -0.8438 0 -0.0844 -0.2672 -0.3797 -0.6047 -0.6609 -0.3234 -0.2813 -0.6891 -0.7031 -0.8016 -0.9141 -0.1828 -0.3797 -0.675 -0.9562 -2.4891 -2.9812 -0.4078 -0.45 -0.7453 -0.9 -0.7453 -0.9844 0 -0.0844 -0.3516 -0.4781 -0.7734 -0.8859 -0.4219 -0.4078 -0.7734 -0.8156 -0.7734 -0.9141 0 -0.0984 -0.3234 -0.4781 -0.7031 -0.8438 -0.3937 -0.3656 -0.7453 -0.8016 -0.7875 -0.9703 -0.0422 -0.1687 -0.3516 -0.5766 -0.7031 -0.9141 -0.3375 -0.3234 -0.6187 -0.6609 -0.6187 -0.7453 0 -0.0844 -0.3375 -0.5062 -0.7312 -0.9562 -1.4625 -1.6312 -1.9406 -2.1937 -1.9406 -2.3203 0 -0.0844 -0.2813 -0.4219 -0.6328 -0.7594 -0.3516 -0.3375 -0.6328 -0.7031 -0.6328 -0.8016 0 -0.0984 -0.2531 -0.4078 -0.5625 -0.6891 -0.2953 -0.2672 -0.5906 -0.6328 -0.6469 -0.8016 -0.0562 -0.1687 -0.3656 -0.5906 -0.7031 -0.9141 -0.3375 -0.3375 -0.6187 -0.6891 -0.6187 -0.7875 0 -0.0984 -0.1969 -0.3516 -0.4219 -0.5766 -0.225 -0.225 -0.4219 -0.4781 -0.4219 -0.5625 0 -0.0844 -0.225 -0.3656 -0.4922 -0.6328 -0.2672 -0.2672 -0.4922 -0.5625 -0.4922 -0.6609 0 -0.0984 -0.2531 -0.4078 -0.5625 -0.6891 -0.3094 -0.2813 -0.5625 -0.5906 -0.5625 -0.675 0 -0.0984 -0.225 -0.3797 -0.4922 -0.6469 -0.2672 -0.2672 -0.4922 -0.5625 -0.4922 -0.6609 0 -0.0984 -0.225 -0.4219 -0.4922 -0.7312 -0.2672 -0.2953 -0.4922 -0.6047 -0.4922 -0.675 0 -0.0844 -0.1266 -0.2531 -0.2813 -0.3937 -0.1547 -0.1406 -0.2813 -0.3234 -0.2813 -0.4219 0 -0.0984 -0.1406 -0.2813 -0.2953 -0.4359 -0.2672 -0.2391 -0.7031 -0.8156 -1.1812 -1.5891 -0.1547 -0.2531 -0.9984 -1.5469 -1.4203 -2.1797 -0.7031 -1.0547 -1.4625 -2.5031 -1.4625 -2.7703 0 -0.0703 -0.0562 -0.1266 -0.1406 -0.1266 -0.0703 0 -0.1406 -0.1828 -0.1406 -0.4078 0 -0.2391 -0.0562 -0.4641 -0.1406 -0.5062 -0.0703 -0.0422 -0.1406 -0.6609 -0.1406 -1.3641 0 -1.0828 0.0562 -1.3781 0.3656 -1.9969 0.3516 -0.7031 2.6437 -3.1781 2.9391 -3.1781 0.0844 0 0.3656 -0.225 0.6328 -0.4922 0.2672 -0.2672 0.5906 -0.4922 0.7312 -0.4922 0.1266 0 0.3094 -0.1266 0.3937 -0.2813 0.0844 -0.1547 0.225 -0.2813 0.3094 -0.2813 0.2531 0 1.6594 -0.7172 1.6594 -0.8578 0 -0.0562 0.225 -0.1828 0.4922 -0.2813 0.2672 -0.0984 0.4922 -0.225 0.4922 -0.2672 0 -0.0562 0.2531 -0.1828 0.5625 -0.2813 0.3094 -0.0984 0.5625 -0.2391 0.5625 -0.2953 0 -0.0562 0.1406 -0.1547 0.3234 -0.2109 0.6609 -0.1969 1.4484 -0.6047 1.7016 -0.8859 0.1547 -0.1687 0.3797 -0.2953 0.5062 -0.2953 0.1406 0 0.2813 -0.0984 0.3375 -0.2109 0.0422 -0.1125 0.1687 -0.1687 0.2813 -0.1266 0.1125 0.0422 0.7594 -0.2109 1.4344 -0.5625 0.6891 -0.3516 1.3219 -0.6469 1.4203 -0.6469 0.0984 0 0.1828 -0.0562 0.1828 -0.1406 0 -0.0703 0.1687 -0.1406 0.3937 -0.1547 0.2109 0 0.5766 -0.1266 0.8016 -0.2672 0.8016 -0.5062 1.2375 -0.7031 1.5328 -0.7031 0.1687 0 0.5062 -0.1266 0.7594 -0.2813 0.2531 -0.1547 0.5484 -0.2813 0.6609 -0.2813 0.1125 0 0.4219 -0.1266 0.7031 -0.2813 0.2813 -0.1547 0.6469 -0.2813 0.8438 -0.2813 0.1828 0 0.3797 -0.0562 0.4219 -0.1406 0.0422 -0.0703 0.3234 -0.2391 0.6047 -0.3656 0.2813 -0.1266 0.6891 -0.3094 0.8859 -0.4219 0.1969 -0.0984 0.4078 -0.1547 0.45 -0.0984 0.0984 0.0984 1.0266 -0.3234 1.1531 -0.5203 0.0422 -0.0844 0.2672 -0.1406 0.4922 -0.1406 0.225 0 0.45 -0.0703 0.4922 -0.1406 0.0422 -0.0844 0.2391 -0.1406 0.4219 -0.1406 0.1828 0 0.3797 -0.0703 0.4219 -0.1406 0.0422 -0.0844 0.2391 -0.1406 0.4219 -0.1406 0.1828 0 0.3797 -0.0562 0.4219 -0.1406 0.0422 -0.0703 0.2672 -0.1406 0.4922 -0.1406 0.225 0 0.45 -0.0562 0.4922 -0.1406 0.0422 -0.0703 0.2391 -0.1406 0.4078 -0.1406 0.1828 0 0.4078 -0.0984 0.5062 -0.2109 0.0984 -0.1125 0.3234 -0.2109 0.5062 -0.2109 0.1687 0 0.3656 -0.0562 0.4078 -0.1406 0.0422 -0.0703 0.2672 -0.1406 0.4922 -0.1406 0.225 0 0.45 -0.0562 0.4922 -0.1406 0.0422 -0.0703 0.2391 -0.1406 0.4219 -0.1406 0.1828 0 0.3797 -0.0562 0.4219 -0.1406 0.0422 -0.0703 0.2672 -0.1406 0.5062 -0.1406 0.225 0 0.4078 -0.0562 0.4078 -0.1406 0 -0.0703 0.2391 -0.1406 0.5484 -0.1406 0.3234 0 0.6187 -0.0844 0.7312 -0.225 0.0984 -0.1125 0.2953 -0.1828 0.4219 -0.1547 0.1406 0.0422 0.3797 -0.0281 0.5344 -0.1406 0.1687 -0.1125 0.3516 -0.1687 0.4219 -0.1266 0.0562 0.0422 0.2391 -0.0141 0.3797 -0.1266 0.1406 -0.1125 0.4641 -0.2109 0.7172 -0.2109 0.2391 0 0.4922 -0.0562 0.5344 -0.1406 0.0422 -0.0703 0.2672 -0.1406 0.4781 -0.1406 0.225 0 0.4781 -0.0844 0.5625 -0.1969 0.0844 -0.0984 0.5625 -0.2391 1.0688 -0.2953 0.5062 -0.0562 0.9703 -0.1828 1.0688 -0.2953 0.1125 -0.1406 0.3094 -0.1828 0.5484 -0.1266 0.2531 0.0562 0.4359 0.0141 0.5625 -0.1406 0.0984 -0.1266 0.3937 -0.2109 0.7172 -0.2109 0.2953 0 0.5625 -0.0562 0.6047 -0.1266 0.0422 -0.0703 0.3234 -0.1547 0.6047 -0.2109 1.4063 -0.2109 1.6734 -0.2672 1.8984 -0.4641 0.1406 -0.1266 0.3516 -0.1828 0.4781 -0.1266 0.2109 0.0844 1.35 -0.2109 1.9125 -0.4922 0.1406 -0.0703 0.4641 -0.1266 0.7312 -0.1266 0.2531 0 0.5484 -0.0844 0.6328 -0.1828 0.0844 -0.1125 0.3234 -0.1687 0.5625 -0.1266 0.225 0.0281 0.45 -0.0141 0.4922 -0.0984 0.0562 -0.0844 0.4078 -0.1547 0.7875 -0.1547 0.3797 0 0.7312 -0.0562 0.7734 -0.1406 0.0422 -0.0844 0.2953 -0.1406 0.5484 -0.1406 0.2531 0 0.5766 -0.0844 0.7172 -0.1969 0.1687 -0.1125 0.4641 -0.1687 0.7734 -0.1266 0.3516 0.0562 0.5625 0 0.6891 -0.1547 0.1125 -0.1406 0.4078 -0.225 0.7312 -0.225 0.2953 0 0.5766 -0.0562 0.6187 -0.1406 0.0422 -0.0844 0.3656 -0.1406 0.7031 -0.1406 0.3375 0 0.6609 -0.0703 0.7031 -0.1406 0.0422 -0.0703 0.3937 -0.1406 0.7734 -0.1406 0.3797 0 0.7312 -0.0703 0.7734 -0.1406 0.0422 -0.0703 0.3937 -0.1406 0.7734 -0.1406 0.3797 0 0.7312 -0.0703 0.7734 -0.1406 0.0422 -0.0844 0.45 -0.1406 0.9 -0.1406 0.5906 0 0.8719 -0.0703 1.0125 -0.225 0.1266 -0.1687 0.3375 -0.2109 0.7172 -0.1547 0.3234 0.0422 0.6187 0 0.7734 -0.1266 0.1406 -0.0984 0.5484 -0.1969 0.9281 -0.1969 0.3656 0 0.6609 -0.0562 0.6609 -0.1266 0 -0.0703 0.4641 -0.1687 1.0266 -0.2109 2.2922 -0.1687 2.8406 -0.2531 2.9812 -0.4219 0.1406 -0.1687 1.4344 -0.3375 3.2625 -0.4078 0.4781 -0.0141 0.9562 -0.1125 1.0547 -0.2109 0.0984 -0.0984 0.5906 -0.1687 1.2516 -0.1687 0.6047 0 1.1391 -0.0562 1.1812 -0.1406 0.0422 -0.0844 0.675 -0.1406 1.4203 -0.1406 0.7875 0 1.3219 -0.0562 1.3219 -0.1406 0 -0.0844 0.7453 -0.1406 1.9547 -0.1406 1.1672 0 1.9969 -0.0562 2.0531 -0.1406 0.0562 -0.0844 1.3781 -0.1406 3.5016 -0.1406 2.8687 0 3.4594 -0.0281 3.6 -0.2109 0.2531 -0.3094 2.1375 -0.2953 2.3906 0 0.1547 0.1969 0.6609 0.225 3.4172 0.1969 2.1797 -0.0141 3.2625 0.0281 3.375 0.1406 0.0984 0.0984 0.7734 0.1547 1.7437 0.1547 1.1672 0 1.6875 0.0562 1.9125 0.2109 0.2109 0.1266 0.6047 0.1828 1.2234 0.1547 0.6047 -0.0281 1.0125 0.0281 1.2234 0.1547 0.1969 0.1266 0.6328 0.1828 1.2937 0.1687 0.5906 -0.0141 1.0688 0.0422 1.1953 0.1406 0.1125 0.0984 0.4078 0.1266 0.7453 0.0703 0.3797 -0.0562 0.7031 -0.0141 0.9844 0.1266 0.2672 0.1406 0.6047 0.1969 0.9703 0.1406 0.4078 -0.0562 0.6328 -0.0141 0.7875 0.1406 0.1125 0.1125 0.5766 0.2531 1.0406 0.2953 1.8281 0.1687 2.3062 0.2531 2.4609 0.45 0.0984 0.1125 0.4219 0.1969 0.8438 0.1969 0.3656 0 0.7172 0.0562 0.7594 0.1406 0.0422 0.0703 0.3375 0.1406 0.6328 0.1406 0.2953 0 0.5906 0.0562 0.6328 0.1406 0.0422 0.0703 0.2953 0.1406 0.5625 0.1406 0.2672 0 0.5203 0.0703 0.5625 0.1406 0.0422 0.0844 0.3375 0.1406 0.6328 0.1406 0.2953 0 0.5906 0.0562 0.6328 0.1406 0.0422 0.0703 0.2672 0.1406 0.4922 0.1406 0.225 0 0.45 0.0703 0.4922 0.1406 0.0422 0.0844 0.2391 0.1406 0.4219 0.1406 0.1828 0 0.3797 0.0703 0.4219 0.1406 0.0422 0.0844 0.1969 0.1406 0.3375 0.1406 0.3094 0 2.3203 0.9984 2.7 1.35 0.4359 0.3937 0.6891 1.125 0.675 1.9406 0 0.7172 -0.0703 0.8719 -0.8578 1.9969 -0.225 0.2953 -0.5484 0.7734 -0.7312 1.0406 -0.1969 0.2672 -0.3516 0.5625 -0.3516 0.6469 -0.0141 0.0844 -0.1406 0.2672 -0.2953 0.4078 -0.1547 0.1406 -0.2813 0.3234 -0.2813 0.3937 0 0.0844 -0.0844 0.2531 -0.1969 0.3656 -0.1125 0.1266 -0.3656 0.5484 -0.5766 0.9562 -0.1969 0.3937 -0.4641 0.8016 -0.5766 0.9 -0.1125 0.0844 -0.1969 0.2391 -0.1969 0.3375 0 0.0844 -0.1266 0.2813 -0.2813 0.4219 -0.1547 0.1406 -0.2813 0.3234 -0.2813 0.4219 0 0.0984 -0.1266 0.2813 -0.2813 0.4219 -0.1547 0.1406 -0.2813 0.3375 -0.2813 0.4219 0 0.0984 -0.0984 0.2531 -0.2109 0.3516 -0.1125 0.0984 -0.2109 0.2813 -0.2109 0.3937 0 0.1266 -0.1547 0.3937 -0.3516 0.5906 -0.1969 0.2109 -0.3797 0.5484 -0.3937 0.7594 -0.0281 0.3375 0.0562 0.4219 0.8156 0.7453 0.4641 0.1969 0.8719 0.4078 0.8859 0.4781 0.0281 0.0703 0.1125 0.1266 0.1828 0.1266 0.1687 0 2.0109 0.9141 2.7281 1.35 0.3094 0.1828 0.6609 0.3797 0.7734 0.4359 0.5203 0.225 2.0672 1.3219 2.3906 1.6734 0.5766 0.6609 0.7031 0.9984 0.7031 1.8562 0 0.6469 -0.0562 0.8859 -0.2813 1.0828 -0.1547 0.1406 -0.2813 0.3234 -0.2813 0.4219 0 0.0844 -0.225 0.3656 -0.4922 0.6328 -0.2672 0.2672 -0.4922 0.5484 -0.4922 0.6328 0 0.0703 -0.9141 1.0547 -2.0391 2.1797 -1.125 1.125 -2.0391 2.0953 -2.0391 2.1797 0 0.1828 -0.5766 0.8156 -1.3219 1.4484 -0.5484 0.4781 -0.6047 0.8719 -0.0984 0.8719 0.1547 0 0.3234 0.0703 0.3656 0.1406 0.0422 0.0844 0.2531 0.1406 0.45 0.1406 0.3797 0 1.1812 0.225 1.6172 0.4359 0.1406 0.0703 0.3797 0.1266 0.5203 0.1266 0.1547 0 0.3234 0.0703 0.3656 0.1406 0.0422 0.0844 0.2672 0.1406 0.4922 0.1406 0.225 0 0.45 0.0703 0.4922 0.1406 0.0422 0.0703 0.2391 0.1406 0.4078 0.1406 0.1828 0 0.4078 0.0984 0.5062 0.2109 0.0984 0.1125 0.2953 0.2109 0.45 0.2109 0.45 0 3.1641 1.5187 3.5578 1.9828 0.4359 0.5344 0.4641 1.2937 0.0844 2.1375 -0.3234 0.7031 -3.2484 3.5156 -3.9094 3.7687 -0.2109 0.0703 -0.3516 0.1828 -1.5328 1.1812 -0.3234 0.2672 -0.675 0.4922 -0.7734 0.4922 -0.1125 0 -0.4078 0.225 -0.675 0.4922 -0.2672 0.2672 -0.5484 0.4922 -0.6469 0.4922 -0.0844 0 -0.3234 0.1828 -0.5344 0.3937 l-0.3797 0.3937 0 5.0062 c0 3.1922 0.0562 5.0484 0.1406 5.1047 0.0844 0.0562 0.1406 2.1937 0.1406 5.9625 0 5.0625 0.0281 5.9063 0.2109 6.0609 0.1687 0.1406 0.2109 0.5203 0.2109 1.7016 0 1.2656 0.0422 1.6031 0.2813 2.025 0.1547 0.2813 0.2813 0.6187 0.2813 0.7594 0 0.1406 0.0844 0.3375 0.1969 0.4359 0.1125 0.0844 0.1687 0.2531 0.1266 0.3656 -0.0422 0.1125 0.0281 0.3516 0.1547 0.5484 0.1266 0.1828 0.225 0.4641 0.225 0.6187 0 0.1547 0.0562 0.3094 0.1266 0.3516 0.0703 0.0422 0.0984 0.1969 0.0562 0.3375 -0.0281 0.1406 0.0422 0.3375 0.1547 0.4359 0.1266 0.1125 0.225 0.3656 0.225 0.5906 0 0.2109 0.0703 0.4359 0.1406 0.4781 0.0703 0.0422 0.1406 0.2953 0.1406 0.5625 0 0.2672 0.0562 0.5203 0.1406 0.5625 0.0703 0.0422 0.1406 0.2672 0.1406 0.4922 0 0.225 0.0703 0.45 0.1406 0.4922 0.0844 0.0422 0.1406 0.2953 0.1406 0.5484 0 0.2672 0.0984 0.5484 0.225 0.6609 0.1406 0.1125 0.1969 0.3094 0.1547 0.5344 -0.0562 0.3094 0.0984 0.8438 0.4781 1.5891 0.0703 0.1406 0.1266 0.4641 0.1266 0.7312 0 0.2672 0.0703 0.5344 0.1406 0.5766 0.0844 0.0422 0.1406 0.3937 0.1406 0.7734 0 0.3797 0.0703 0.7312 0.1406 0.7734 0.0844 0.0422 0.1406 0.2953 0.1406 0.5625 0 0.2672 0.0703 0.5203 0.1406 0.5625 0.0703 0.0422 0.1406 0.2953 0.1406 0.5625 0 0.2531 0.0984 0.5625 0.2109 0.6891 0.1266 0.1125 0.2109 0.4641 0.2109 0.8438 0 0.3516 0.0703 0.675 0.1406 0.7172 0.0844 0.0422 0.1406 0.3937 0.1406 0.7734 0 0.3797 0.0703 0.7312 0.1406 0.7734 0.0703 0.0422 0.1406 0.3937 0.1406 0.7734 0 0.3797 0.0562 0.7312 0.1406 0.7734 0.0703 0.0422 0.1406 0.45 0.1406 0.9 0 0.5625 0.0703 0.8859 0.2109 0.9984 0.1266 0.1125 0.2109 0.4219 0.2109 0.8438 0 0.3516 0.0422 0.7031 0.0984 0.7594 0.0562 0.0562 0.0844 0.3375 0.0562 0.6328 -0.0141 0.3375 0.0422 0.5906 0.1828 0.7031 0.1547 0.1406 0.225 0.4359 0.225 1.0125 0 0.45 0.0562 0.8578 0.1406 0.9 0.0703 0.0422 0.1406 0.3937 0.1406 0.7734 0 0.3797 0.0703 0.7312 0.1406 0.7734 0.0703 0.0422 0.1406 0.45 0.1406 0.9 0 0.5906 0.0703 0.8719 0.225 1.0125 0.1687 0.1406 0.2109 0.3516 0.1687 0.8438 -0.0422 0.3656 -0.0141 0.7734 0.0703 0.9 0.0703 0.1406 0.1547 0.5906 0.1687 1.0125 0.0281 0.4359 0.1125 0.8438 0.1828 0.9141 0.0703 0.0703 0.0984 0.4219 0.0562 0.7875 -0.0422 0.5062 0 0.7172 0.1687 0.8578 0.1687 0.1406 0.225 0.4359 0.225 1.0828 0 0.4781 0.0703 0.9281 0.1406 0.9703 0.0844 0.0422 0.1406 0.5203 0.1406 1.0547 0 0.5344 0.0703 1.0125 0.1406 1.0547 0.0844 0.0422 0.1406 0.4641 0.1406 0.9141 0 0.45 0.0703 0.8719 0.1406 0.9141 0.0703 0.0422 0.1406 0.45 0.1406 0.9 0 0.5625 0.0703 0.8859 0.2109 0.9984 0.1547 0.1266 0.2109 0.45 0.2109 1.1391 0 0.5203 0.0703 0.9984 0.1406 1.0406 0.0844 0.0422 0.1406 0.5203 0.1406 1.0547 0 0.5344 0.0703 1.0125 0.1406 1.0547 0.0844 0.0422 0.1406 0.5203 0.1406 1.0547 0 0.5344 0.0703 1.0125 0.1406 1.0547 0.0703 0.0422 0.1406 0.5906 0.1406 1.1953 0 0.6047 0.0703 1.1531 0.1406 1.1953 0.0844 0.0422 0.1406 0.6187 0.1406 1.2516 0 0.9141 0.0562 1.2234 0.225 1.3641 0.1969 0.1547 0.2109 0.3656 0.1406 1.1953 -0.0562 0.8016 -0.0281 1.0547 0.1266 1.1812 0.1687 0.1406 0.2109 0.5203 0.2109 1.6312 0 0.8156 0.0562 1.4906 0.1406 1.5328 0.0844 0.0422 0.1406 0.7031 0.1406 1.4766 0 0.7734 0.0562 1.4344 0.1406 1.4766 0.0844 0.0562 0.1406 0.8719 0.1406 1.9688 0 1.0969 0.0562 1.9125 0.1406 1.9688 0.0844 0.0422 0.1406 0.5625 0.1406 1.1391 l0 1.0406 -58.3875 0 c-51.0609 -0.0141 -58.4297 -0.0422 -58.6687 -0.2109z"/>
  </g>
  <g id="layer102" fill="#e2e019" stroke="none">
    <path
      d="M17.6625 168.5391 c-0.1547 -0.1125 -0.5484 -0.2109 -0.8859 -0.2109 -0.6328 0 -0.7453 -0.1266 -0.3797 -0.4359 0.1969 -0.1547 0.2109 -0.3937 0.1266 -1.6031 -0.0703 -1.1531 -0.0562 -1.4625 0.1266 -1.6875 0.1547 -0.2109 0.2109 -0.6328 0.225 -1.575 0 -0.7734 0.0562 -1.3078 0.1406 -1.3078 0.0844 0 0.1406 -0.5344 0.1406 -1.3219 0 -0.7453 0.0562 -1.3781 0.1406 -1.4203 0.0844 -0.0422 0.1406 -0.5203 0.1406 -1.0406 0 -0.7031 0.0562 -1.0125 0.225 -1.1531 0.1687 -0.1406 0.2109 -0.3937 0.1687 -1.0547 -0.0281 -0.5766 0.0281 -0.9562 0.1406 -1.0688 0.0984 -0.0984 0.1687 -0.5203 0.1687 -0.9703 0 -0.45 0.0703 -0.8578 0.1547 -0.9141 0.0984 -0.0562 0.1266 -0.3094 0.0844 -0.675 -0.0562 -0.3937 -0.0141 -0.7312 0.1125 -0.9844 0.1125 -0.225 0.2109 -0.7312 0.2109 -1.1531 0 -0.4078 0.0703 -0.7875 0.1406 -0.8297 0.0844 -0.0422 0.1406 -0.4641 0.1406 -0.9141 0 -0.45 0.0703 -0.8719 0.1406 -0.9141 0.0844 -0.0422 0.1406 -0.3937 0.1406 -0.7594 0 -0.4359 0.0703 -0.7453 0.2109 -0.8578 0.1266 -0.1125 0.2109 -0.4078 0.2109 -0.7875 0 -0.3234 0.0703 -0.6469 0.1406 -0.6891 0.0844 -0.0422 0.1406 -0.3937 0.1406 -0.7734 0 -0.3797 0.0703 -0.7312 0.1406 -0.7734 0.0844 -0.0422 0.1406 -0.3937 0.1406 -0.7734 0 -0.3797 0.0703 -0.7312 0.1406 -0.7734 0.0844 -0.0422 0.1406 -0.3937 0.1406 -0.7734 0 -0.3797 0.0703 -0.7312 0.1406 -0.7734 0.0844 -0.0422 0.1406 -0.3656 0.1406 -0.7031 0 -0.3375 0.0703 -0.6609 0.1406 -0.7031 0.0844 -0.0422 0.1406 -0.3234 0.1406 -0.6047 0 -0.2813 0.0984 -0.6328 0.1969 -0.7734 0.1266 -0.1687 0.1687 -0.45 0.1266 -0.8016 -0.0562 -0.4359 -0.0281 -0.5766 0.1547 -0.6469 0.1687 -0.0703 0.225 -0.2672 0.225 -0.8438 0 -0.4219 0.0703 -0.7594 0.1406 -0.7594 0.0844 0 0.1406 -0.2531 0.1406 -0.5484 0 -0.3094 0.0703 -0.6047 0.1406 -0.6469 0.0844 -0.0422 0.1406 -0.3797 0.1406 -0.7312 0 -0.3656 0.0844 -0.7453 0.1969 -0.8719 0.1266 -0.1406 0.2531 -0.7031 0.3094 -1.35 0.0422 -0.6187 0.1687 -1.2234 0.2672 -1.3359 0.0984 -0.1125 0.2109 -0.4359 0.2672 -0.7031 0.0422 -0.2672 0.1125 -0.7453 0.1687 -1.0547 0.0422 -0.3094 0.1547 -0.6469 0.2391 -0.7453 0.0844 -0.1125 0.1406 -0.4641 0.1125 -0.8016 -0.0141 -0.3375 0.0422 -0.6469 0.1266 -0.7031 0.0703 -0.0422 0.1406 -0.3094 0.1406 -0.5766 0 -0.2813 0.0984 -0.6047 0.225 -0.7172 0.1406 -0.1547 0.1969 -0.3656 0.1406 -0.6187 -0.0422 -0.2391 0 -0.45 0.1125 -0.5484 0.1828 -0.1406 0.2813 -0.5906 0.4219 -1.8 0.0281 -0.2531 0.1266 -0.5484 0.225 -0.6609 0.0984 -0.1125 0.1969 -0.4078 0.225 -0.6609 0.1266 -1.1391 0.2391 -1.6734 0.3516 -1.7437 0.0703 -0.0422 0.1266 -0.3094 0.1266 -0.6047 0 -0.3094 0.0844 -0.6187 0.2109 -0.7172 0.1266 -0.0984 0.2109 -0.4078 0.2109 -0.7172 0 -0.2953 0.0703 -0.5766 0.1406 -0.6187 0.0844 -0.0422 0.1406 -0.2391 0.1406 -0.4219 0 -0.1828 0.0703 -0.3797 0.1406 -0.4219 0.0844 -0.0422 0.1406 -0.2953 0.1406 -0.5625 0 -0.2672 0.0703 -0.5203 0.1406 -0.5625 0.0844 -0.0422 0.1406 -0.3375 0.1406 -0.6328 0 -0.2953 0.0703 -0.5906 0.1406 -0.6328 0.0844 -0.0422 0.1406 -0.2391 0.1406 -0.4219 0 -0.1828 0.0703 -0.3797 0.1406 -0.4219 0.0844 -0.0422 0.1406 -0.3234 0.1406 -0.6047 0 -0.2813 0.0984 -0.6328 0.2109 -0.7734 0.0984 -0.1547 0.1547 -0.3516 0.1266 -0.4359 -0.0422 -0.0984 0.0281 -0.2672 0.1547 -0.3656 0.1125 -0.0984 0.2109 -0.3516 0.2109 -0.5766 0 -0.2109 0.0703 -0.4359 0.1406 -0.4781 0.0844 -0.0422 0.1406 -0.2953 0.1406 -0.5344 0 -0.2531 0.0984 -0.5766 0.2109 -0.7172 0.1125 -0.1406 0.1687 -0.3234 0.1266 -0.3797 -0.0422 -0.0703 0.0281 -0.2672 0.1406 -0.4359 0.1125 -0.1828 0.2531 -0.6328 0.2953 -0.9984 0.0562 -0.3656 0.1969 -0.7594 0.2953 -0.8719 0.1125 -0.0984 0.1969 -0.2672 0.1969 -0.3656 0 -0.2109 0.2672 -1.0969 0.4359 -1.4203 0.0703 -0.1406 0.1266 -0.3797 0.1266 -0.5203 0 -0.1547 0.0703 -0.3234 0.1406 -0.3656 0.0844 -0.0422 0.1406 -0.2672 0.1406 -0.4781 0 -0.225 0.0984 -0.4781 0.2109 -0.5766 0.1125 -0.0984 0.2109 -0.3234 0.2109 -0.5062 0 -0.1687 0.0703 -0.3656 0.1406 -0.4078 0.0844 -0.0422 0.1406 -0.2391 0.1406 -0.4219 0 -0.1828 0.0703 -0.3797 0.1406 -0.4219 0.0844 -0.0422 0.1406 -0.3516 0.1406 -0.6891 0 -0.4922 -0.0844 -0.675 -0.4922 -1.0688 -0.2672 -0.2672 -0.4922 -0.5484 -0.4922 -0.6328 0 -0.0844 -0.3094 -0.4641 -0.7031 -0.8438 -0.3797 -0.3797 -0.7031 -0.7734 -0.7031 -0.8578 0 -0.0984 -0.4078 -0.5625 -0.9141 -1.0547 -0.4922 -0.4781 -0.9562 -1.0125 -0.9984 -1.1672 -0.0562 -0.1687 -0.3937 -0.6047 -0.7734 -0.9844 -0.3797 -0.3656 -0.6891 -0.7453 -0.6891 -0.8438 0 -0.0844 -0.2672 -0.3797 -0.6047 -0.6609 -0.3234 -0.2813 -0.6891 -0.7031 -0.8016 -0.9141 -0.1828 -0.3797 -0.675 -0.9562 -2.4891 -2.9812 -0.4078 -0.45 -0.7453 -0.9 -0.7453 -0.9844 0 -0.0844 -0.3516 -0.4781 -0.7734 -0.8859 -0.4219 -0.4078 -0.7734 -0.8156 -0.7734 -0.9141 0 -0.0984 -0.3234 -0.4781 -0.7031 -0.8438 -0.3937 -0.3656 -0.7453 -0.8016 -0.7875 -0.9703 -0.0422 -0.1687 -0.3516 -0.5766 -0.7031 -0.9141 -0.3375 -0.3234 -0.6187 -0.6609 -0.6187 -0.7453 0 -0.0844 -0.3375 -0.5062 -0.7312 -0.9562 -1.4625 -1.6312 -1.9406 -2.1937 -1.9406 -2.3203 0 -0.0844 -0.2813 -0.4219 -0.6328 -0.7594 -0.3516 -0.3375 -0.6328 -0.7031 -0.6328 -0.8016 0 -0.0984 -0.2531 -0.4078 -0.5625 -0.6891 -0.2953 -0.2672 -0.5906 -0.6328 -0.6469 -0.8016 -0.0562 -0.1687 -0.3656 -0.5906 -0.7031 -0.9141 -0.3375 -0.3375 -0.6187 -0.6891 -0.6187 -0.7875 0 -0.0984 -0.1969 -0.3516 -0.4219 -0.5766 -0.225 -0.225 -0.4219 -0.4781 -0.4219 -0.5625 0 -0.0844 -0.225 -0.3656 -0.4922 -0.6328 -0.2672 -0.2672 -0.4922 -0.5625 -0.4922 -0.6609 0 -0.0984 -0.2531 -0.4078 -0.5625 -0.6891 -0.3094 -0.2813 -0.5625 -0.5906 -0.5625 -0.675 0 -0.0984 -0.225 -0.3797 -0.4922 -0.6469 -0.2672 -0.2672 -0.4922 -0.5625 -0.4922 -0.6609 0 -0.0984 -0.225 -0.4219 -0.4922 -0.7312 -0.2672 -0.2953 -0.4922 -0.6047 -0.4922 -0.675 0 -0.0844 -0.1266 -0.2531 -0.2813 -0.3937 -0.1547 -0.1406 -0.2813 -0.3234 -0.2813 -0.4219 0 -0.0984 -0.1406 -0.2813 -0.2953 -0.4359 -0.2672 -0.2391 -0.7031 -0.8156 -1.1812 -1.5891 -0.1547 -0.2531 -0.9984 -1.5469 -1.4203 -2.1797 -0.7031 -1.0547 -1.4625 -2.5031 -1.4625 -2.7703 0 -0.0703 -0.0562 -0.1266 -0.1406 -0.1266 -0.0703 0 -0.1406 -0.1828 -0.1406 -0.4078 0 -0.2391 -0.0562 -0.4641 -0.1406 -0.5062 -0.0703 -0.0422 -0.1406 -0.6609 -0.1406 -1.3641 0 -1.0828 0.0562 -1.3781 0.3656 -1.9969 0.3516 -0.7031 2.6437 -3.1781 2.9391 -3.1781 0.0844 0 0.3656 -0.225 0.6328 -0.4922 0.2672 -0.2672 0.5906 -0.4922 0.7312 -0.4922 0.1266 0 0.3094 -0.1266 0.3937 -0.2813 0.0844 -0.1547 0.225 -0.2813 0.3094 -0.2813 0.2531 0 1.6594 -0.7172 1.6594 -0.8578 0 -0.0562 0.225 -0.1828 0.4922 -0.2813 0.2672 -0.0984 0.4922 -0.225 0.4922 -0.2672 0 -0.0562 0.2531 -0.1828 0.5625 -0.2813 0.3094 -0.0984 0.5625 -0.2391 0.5625 -0.2953 0 -0.0562 0.1406 -0.1547 0.3234 -0.2109 0.6609 -0.1969 1.4484 -0.6047 1.7016 -0.8859 0.1547 -0.1687 0.3797 -0.2953 0.5062 -0.2953 0.1406 0 0.2813 -0.0984 0.3375 -0.2109 0.0422 -0.1125 0.1687 -0.1687 0.2813 -0.1266 0.1125 0.0422 0.7594 -0.2109 1.4344 -0.5625 0.6891 -0.3516 1.3219 -0.6469 1.4203 -0.6469 0.0984 0 0.1828 -0.0562 0.1828 -0.1406 0 -0.0703 0.1687 -0.1406 0.3937 -0.1547 0.2109 0 0.5766 -0.1266 0.8016 -0.2672 0.8016 -0.5062 1.2375 -0.7031 1.5328 -0.7031 0.1687 0 0.5062 -0.1266 0.7594 -0.2813 0.2531 -0.1547 0.5484 -0.2813 0.6609 -0.2813 0.1125 0 0.4219 -0.1266 0.7031 -0.2813 0.2813 -0.1547 0.6469 -0.2813 0.8438 -0.2813 0.1828 0 0.3797 -0.0562 0.4219 -0.1406 0.0422 -0.0703 0.3234 -0.2391 0.6047 -0.3656 0.2813 -0.1266 0.6891 -0.3094 0.8859 -0.4219 0.1969 -0.0984 0.4078 -0.1547 0.45 -0.0984 0.0984 0.0984 1.0266 -0.3234 1.1531 -0.5203 0.0422 -0.0844 0.2672 -0.1406 0.4922 -0.1406 0.225 0 0.45 -0.0703 0.4922 -0.1406 0.0422 -0.0844 0.2391 -0.1406 0.4219 -0.1406 0.1828 0 0.3797 -0.0703 0.4219 -0.1406 0.0422 -0.0844 0.2391 -0.1406 0.4219 -0.1406 0.1828 0 0.3797 -0.0562 0.4219 -0.1406 0.0422 -0.0703 0.2672 -0.1406 0.4922 -0.1406 0.225 0 0.45 -0.0562 0.4922 -0.1406 0.0422 -0.0703 0.2391 -0.1406 0.4078 -0.1406 0.1828 0 0.4078 -0.0984 0.5062 -0.2109 0.0984 -0.1125 0.3234 -0.2109 0.5062 -0.2109 0.1687 0 0.3656 -0.0562 0.4078 -0.1406 0.0422 -0.0703 0.2672 -0.1406 0.4922 -0.1406 0.225 0 0.45 -0.0562 0.4922 -0.1406 0.0422 -0.0703 0.2391 -0.1406 0.4219 -0.1406 0.1828 0 0.3797 -0.0562 0.4219 -0.1406 0.0422 -0.0703 0.2672 -0.1406 0.5062 -0.1406 0.225 0 0.4078 -0.0562 0.4078 -0.1406 0 -0.0703 0.2391 -0.1406 0.5484 -0.1406 0.3234 0 0.6187 -0.0844 0.7312 -0.225 0.0984 -0.1125 0.2953 -0.1828 0.4219 -0.1547 0.1406 0.0422 0.3797 -0.0281 0.5344 -0.1406 0.1687 -0.1125 0.3516 -0.1687 0.4219 -0.1266 0.0562 0.0422 0.2391 -0.0141 0.3797 -0.1266 0.1406 -0.1125 0.4641 -0.2109 0.7172 -0.2109 0.2391 0 0.4922 -0.0562 0.5344 -0.1406 0.0422 -0.0703 0.2672 -0.1406 0.4781 -0.1406 0.225 0 0.4781 -0.0844 0.5625 -0.1969 0.0844 -0.0984 0.5625 -0.2391 1.0688 -0.2953 0.5062 -0.0562 0.9703 -0.1828 1.0688 -0.2953 0.1125 -0.1406 0.3094 -0.1828 0.5484 -0.1266 0.2531 0.0562 0.4359 0.0141 0.5625 -0.1406 0.0984 -0.1266 0.3937 -0.2109 0.7172 -0.2109 0.2953 0 0.5625 -0.0562 0.6047 -0.1266 0.0422 -0.0703 0.3234 -0.1547 0.6047 -0.2109 1.4063 -0.2109 1.6734 -0.2672 1.8984 -0.4641 0.1406 -0.1266 0.3516 -0.1828 0.4781 -0.1266 0.2109 0.0844 1.35 -0.2109 1.9125 -0.4922 0.1406 -0.0703 0.4641 -0.1266 0.7312 -0.1266 0.2531 0 0.5484 -0.0844 0.6328 -0.1828 0.0844 -0.1125 0.3234 -0.1687 0.5625 -0.1266 0.225 0.0281 0.45 -0.0141 0.4922 -0.0984 0.0562 -0.0844 0.4078 -0.1547 0.7875 -0.1547 0.3797 0 0.7312 -0.0562 0.7734 -0.1406 0.0422 -0.0844 0.2953 -0.1406 0.5484 -0.1406 0.2531 0 0.5766 -0.0844 0.7172 -0.1969 0.1687 -0.1125 0.4641 -0.1687 0.7734 -0.1266 0.3516 0.0562 0.5625 0 0.6891 -0.1547 0.1125 -0.1406 0.4078 -0.225 0.7312 -0.225 0.2953 0 0.5766 -0.0562 0.6187 -0.1406 0.0422 -0.0844 0.3656 -0.1406 0.7031 -0.1406 0.3375 0 0.6609 -0.0703 0.7031 -0.1406 0.0422 -0.0703 0.3937 -0.1406 0.7734 -0.1406 0.3797 0 0.7312 -0.0703 0.7734 -0.1406 0.0422 -0.0703 0.3937 -0.1406 0.7734 -0.1406 0.3797 0 0.7312 -0.0703 0.7734 -0.1406 0.0422 -0.0844 0.45 -0.1406 0.9 -0.1406 0.5906 0 0.8719 -0.0703 1.0125 -0.225 0.1266 -0.1687 0.3375 -0.2109 0.7172 -0.1547 0.3234 0.0422 0.6187 0 0.7734 -0.1266 0.1406 -0.0984 0.5484 -0.1969 0.9281 -0.1969 0.3656 0 0.6609 -0.0562 0.6609 -0.1266 0 -0.0703 0.4641 -0.1687 1.0266 -0.2109 2.2922 -0.1687 2.8406 -0.2531 2.9812 -0.4219 0.1406 -0.1687 1.4344 -0.3375 3.2625 -0.4078 0.4781 -0.0141 0.9562 -0.1125 1.0547 -0.2109 0.0984 -0.0984 0.5906 -0.1687 1.2516 -0.1687 0.6047 0 1.1391 -0.0562 1.1812 -0.1406 0.0422 -0.0844 0.675 -0.1406 1.4203 -0.1406 0.7875 0 1.3219 -0.0562 1.3219 -0.1406 0 -0.0844 0.7453 -0.1406 1.9547 -0.1406 1.1672 0 1.9969 -0.0562 2.0531 -0.1406 0.0562 -0.0844 1.3781 -0.1406 3.5016 -0.1406 2.8687 0 3.4594 -0.0281 3.6 -0.2109 0.2531 -0.3094 2.1375 -0.2953 2.3906 0 0.1547 0.1969 0.6609 0.225 3.4172 0.1969 2.1797 -0.0141 3.2625 0.0281 3.375 0.1406 0.0984 0.0984 0.7734 0.1547 1.7437 0.1547 1.1672 0 1.6875 0.0562 1.9125 0.2109 0.2109 0.1266 0.6047 0.1828 1.2234 0.1547 0.6047 -0.0281 1.0125 0.0281 1.2234 0.1547 0.1969 0.1266 0.6328 0.1828 1.2937 0.1687 0.5906 -0.0141 1.0688 0.0422 1.1953 0.1406 0.1125 0.0984 0.4078 0.1266 0.7453 0.0703 0.3797 -0.0562 0.7031 -0.0141 0.9844 0.1266 0.2672 0.1406 0.6047 0.1969 0.9703 0.1406 0.4078 -0.0562 0.6328 -0.0141 0.7875 0.1406 0.1125 0.1125 0.5766 0.2531 1.0406 0.2953 1.8281 0.1687 2.3062 0.2531 2.4609 0.45 0.0984 0.1125 0.4219 0.1969 0.8438 0.1969 0.3656 0 0.7172 0.0562 0.7594 0.1406 0.0422 0.0703 0.3375 0.1406 0.6328 0.1406 0.2953 0 0.5906 0.0562 0.6328 0.1406 0.0422 0.0703 0.2953 0.1406 0.5625 0.1406 0.2672 0 0.5203 0.0703 0.5625 0.1406 0.0422 0.0844 0.3375 0.1406 0.6328 0.1406 0.2953 0 0.5906 0.0562 0.6328 0.1406 0.0422 0.0703 0.2672 0.1406 0.4922 0.1406 0.225 0 0.45 0.0703 0.4922 0.1406 0.0422 0.0844 0.2391 0.1406 0.4219 0.1406 0.1828 0 0.3797 0.0703 0.4219 0.1406 0.0422 0.0844 0.1969 0.1406 0.3375 0.1406 0.3094 0 2.3203 0.9984 2.7 1.35 0.4359 0.3937 0.6891 1.125 0.675 1.9406 0 0.7172 -0.0703 0.8719 -0.8578 1.9969 -0.225 0.2953 -0.5484 0.7734 -0.7312 1.0406 -0.1969 0.2672 -0.3516 0.5625 -0.3516 0.6469 -0.0141 0.0844 -0.1406 0.2672 -0.2953 0.4078 -0.1547 0.1406 -0.2813 0.3234 -0.2813 0.3937 0 0.0844 -0.0844 0.2531 -0.1969 0.3656 -0.1125 0.1266 -0.3656 0.5484 -0.5766 0.9562 -0.1969 0.3937 -0.4641 0.8016 -0.5766 0.9 -0.1125 0.0844 -0.1969 0.2391 -0.1969 0.3375 0 0.0844 -0.1266 0.2813 -0.2813 0.4219 -0.1547 0.1406 -0.2813 0.3234 -0.2813 0.4219 0 0.0984 -0.1266 0.2813 -0.2813 0.4219 -0.1547 0.1406 -0.2813 0.3375 -0.2813 0.4219 0 0.0984 -0.0984 0.2531 -0.2109 0.3516 -0.1125 0.0984 -0.2109 0.2813 -0.2109 0.3937 0 0.1266 -0.1547 0.3937 -0.3516 0.5906 -0.1969 0.2109 -0.3797 0.5484 -0.3937 0.7594 -0.0281 0.3375 0.0562 0.4219 0.8156 0.7453 0.4641 0.1969 0.8719 0.4078 0.8859 0.4781 0.0281 0.0703 0.1125 0.1266 0.1828 0.1266 0.1687 0 2.0109 0.9141 2.7281 1.35 0.3094 0.1828 0.6609 0.3797 0.7734 0.4359 0.5203 0.225 2.0672 1.3219 2.3906 1.6734 0.5766 0.6609 0.7031 0.9984 0.7031 1.8562 0 0.6469 -0.0562 0.8859 -0.2813 1.0828 -0.1547 0.1406 -0.2813 0.3234 -0.2813 0.4219 0 0.0844 -0.225 0.3656 -0.4922 0.6328 -0.2672 0.2672 -0.4922 0.5484 -0.4922 0.6328 0 0.0703 -0.9141 1.0547 -2.0391 2.1797 -1.125 1.125 -2.0391 2.0953 -2.0391 2.1797 0 0.1828 -0.5766 0.8156 -1.3219 1.4484 -0.5484 0.4781 -0.6047 0.8719 -0.0984 0.8719 0.1547 0 0.3234 0.0703 0.3656 0.1406 0.0422 0.0844 0.2531 0.1406 0.45 0.1406 0.3797 0 1.1812 0.225 1.6172 0.4359 0.1406 0.0703 0.3797 0.1266 0.5203 0.1266 0.1547 0 0.3234 0.0703 0.3656 0.1406 0.0422 0.0844 0.2672 0.1406 0.4922 0.1406 0.225 0 0.45 0.0703 0.4922 0.1406 0.0422 0.0703 0.2391 0.1406 0.4078 0.1406 0.1828 0 0.4078 0.0984 0.5062 0.2109 0.0984 0.1125 0.2953 0.2109 0.45 0.2109 0.45 0 3.1641 1.5187 3.5578 1.9828 0.4359 0.5344 0.4641 1.2937 0.0844 2.1375 -0.3234 0.7031 -3.2484 3.5156 -3.9094 3.7687 -0.2109 0.0703 -0.3516 0.1828 -1.5328 1.1812 -0.3234 0.2672 -0.675 0.4922 -0.7734 0.4922 -0.1125 0 -0.4078 0.225 -0.675 0.4922 -0.2672 0.2672 -0.5484 0.4922 -0.6469 0.4922 -0.0844 0 -0.3234 0.1828 -0.5344 0.3937 l-0.3797 0.3937 0 5.0062 c0 3.1922 0.0562 5.0484 0.1406 5.1047 0.0844 0.0562 0.1406 2.1937 0.1406 5.9625 0 5.0625 0.0281 5.9063 0.2109 6.0609 0.1687 0.1406 0.2109 0.5203 0.2109 1.7016 0 1.2656 0.0422 1.6031 0.2813 2.025 0.1547 0.2813 0.2813 0.6187 0.2813 0.7594 0 0.1406 0.0844 0.3375 0.1969 0.4359 0.1125 0.0844 0.1687 0.2531 0.1266 0.3656 -0.0422 0.1125 0.0281 0.3516 0.1547 0.5484 0.1266 0.1828 0.225 0.4641 0.225 0.6187 0 0.1547 0.0562 0.3094 0.1266 0.3516 0.0703 0.0422 0.0984 0.1969 0.0562 0.3375 -0.0281 0.1406 0.0422 0.3375 0.1547 0.4359 0.1266 0.1125 0.225 0.3656 0.225 0.5906 0 0.2109 0.0703 0.4359 0.1406 0.4781 0.0703 0.0422 0.1406 0.2953 0.1406 0.5625 0 0.2672 0.0562 0.5203 0.1406 0.5625 0.0703 0.0422 0.1406 0.2672 0.1406 0.4922 0 0.225 0.0703 0.45 0.1406 0.4922 0.0844 0.0422 0.1406 0.2953 0.1406 0.5484 0 0.2672 0.0984 0.5484 0.225 0.6609 0.1406 0.1125 0.1969 0.3094 0.1547 0.5344 -0.0562 0.3094 0.0984 0.8438 0.4781 1.5891 0.0703 0.1406 0.1266 0.4641 0.1266 0.7312 0 0.2672 0.0703 0.5344 0.1406 0.5766 0.0844 0.0422 0.1406 0.3937 0.1406 0.7734 0 0.3797 0.0703 0.7312 0.1406 0.7734 0.0844 0.0422 0.1406 0.2953 0.1406 0.5625 0 0.2672 0.0703 0.5203 0.1406 0.5625 0.0703 0.0422 0.1406 0.2953 0.1406 0.5625 0 0.2531 0.0984 0.5625 0.2109 0.6891 0.1266 0.1125 0.2109 0.4641 0.2109 0.8438 0 0.3516 0.0703 0.675 0.1406 0.7172 0.0844 0.0422 0.1406 0.3937 0.1406 0.7734 0 0.3797 0.0703 0.7312 0.1406 0.7734 0.0703 0.0422 0.1406 0.3937 0.1406 0.7734 0 0.3797 0.0562 0.7312 0.1406 0.7734 0.0703 0.0422 0.1406 0.45 0.1406 0.9 0 0.5625 0.0703 0.8859 0.2109 0.9984 0.1266 0.1125 0.2109 0.4219 0.2109 0.8438 0 0.3516 0.0422 0.7031 0.0984 0.7594 0.0562 0.0562 0.0844 0.3375 0.0562 0.6328 -0.0141 0.3375 0.0422 0.5906 0.1828 0.7031 0.1547 0.1406 0.225 0.4359 0.225 1.0125 0 0.45 0.0562 0.8578 0.1406 0.9 0.0703 0.0422 0.1406 0.3937 0.1406 0.7734 0 0.3797 0.0703 0.7312 0.1406 0.7734 0.0703 0.0422 0.1406 0.45 0.1406 0.9 0 0.5906 0.0703 0.8719 0.225 1.0125 0.1687 0.1406 0.2109 0.3516 0.1687 0.8438 -0.0422 0.3656 -0.0141 0.7734 0.0703 0.9 0.0703 0.1406 0.1547 0.5906 0.1687 1.0125 0.0281 0.4359 0.1125 0.8438 0.1828 0.9141 0.0703 0.0703 0.0984 0.4219 0.0562 0.7875 -0.0422 0.5062 0 0.7172 0.1687 0.8578 0.1687 0.1406 0.225 0.4359 0.225 1.0828 0 0.4781 0.0703 0.9281 0.1406 0.9703 0.0844 0.0422 0.1406 0.5203 0.1406 1.0547 0 0.5344 0.0703 1.0125 0.1406 1.0547 0.0844 0.0422 0.1406 0.4641 0.1406 0.9141 0 0.45 0.0703 0.8719 0.1406 0.9141 0.0703 0.0422 0.1406 0.45 0.1406 0.9 0 0.5625 0.0703 0.8859 0.2109 0.9984 0.1547 0.1266 0.2109 0.45 0.2109 1.1391 0 0.5203 0.0703 0.9984 0.1406 1.0406 0.0844 0.0422 0.1406 0.5203 0.1406 1.0547 0 0.5344 0.0703 1.0125 0.1406 1.0547 0.0844 0.0422 0.1406 0.5203 0.1406 1.0547 0 0.5344 0.0703 1.0125 0.1406 1.0547 0.0703 0.0422 0.1406 0.5906 0.1406 1.1953 0 0.6047 0.0703 1.1531 0.1406 1.1953 0.0844 0.0422 0.1406 0.6187 0.1406 1.2516 0 0.9141 0.0562 1.2234 0.225 1.3641 0.1969 0.1547 0.2109 0.3656 0.1406 1.1953 -0.0562 0.8016 -0.0281 1.0547 0.1266 1.1812 0.1687 0.1406 0.2109 0.5203 0.2109 1.6312 0 0.8156 0.0562 1.4906 0.1406 1.5328 0.0844 0.0422 0.1406 0.7031 0.1406 1.4766 0 0.7734 0.0562 1.4344 0.1406 1.4766 0.0844 0.0562 0.1406 0.8719 0.1406 1.9688 0 1.0969 0.0562 1.9125 0.1406 1.9688 0.0844 0.0422 0.1406 0.5625 0.1406 1.1391 l0 1.0406 -58.3875 0 c-51.0609 -0.0141 -58.4297 -0.0422 -58.6687 -0.2109z m4.3453 -97.9453 c0.7031 -0.4781 1.6172 -1.4906 1.9688 -2.1516 0.4641 -0.9141 0.6187 -1.125 1.2656 -1.8703 1.2375 -1.4344 2.25 -1.7859 3.2906 -1.1531 0.2813 0.1687 1.125 0.7734 1.8844 1.3359 1.8 1.3359 2.3484 1.6453 3.6 2.0109 0.8438 0.2672 1.2516 0.3094 2.3203 0.2531 1.4063 -0.0703 2.2641 -0.3797 3.5578 -1.2516 0.7031 -0.4641 0.8016 -0.5484 1.8703 -1.5469 2.9391 -2.7422 3.9375 -2.9953 6.3141 -1.6172 1.8984 1.1109 3.9234 1.8703 5.3578 1.9969 2.4328 0.225 5.5266 -1.4625 8.0156 -4.3594 1.1953 -1.3922 1.6734 -2.0812 2.2641 -3.2062 0.5625 -1.125 0.5344 -1.3922 -0.2672 -2.2219 -1.0266 -1.0688 -1.3922 -0.9984 -4.1344 0.7875 -1.7016 1.1109 -2.2219 1.3781 -3.5719 1.8141 -1.9828 0.6469 -3.1219 0.4359 -7.0172 -1.2656 -0.7312 -0.3234 -1.3781 -0.4641 -2.5031 -0.5625 -1.1109 -0.0984 -3.0516 0.1266 -3.0516 0.3516 0 0.0703 -0.1266 0.1687 -0.2813 0.2109 -0.4641 0.1406 -1.9266 1.5891 -3.0797 3.0234 -2.025 2.5172 -3.1359 3.3469 -4.2469 3.1922 -0.7172 -0.0984 -2.2078 -0.8156 -2.7844 -1.3359 -0.1125 -0.1125 -0.5203 -0.4359 -0.9141 -0.7312 -0.3937 -0.2953 -1.5328 -1.2937 -2.5172 -2.2219 -1.8141 -1.7156 -2.6578 -2.2781 -3.4172 -2.2781 -0.6891 0 -1.8562 0.9422 -2.3344 1.8984 -0.6187 1.2234 -2.025 2.2922 -2.7703 2.1094 -0.7734 -0.1969 -2.5875 -1.8703 -3.5297 -3.2766 -0.45 -0.675 -0.9422 -1.1531 -1.6875 -1.6875 -1.0125 -0.7312 -1.0828 -0.7594 -1.7437 -0.675 -0.8156 0.0844 -1.5187 0.5484 -2.1656 1.3781 -0.9844 1.2797 -0.5062 2.5734 2.4047 6.5109 1.9406 2.6156 3.0234 3.9516 4.2469 5.2453 1.7156 1.8 2.5031 2.0812 3.6563 1.2937z m74.3203 -4.6406 c7.8047 -0.2953 14.7516 -0.8156 15.4125 -1.1672 0.5766 -0.2953 0.9422 -0.7594 1.2937 -1.5891 0.2672 -0.6609 0.2953 -0.9 0.225 -3.2766 -0.0703 -2.8969 -0.3656 -4.7672 -1.0688 -6.7359 -1.0125 -2.8969 -2.4891 -5.2031 -4.7531 -7.4953 -2.9391 -2.9391 -6.4125 -4.8516 -10.5469 -5.7797 -1.3078 -0.2813 -1.8281 -0.3234 -4.6406 -0.3234 -2.9812 0 -3.2484 0.0281 -4.7109 0.3937 -2.0391 0.5203 -3.2062 0.9422 -4.9641 1.8 -3.4594 1.7156 -6.4266 4.4578 -8.4094 7.8187 -1.4625 2.4609 -2.1656 4.5984 -2.6578 8.0297 -0.6891 4.725 -0.3375 6.7359 1.35 7.8609 0.5484 0.3656 0.7031 0.3937 2.6437 0.4781 3.3328 0.1266 17.0859 0.1266 20.8266 -0.0141z m-64.8141 -12.7969 c0.8578 -0.3937 1.0969 -0.6047 2.1516 -1.9688 0.5203 -0.6609 1.2234 -1.5609 1.5609 -1.9969 1.6594 -2.1234 1.8562 -2.8828 0.9703 -3.7125 -0.5484 -0.5203 -1.0688 -0.6047 -2.0672 -0.3234 -0.6328 0.1687 -1.8141 1.2937 -2.5172 2.3766 -0.2672 0.4219 -0.8297 1.1812 -1.2516 1.6875 -0.9281 1.0828 -1.6031 2.0672 -1.7297 2.4891 -0.1266 0.4219 0.6328 1.2516 1.3922 1.5187 0.7312 0.2672 0.7734 0.2531 1.4906 -0.0703z"/>
    <path
      d="M77.6953 62.3812 c-0.0703 -0.0422 -0.3797 -0.0984 -0.675 -0.1547 -0.7312 -0.1125 -1.6031 -0.9141 -1.8 -1.6453 -0.2531 -0.9562 0.0844 -2.8687 0.9422 -5.3297 1.9547 -5.625 5.4281 -9 11.3062 -10.9688 2.0812 -0.6891 4.1766 -1.0266 5.6953 -0.9 3.0375 0.2672 7.1437 1.8422 9.7312 3.7547 2.9391 2.1656 5.2172 5.8781 6.1594 10.0687 0.4078 1.7719 0.4359 2.4188 0.1266 3.0797 -0.5344 1.1109 -1.4063 1.3922 -4.725 1.4766 l-1.6453 0.0422 0.0844 -0.9844 c0.225 -2.6578 -1.1672 -5.7797 -3.2766 -7.4109 -1.7578 -1.35 -3.5437 -1.9828 -5.5406 -1.9828 -2.3344 0.0141 -4.0781 0.7453 -5.7797 2.4328 -0.8016 0.7875 -1.2234 1.3359 -1.6594 2.2078 -0.8859 1.7719 -1.1812 3.0234 -1.1109 4.7813 l0.0562 1.4484 -2.8406 0 c-1.5469 0 -3.2906 0.0281 -3.8672 0.0703 -0.5766 0.0422 -1.0969 0.0422 -1.1812 0.0141z"/>
  </g>

</svg>
