<!DOCTYPE svg PUBLIC "-//W3C//DTD SVG 20010904//EN"
  "http://www.w3.org/TR/2001/REC-SVG-20010904/DTD/svg10.dtd">
<svg xmlns="http://www.w3.org/2000/svg" width="135px" height="169px" id="warrior"
     viewBox="0 0 135 169" preserveAspectRatio="xMidYMid meet">
  <g id="layer101" fill="#000000" stroke="none">
    <path
      d="M4.7391 168.6516 c-0.0562 -0.0422 -0.0984 -0.8719 -0.0984 -1.8141 0 -0.9984 -0.0562 -1.7578 -0.1406 -1.8141 -0.0844 -0.0562 -0.1406 -1.8422 -0.1406 -4.9219 0 -4.1484 -0.0281 -4.8375 -0.2109 -4.9078 -0.2953 -0.1125 -0.2953 -1.9406 0 -2.25 0.1828 -0.1687 0.2109 -0.8578 0.2109 -4.3594 0 -2.6859 0.0562 -4.1625 0.1406 -4.1625 0.0844 0 0.1406 -0.8859 0.1406 -2.3766 0 -1.4484 0.0562 -2.4188 0.1406 -2.475 0.0844 -0.0562 0.1406 -0.8859 0.1406 -2.0391 0 -1.35 0.0562 -1.9688 0.1687 -1.9969 0.1125 -0.0422 0.1547 -0.6047 0.1266 -1.8984 -0.0281 -1.1953 0.0141 -1.8703 0.1125 -1.9406 0.0984 -0.0562 0.1547 -0.7453 0.1547 -1.8141 0 -1.3078 0.0422 -1.7719 0.1969 -1.8984 0.1406 -0.1266 0.2109 -0.9 0.2953 -3.2484 0.0703 -2.3484 0.1406 -3.1219 0.2813 -3.2062 0.1406 -0.0703 0.2109 -0.5766 0.2672 -1.6453 0.1687 -3.4172 0.2531 -4.2188 0.4359 -4.4297 0.1266 -0.1547 0.2109 -1.0125 0.2813 -2.8828 0.0703 -1.8703 0.1547 -2.7422 0.2813 -2.8828 0.1266 -0.1547 0.1547 -0.5062 0.1125 -1.1953 -0.0562 -0.8016 -0.0281 -1.0266 0.1547 -1.1812 0.1687 -0.1406 0.225 -0.45 0.225 -1.3641 0 -0.6891 0.0562 -1.1812 0.1406 -1.1812 0.0844 0 0.1406 -0.45 0.1406 -1.0547 0 -0.5766 0.0562 -1.0547 0.1125 -1.0547 0.0562 0 0.0844 -0.4359 0.0562 -0.9844 -0.0422 -0.8016 -0.0141 -0.9984 0.1687 -1.0688 0.1687 -0.0703 0.225 -0.2813 0.225 -0.9 0 -0.4641 0.0703 -0.8719 0.1406 -0.9141 0.0844 -0.0422 0.1406 -0.4922 0.1406 -0.9984 0 -0.5062 0.0562 -0.9 0.1406 -0.9 0.1828 0 0.1828 -0.8016 0 -0.9141 -0.0844 -0.0422 -0.1406 -0.3656 -0.1406 -0.7031 0 -0.3375 -0.0703 -0.6609 -0.1406 -0.7031 -0.0844 -0.0422 -0.1406 -0.3937 -0.1406 -0.7594 0 -0.45 -0.0703 -0.7453 -0.225 -0.8719 -0.1406 -0.1125 -0.1969 -0.3656 -0.1828 -0.7734 0.0281 -0.3375 0 -0.6469 -0.0562 -0.7031 -0.0562 -0.0562 -0.0984 -0.4078 -0.0984 -0.7734 0 -0.3656 -0.0703 -0.7172 -0.1406 -0.7594 -0.0844 -0.0422 -0.1406 -0.3937 -0.1406 -0.7594 0 -0.45 -0.0703 -0.7453 -0.225 -0.8719 -0.1687 -0.1406 -0.1969 -0.3234 -0.1266 -0.8016 0.0703 -0.45 0.0422 -0.675 -0.1125 -0.8438 -0.225 -0.2391 -0.3656 -1.3922 -0.3656 -2.925 0 -0.5906 -0.0703 -0.9141 -0.225 -1.0406 -0.1547 -0.1406 -0.2109 -0.4781 -0.2109 -1.4906 0 -0.7172 -0.0562 -1.35 -0.1406 -1.3922 -0.0844 -0.0562 -0.1406 -0.8438 -0.1406 -1.8844 0 -1.4344 -0.0422 -1.8422 -0.2109 -1.9828 -0.3094 -0.2531 -0.3094 -5.9344 0 -6.1875 0.1687 -0.1406 0.2109 -0.5344 0.2109 -1.9125 0 -0.9984 0.0562 -1.7578 0.1406 -1.8141 0.0844 -0.0422 0.1406 -0.45 0.1406 -0.9 0 -0.5203 0.0703 -0.8859 0.1969 -0.9844 0.1125 -0.0984 0.225 -0.6609 0.2813 -1.5891 0.0703 -0.9422 0.1687 -1.5187 0.3094 -1.6734 0.1266 -0.1406 0.1687 -0.3656 0.1125 -0.6328 -0.0562 -0.2953 -0.0141 -0.4781 0.1406 -0.6047 0.1406 -0.1266 0.225 -0.4078 0.225 -0.8016 0 -0.3234 0.0703 -0.6469 0.1406 -0.6891 0.0844 -0.0422 0.1406 -0.3656 0.1406 -0.7031 0 -0.3375 0.0562 -0.6469 0.1266 -0.6891 0.0703 -0.0422 0.0984 -0.2109 0.0562 -0.3656 -0.0422 -0.1547 0.0281 -0.4359 0.1547 -0.6328 0.1266 -0.1828 0.225 -0.5344 0.225 -0.7594 0 -0.225 0.0703 -0.4641 0.1406 -0.5062 0.0844 -0.0422 0.1406 -0.2391 0.1406 -0.4219 0 -0.1828 0.0562 -0.3797 0.1406 -0.4219 0.0703 -0.0422 0.1406 -0.3234 0.1406 -0.6187 0 -0.3094 0.0844 -0.6187 0.2109 -0.7172 0.1266 -0.0984 0.1687 -0.3094 0.1266 -0.5484 -0.0562 -0.2672 0 -0.4641 0.1547 -0.6328 0.3234 -0.3234 0.2391 -0.4359 -2.025 -2.7281 -1.0125 -1.0266 -1.8422 -1.9266 -1.8422 -1.9969 0 -0.0703 -0.3094 -0.3937 -0.7031 -0.7312 -0.3797 -0.3375 -0.7031 -0.7031 -0.7031 -0.8438 0 -0.1266 -0.2953 -0.5344 -0.6609 -0.9141 -0.8156 -0.8297 -1.2375 -1.4203 -1.3641 -1.9125 -0.0422 -0.2109 -0.1969 -0.4922 -0.3375 -0.6328 -0.3656 -0.3797 -0.7312 -0.9844 -0.7312 -1.2234 0 -0.1125 -0.0562 -0.2109 -0.1125 -0.2109 -0.0703 0 -0.2109 -0.2672 -0.3234 -0.5906 -0.0984 -0.3375 -0.2672 -0.6609 -0.3516 -0.7453 -0.1828 -0.1406 -0.3234 -1.1109 -0.4078 -2.7984 -0.0141 -0.5203 -0.1125 -1.0266 -0.1969 -1.1109 -0.2109 -0.2109 -0.1969 -0.9 0.0141 -0.9703 0.1125 -0.0422 0.1687 -0.2531 0.1406 -0.5625 -0.0281 -0.2813 0.0141 -0.5484 0.0984 -0.6047 0.0844 -0.0422 0.1547 -0.3234 0.1547 -0.6328 0 -0.3375 0.0703 -0.5625 0.2109 -0.6187 0.1406 -0.0422 0.2109 -0.2672 0.2109 -0.6328 0 -0.3094 0.0703 -0.6047 0.1406 -0.6469 0.0844 -0.0422 0.1406 -0.2672 0.1406 -0.4922 0 -0.2109 0.0422 -0.4219 0.1125 -0.45 0.0562 -0.0141 0.2531 -0.3516 0.4359 -0.7453 0.1969 -0.3797 0.4922 -0.8719 0.675 -1.0688 0.1828 -0.1969 0.3234 -0.4219 0.2953 -0.4922 -0.0422 -0.1406 0.6469 -1.2516 0.8719 -1.3922 0.0703 -0.0422 0.1406 -0.2109 0.1406 -0.3656 0 -0.1406 0.0703 -0.2672 0.1406 -0.2672 0.0844 0 0.1406 -0.0844 0.1406 -0.1828 0 -0.0844 0.6891 -0.9 1.5469 -1.7859 0.8438 -0.8859 1.5469 -1.6875 1.5469 -1.7719 0 -0.0703 0.2531 -0.3234 0.5766 -0.5625 0.3094 -0.225 0.7453 -0.5484 0.9703 -0.7172 0.2109 -0.1828 0.45 -0.3234 0.5344 -0.3234 0.0703 0 0.2109 -0.0984 0.3094 -0.2109 0.0984 -0.1125 0.2953 -0.2109 0.4359 -0.2109 0.1406 0 0.4781 -0.1828 0.7312 -0.4219 0.2672 -0.225 0.5484 -0.4219 0.6187 -0.4219 0.1828 0 1.3781 -0.6047 1.6594 -0.8438 0.1406 -0.1125 0.4922 -0.1547 1.0688 -0.1125 0.6328 0.0422 0.8719 0.0141 0.9281 -0.1266 0.0844 -0.225 3.9094 -0.2672 4.05 -0.0422 0.0422 0.0844 0.2953 0.1406 0.5484 0.1406 0.2672 0 0.5484 0.0984 0.6469 0.2109 0.1125 0.1266 0.3656 0.2109 0.6469 0.1828 0.2672 -0.0141 0.5484 0.0422 0.6469 0.1406 0.0984 0.0984 0.3937 0.1687 0.675 0.1687 0.2672 0 0.6469 0.1266 0.8438 0.2813 0.1969 0.1547 0.5203 0.2813 0.7172 0.2813 0.2109 0 0.45 0.0984 0.5484 0.2109 0.0984 0.1125 0.2391 0.2109 0.3094 0.2109 0.2391 0 1.8984 0.8297 2.0672 1.0406 0.0984 0.1125 0.2672 0.1687 0.3797 0.1266 0.1266 -0.0422 0.3797 0.0422 0.5906 0.1969 0.2109 0.1406 0.6047 0.3516 0.8719 0.4641 0.2672 0.1125 0.5203 0.2391 0.5625 0.2813 0.0422 0.0422 0.2953 0.1687 0.5625 0.2813 0.2672 0.0984 0.6187 0.2953 0.7734 0.4219 0.2531 0.2109 0.6187 0.4219 1.5047 0.8578 0.6187 0.3094 0.9703 0.1687 2.1937 -0.8578 0.1828 -0.1547 0.4219 -0.2813 0.5344 -0.2813 0.1125 0 0.3094 -0.1125 0.45 -0.2531 0.3094 -0.2813 0.6187 -0.4922 1.3359 -0.8719 0.2813 -0.1547 0.5203 -0.3375 0.5203 -0.4078 0 -0.0703 0.2391 -0.2109 0.5344 -0.2953 0.2813 -0.0984 0.6469 -0.2813 0.8016 -0.4078 0.2531 -0.2109 0.9703 -0.6328 1.4766 -0.8719 0.5766 -0.2531 2.2781 -1.125 3.0938 -1.5609 0.5062 -0.2672 0.9984 -0.4641 1.0969 -0.4219 0.0984 0.0281 0.3937 -0.1125 0.6609 -0.3094 0.2531 -0.1969 0.5625 -0.3656 0.6891 -0.3656 0.1125 0 0.2531 -0.0703 0.2953 -0.1406 0.0422 -0.0844 0.2391 -0.1406 0.4219 -0.1406 0.1828 0 0.3797 -0.0703 0.4219 -0.1406 0.0422 -0.0844 0.2391 -0.1406 0.4359 -0.1406 0.1969 0 0.45 -0.0844 0.5625 -0.1969 0.1125 -0.1125 0.5344 -0.2531 0.9562 -0.2953 0.45 -0.0562 0.8016 -0.1828 0.8438 -0.2953 0.0422 -0.1125 0.225 -0.1969 0.4219 -0.1969 0.1969 0 0.3937 -0.0562 0.4359 -0.1406 0.0422 -0.0703 0.3234 -0.1406 0.6187 -0.1406 0.2953 0 0.6187 -0.0844 0.7031 -0.1969 0.0984 -0.1266 0.5906 -0.2391 1.2094 -0.2953 0.5766 -0.0562 1.1109 -0.1828 1.1953 -0.2813 0.0844 -0.0984 0.6047 -0.225 1.1672 -0.2813 0.5625 -0.0562 1.1109 -0.1828 1.2234 -0.2813 0.1266 -0.1125 0.8859 -0.2109 1.9688 -0.2813 1.3781 -0.0844 1.7859 -0.1406 1.9125 -0.3375 0.1547 -0.1969 0.8438 -0.225 7.3687 -0.225 6.4969 0 7.2141 0.0281 7.3687 0.225 0.1266 0.1828 0.5484 0.2531 1.9828 0.3375 1.1531 0.0703 1.9125 0.1687 2.0391 0.2813 0.1125 0.0984 0.7031 0.225 1.3078 0.2813 0.6891 0.0703 1.125 0.1687 1.1672 0.2813 0.0562 0.1125 0.4922 0.225 1.1812 0.2813 0.675 0.0562 1.1812 0.1828 1.2797 0.2953 0.0844 0.1125 0.3656 0.1969 0.6328 0.1969 0.2531 0 0.5062 0.0703 0.5484 0.1406 0.0422 0.0844 0.2391 0.1406 0.4078 0.1406 0.1828 0 0.4078 0.0844 0.4922 0.1969 0.0844 0.1125 0.5062 0.2391 0.9281 0.2953 0.4078 0.0422 0.8297 0.1828 0.9281 0.2953 0.0844 0.1125 0.3375 0.1969 0.5625 0.1969 0.225 0 0.4078 0.0703 0.4078 0.1406 0 0.0844 0.1125 0.1406 0.2672 0.1406 0.1406 0 0.6891 0.225 1.2094 0.4922 0.5203 0.2672 1.0125 0.45 1.0828 0.4078 0.0703 -0.0422 0.2391 0.0141 0.3656 0.1266 0.1266 0.1125 0.5625 0.3656 0.9422 0.5484 0.6047 0.3094 1.2797 0.6469 2.2219 1.1109 0.1266 0.0703 0.3516 0.1828 0.4922 0.2531 0.1266 0.0703 0.3375 0.1687 0.45 0.2109 0.1125 0.0562 0.4078 0.2109 0.6328 0.3656 0.2391 0.1547 0.7031 0.4078 1.0406 0.5625 0.3516 0.1687 0.7172 0.4219 0.8156 0.5625 0.1125 0.1547 0.2953 0.2813 0.3937 0.2813 0.1125 0 0.5766 0.2531 1.0125 0.5625 0.45 0.3094 0.8859 0.5625 0.9844 0.5625 0.0844 0 0.1828 0.0562 0.2109 0.1266 0.1125 0.2953 1.4063 1.1391 1.7719 1.1391 0.4359 0 2.1375 -0.7875 2.1375 -0.9984 0 -0.0703 0.1547 -0.1969 0.3516 -0.2672 0.2109 -0.0844 0.7031 -0.2953 1.1109 -0.4922 0.4078 -0.1969 0.7875 -0.3516 0.8297 -0.3516 0.0562 0 0.225 -0.1266 0.3937 -0.2953 0.1687 -0.1687 0.4078 -0.2672 0.5625 -0.225 0.1687 0.0422 0.3234 -0.0281 0.4078 -0.1828 0.0703 -0.1406 0.3516 -0.2953 0.6328 -0.3375 0.2672 -0.0562 0.4922 -0.1547 0.4922 -0.225 0 -0.0703 0.2531 -0.2109 0.5625 -0.2953 0.3094 -0.0984 0.6328 -0.2531 0.7172 -0.3656 0.0844 -0.0984 0.2813 -0.1828 0.4219 -0.1828 0.1547 0 0.3937 -0.0562 0.5484 -0.1406 0.1547 -0.0703 0.4078 -0.1969 0.5625 -0.2813 0.1547 -0.0703 0.45 -0.1406 0.6609 -0.1406 0.225 0 0.5203 -0.0984 0.6609 -0.2109 0.1547 -0.1125 0.3937 -0.1828 0.5344 -0.1266 0.1406 0.0422 0.3937 -0.0281 0.5625 -0.1406 0.1687 -0.1266 0.5203 -0.225 0.7734 -0.225 0.2391 0 0.4922 -0.0562 0.5344 -0.1406 0.0562 -0.0844 0.8719 -0.1406 1.9688 -0.1406 1.0969 0 1.9125 0.0562 1.9688 0.1406 0.0422 0.0844 0.5203 0.1406 1.0547 0.1406 0.5344 0 1.0125 0.0562 1.0547 0.1406 0.0422 0.0703 0.3234 0.2391 0.6047 0.3656 0.9844 0.4219 1.1812 0.5344 1.5187 0.8578 0.1969 0.1828 0.4219 0.3234 0.5203 0.3234 0.2109 0 1.5047 0.675 1.7859 0.9422 0.4219 0.3797 1.3078 1.0266 1.4203 1.0266 0.0703 0 0.1266 0.1125 0.1266 0.2391 0 0.1266 0.675 0.9141 1.5047 1.7437 0.9562 0.9703 1.5609 1.7016 1.6734 2.025 0.0984 0.2813 0.2953 0.6609 0.4641 0.8297 0.1547 0.1687 0.3797 0.5203 0.4922 0.8016 0.1125 0.2813 0.3094 0.5766 0.4219 0.6891 0.1266 0.0984 0.225 0.2953 0.225 0.45 0 0.1406 0.0984 0.2953 0.2109 0.3375 0.1125 0.0562 0.2109 0.1687 0.2109 0.2813 0 0.1969 0.2813 0.7594 0.4359 0.9 0.0984 0.0844 0.2672 0.7312 0.3656 1.4766 0.0422 0.3094 0.1687 0.6187 0.2672 0.675 0.1125 0.0703 0.1969 0.3375 0.1969 0.6328 0 0.2953 0.0844 0.6187 0.1828 0.7172 0.2109 0.2109 0.1828 3.9234 -0.0422 4.1484 -0.0703 0.0703 -0.1406 0.4641 -0.1406 0.8578 0 0.5203 -0.0844 0.8438 -0.3516 1.2234 -0.1969 0.2813 -0.3516 0.6469 -0.3516 0.8016 0 0.1687 -0.0422 0.2953 -0.0984 0.2953 -0.1125 0 -0.4641 0.6609 -0.4641 0.8719 0 0.0562 -0.1547 0.2531 -0.3516 0.45 -0.1969 0.1969 -0.3516 0.45 -0.3516 0.5766 0 0.1125 -0.0562 0.2109 -0.1266 0.2109 -0.0703 0 -0.1687 0.2109 -0.2109 0.4641 -0.0562 0.3094 -0.3516 0.7172 -0.8578 1.2234 -0.4219 0.4219 -0.7734 0.8297 -0.7734 0.9141 0 0.0844 -0.3516 0.4922 -0.7734 0.9141 -0.4219 0.4219 -0.7734 0.8297 -0.7734 0.9141 0 0.0703 -0.9281 1.0688 -2.0672 2.2078 -1.9266 1.9406 -2.0531 2.0812 -1.8422 2.3203 0.225 0.2531 0.4078 1.1391 0.3937 1.9547 0 0.2531 0.0984 0.5203 0.2109 0.6187 0.1125 0.0984 0.2109 0.3234 0.2109 0.5062 0 0.1687 0.0703 0.3656 0.1406 0.4078 0.0703 0.0422 0.1406 0.2953 0.1406 0.5484 0 0.2672 0.0844 0.5484 0.1969 0.6328 0.1125 0.0984 0.2391 0.5906 0.2953 1.2094 0.0562 0.6187 0.1687 1.1109 0.2953 1.2094 0.1125 0.0984 0.1969 0.4219 0.1969 0.8438 0 0.3656 0.0703 0.7172 0.1406 0.7594 0.0844 0.0422 0.1406 0.2953 0.1406 0.5625 0 0.2672 0.0703 0.5203 0.1406 0.5625 0.0844 0.0422 0.1406 0.3937 0.1406 0.7734 0 0.3797 0.0703 0.7312 0.1406 0.7734 0.0703 0.0422 0.1406 0.4641 0.1406 0.9281 0 0.4641 0.0562 0.8297 0.1406 0.8297 0.0844 0 0.1406 0.3937 0.1406 0.9 0 0.6187 0.0703 0.9422 0.2109 1.0688 0.1687 0.1406 0.2109 0.5344 0.2109 1.9125 0 0.9984 0.0562 1.7578 0.1406 1.8141 0.1969 0.1125 0.1969 5.9344 0 6.0469 -0.0844 0.0562 -0.1406 0.8719 -0.1406 1.9828 0 1.5469 -0.0422 1.9125 -0.2109 1.9688 -0.1687 0.0703 -0.2109 0.3656 -0.2109 1.3922 0 0.7312 -0.0562 1.3641 -0.1406 1.4063 -0.0703 0.0422 -0.1406 0.5625 -0.1406 1.1391 0 0.6047 -0.0562 1.0406 -0.1406 1.0406 -0.0844 0 -0.1406 0.3656 -0.1406 0.8297 0 0.4641 -0.0562 0.8859 -0.1406 0.9281 -0.0703 0.0422 -0.1406 0.4641 -0.1406 0.9281 0 0.4641 -0.0562 0.8297 -0.1406 0.8297 -0.0703 0 -0.1406 0.3094 -0.1406 0.6891 0 0.4078 -0.0844 0.7734 -0.1969 0.8859 -0.1125 0.1266 -0.225 0.7031 -0.2953 1.4906 -0.0562 0.8016 -0.1828 1.3781 -0.2953 1.5047 -0.1125 0.1125 -0.1969 0.4781 -0.1969 0.9 0 0.3797 -0.0562 0.7453 -0.1406 0.7875 -0.0703 0.0422 -0.1406 0.3656 -0.1406 0.6891 0 0.3797 -0.0844 0.675 -0.2109 0.7875 -0.1125 0.0984 -0.2109 0.2531 -0.2109 0.3516 0 0.0984 0.0984 0.2531 0.2109 0.3516 0.1406 0.1125 0.2109 0.4359 0.2109 0.9984 0 0.45 0.0703 0.8578 0.1547 0.9141 0.0984 0.0562 0.1406 0.4078 0.0984 0.9281 -0.0562 0.675 -0.0141 0.8578 0.1828 0.9562 0.1969 0.1125 0.2531 0.4641 0.3375 2.0953 0.0703 1.4063 0.1547 2.025 0.2953 2.1375 0.1406 0.1125 0.1969 0.4922 0.1969 1.2656 0 0.6047 0.0703 1.1391 0.1406 1.1812 0.0844 0.0422 0.1406 0.5906 0.1406 1.1953 0 0.6047 0.0703 1.1531 0.1406 1.1953 0.0844 0.0422 0.1406 0.6469 0.1406 1.3359 0 0.6891 0.0703 1.2937 0.1406 1.3359 0.0844 0.0422 0.1406 0.7312 0.1406 1.5469 0 0.8156 0.0562 1.5047 0.1406 1.5469 0.0844 0.0422 0.1406 0.7172 0.1406 1.5328 0 1.0969 0.0562 1.5047 0.1969 1.6172 0.1406 0.1266 0.225 0.6047 0.2813 1.6031 0.0422 0.7875 0.1125 2.0953 0.1687 2.9109 0.0422 0.8156 0.1406 1.5328 0.2109 1.6172 0.0703 0.0703 0.1266 0.8016 0.1266 1.6312 0 0.8578 0.0562 1.5609 0.1406 1.6031 0.0844 0.0562 0.1406 0.8156 0.1406 1.8141 0 1.35 0.0422 1.7719 0.1969 1.9125 0.225 0.1687 0.3375 1.9688 0.4078 5.9766 0.0141 1.2797 0.0844 1.8562 0.2109 1.9406 0.1266 0.0844 0.1687 0.7453 0.1687 2.4609 0.0141 1.8422 0.0562 2.4047 0.2109 2.6156 0.1828 0.2391 0.2109 0.9422 0.1828 4.2609 -0.0141 2.1797 0.0141 4.0219 0.0703 4.0781 0.1406 0.1266 0.1266 1.8703 0 1.8703 -0.0703 0 -0.0984 2.2078 -0.0703 4.9078 0.0281 4.2469 0.0141 4.9219 -0.1828 5.0766 -0.1687 0.1406 -0.2109 0.5203 -0.2109 1.8281 0 0.9141 -0.0422 1.7578 -0.0844 1.8844 -0.0844 0.2109 -5.7516 0.225 -62.9016 0.225 -34.5516 0 -62.8734 -0.0422 -62.9156 -0.0984z"/>
  </g>
  <g id="layer102" fill="#5cbdad" stroke="none">
    <path
      d="M4.7391 168.6516 c-0.0562 -0.0422 -0.0984 -0.8719 -0.0984 -1.8141 0 -0.9984 -0.0562 -1.7578 -0.1406 -1.8141 -0.0844 -0.0562 -0.1406 -1.8422 -0.1406 -4.9219 0 -4.1484 -0.0281 -4.8375 -0.2109 -4.9078 -0.2953 -0.1125 -0.2953 -1.9406 0 -2.25 0.1828 -0.1687 0.2109 -0.8578 0.2109 -4.3594 0 -2.6859 0.0562 -4.1625 0.1406 -4.1625 0.0844 0 0.1406 -0.8859 0.1406 -2.3766 0 -1.4484 0.0562 -2.4188 0.1406 -2.475 0.0844 -0.0562 0.1406 -0.8859 0.1406 -2.0391 0 -1.35 0.0562 -1.9688 0.1687 -1.9969 0.1125 -0.0422 0.1547 -0.6047 0.1266 -1.8984 -0.0281 -1.1953 0.0141 -1.8703 0.1125 -1.9406 0.0984 -0.0562 0.1547 -0.7453 0.1547 -1.8141 0 -1.3078 0.0422 -1.7719 0.1969 -1.8984 0.1406 -0.1266 0.2109 -0.9 0.2953 -3.2484 0.0703 -2.3484 0.1406 -3.1219 0.2813 -3.2062 0.1406 -0.0703 0.2109 -0.5766 0.2672 -1.6453 0.1687 -3.4172 0.2531 -4.2188 0.4359 -4.4297 0.1266 -0.1547 0.2109 -1.0125 0.2813 -2.8828 0.0703 -1.8703 0.1547 -2.7422 0.2813 -2.8828 0.1266 -0.1547 0.1547 -0.5062 0.1125 -1.1953 -0.0562 -0.8016 -0.0281 -1.0266 0.1547 -1.1812 0.1687 -0.1406 0.225 -0.45 0.225 -1.3641 0 -0.6891 0.0562 -1.1812 0.1406 -1.1812 0.0844 0 0.1406 -0.45 0.1406 -1.0547 0 -0.5766 0.0562 -1.0547 0.1125 -1.0547 0.0562 0 0.0844 -0.4359 0.0562 -0.9844 -0.0422 -0.8016 -0.0141 -0.9984 0.1687 -1.0688 0.1687 -0.0703 0.225 -0.2813 0.225 -0.9 0 -0.4641 0.0703 -0.8719 0.1406 -0.9141 0.0844 -0.0422 0.1406 -0.4922 0.1406 -0.9984 0 -0.5062 0.0562 -0.9 0.1406 -0.9 0.1828 0 0.1828 -0.8016 0 -0.9141 -0.0844 -0.0422 -0.1406 -0.3656 -0.1406 -0.7031 0 -0.3375 -0.0703 -0.6609 -0.1406 -0.7031 -0.0844 -0.0422 -0.1406 -0.3937 -0.1406 -0.7594 0 -0.45 -0.0703 -0.7453 -0.225 -0.8719 -0.1406 -0.1125 -0.1969 -0.3656 -0.1828 -0.7734 0.0281 -0.3375 0 -0.6469 -0.0562 -0.7031 -0.0562 -0.0562 -0.0984 -0.4078 -0.0984 -0.7734 0 -0.3656 -0.0703 -0.7172 -0.1406 -0.7594 -0.0844 -0.0422 -0.1406 -0.3937 -0.1406 -0.7594 0 -0.45 -0.0703 -0.7453 -0.225 -0.8719 -0.1687 -0.1406 -0.1969 -0.3234 -0.1266 -0.8016 0.0703 -0.45 0.0422 -0.675 -0.1125 -0.8438 -0.225 -0.2391 -0.3656 -1.3922 -0.3656 -2.925 0 -0.5906 -0.0703 -0.9141 -0.225 -1.0406 -0.1547 -0.1406 -0.2109 -0.4781 -0.2109 -1.4906 0 -0.7172 -0.0562 -1.35 -0.1406 -1.3922 -0.0844 -0.0562 -0.1406 -0.8438 -0.1406 -1.8844 0 -1.4344 -0.0422 -1.8422 -0.2109 -1.9828 -0.3094 -0.2531 -0.3094 -5.9344 0 -6.1875 0.1687 -0.1406 0.2109 -0.5344 0.2109 -1.9125 0 -0.9984 0.0562 -1.7578 0.1406 -1.8141 0.0844 -0.0422 0.1406 -0.45 0.1406 -0.9 0 -0.5203 0.0703 -0.8859 0.1969 -0.9844 0.1125 -0.0984 0.225 -0.6609 0.2813 -1.5891 0.0703 -0.9422 0.1687 -1.5187 0.3094 -1.6734 0.1266 -0.1406 0.1687 -0.3656 0.1125 -0.6328 -0.0562 -0.2953 -0.0141 -0.4781 0.1406 -0.6047 0.1406 -0.1266 0.225 -0.4078 0.225 -0.8016 0 -0.3234 0.0703 -0.6469 0.1406 -0.6891 0.0844 -0.0422 0.1406 -0.3656 0.1406 -0.7031 0 -0.3375 0.0562 -0.6469 0.1266 -0.6891 0.0703 -0.0422 0.0984 -0.2109 0.0562 -0.3656 -0.0422 -0.1547 0.0281 -0.4359 0.1547 -0.6328 0.1266 -0.1828 0.225 -0.5344 0.225 -0.7594 0 -0.225 0.0703 -0.4641 0.1406 -0.5062 0.0844 -0.0422 0.1406 -0.2391 0.1406 -0.4219 0 -0.1828 0.0562 -0.3797 0.1406 -0.4219 0.0703 -0.0422 0.1406 -0.3234 0.1406 -0.6187 0 -0.3094 0.0844 -0.6187 0.2109 -0.7172 0.1266 -0.0984 0.1687 -0.3094 0.1266 -0.5484 -0.0562 -0.2672 0 -0.4641 0.1547 -0.6328 0.3234 -0.3234 0.2391 -0.4359 -2.025 -2.7281 -1.0125 -1.0266 -1.8422 -1.9266 -1.8422 -1.9969 0 -0.0703 -0.3094 -0.3937 -0.7031 -0.7312 -0.3797 -0.3375 -0.7031 -0.7031 -0.7031 -0.8438 0 -0.1266 -0.2953 -0.5344 -0.6609 -0.9141 -0.8156 -0.8297 -1.2375 -1.4203 -1.3641 -1.9125 -0.0422 -0.2109 -0.1969 -0.4922 -0.3375 -0.6328 -0.3656 -0.3797 -0.7312 -0.9844 -0.7312 -1.2234 0 -0.1125 -0.0562 -0.2109 -0.1125 -0.2109 -0.0703 0 -0.2109 -0.2672 -0.3234 -0.5906 -0.0984 -0.3375 -0.2672 -0.6609 -0.3516 -0.7453 -0.1828 -0.1406 -0.3234 -1.1109 -0.4078 -2.7984 -0.0141 -0.5203 -0.1125 -1.0266 -0.1969 -1.1109 -0.2109 -0.2109 -0.1969 -0.9 0.0141 -0.9703 0.1125 -0.0422 0.1687 -0.2531 0.1406 -0.5625 -0.0281 -0.2813 0.0141 -0.5484 0.0984 -0.6047 0.0844 -0.0422 0.1547 -0.3234 0.1547 -0.6328 0 -0.3375 0.0703 -0.5625 0.2109 -0.6187 0.1406 -0.0422 0.2109 -0.2672 0.2109 -0.6328 0 -0.3094 0.0703 -0.6047 0.1406 -0.6469 0.0844 -0.0422 0.1406 -0.2672 0.1406 -0.4922 0 -0.2109 0.0422 -0.4219 0.1125 -0.45 0.0562 -0.0141 0.2531 -0.3516 0.4359 -0.7453 0.1969 -0.3797 0.4922 -0.8719 0.675 -1.0688 0.1828 -0.1969 0.3234 -0.4219 0.2953 -0.4922 -0.0422 -0.1406 0.6469 -1.2516 0.8719 -1.3922 0.0703 -0.0422 0.1406 -0.2109 0.1406 -0.3656 0 -0.1406 0.0703 -0.2672 0.1406 -0.2672 0.0844 0 0.1406 -0.0844 0.1406 -0.1828 0 -0.0844 0.6891 -0.9 1.5469 -1.7859 0.8438 -0.8859 1.5469 -1.6875 1.5469 -1.7719 0 -0.0703 0.2531 -0.3234 0.5766 -0.5625 0.3094 -0.225 0.7453 -0.5484 0.9703 -0.7172 0.2109 -0.1828 0.45 -0.3234 0.5344 -0.3234 0.0703 0 0.2109 -0.0984 0.3094 -0.2109 0.0984 -0.1125 0.2953 -0.2109 0.4359 -0.2109 0.1406 0 0.4781 -0.1828 0.7312 -0.4219 0.2672 -0.225 0.5484 -0.4219 0.6187 -0.4219 0.1828 0 1.3781 -0.6047 1.6594 -0.8438 0.1406 -0.1125 0.4922 -0.1547 1.0688 -0.1125 0.6328 0.0422 0.8719 0.0141 0.9281 -0.1266 0.0844 -0.225 3.9094 -0.2672 4.05 -0.0422 0.0422 0.0844 0.2953 0.1406 0.5484 0.1406 0.2672 0 0.5484 0.0984 0.6469 0.2109 0.1125 0.1266 0.3656 0.2109 0.6469 0.1828 0.2672 -0.0141 0.5484 0.0422 0.6469 0.1406 0.0984 0.0984 0.3937 0.1687 0.675 0.1687 0.2672 0 0.6469 0.1266 0.8438 0.2813 0.1969 0.1547 0.5203 0.2813 0.7172 0.2813 0.2109 0 0.45 0.0984 0.5484 0.2109 0.0984 0.1125 0.2391 0.2109 0.3094 0.2109 0.2391 0 1.8984 0.8297 2.0672 1.0406 0.0984 0.1125 0.2672 0.1687 0.3797 0.1266 0.1266 -0.0422 0.3797 0.0422 0.5906 0.1969 0.2109 0.1406 0.6047 0.3516 0.8719 0.4641 0.2672 0.1125 0.5203 0.2391 0.5625 0.2813 0.0422 0.0422 0.2953 0.1687 0.5625 0.2813 0.2672 0.0984 0.6187 0.2953 0.7734 0.4219 0.2531 0.2109 0.6187 0.4219 1.5047 0.8578 0.6187 0.3094 0.9703 0.1687 2.1937 -0.8578 0.1828 -0.1547 0.4219 -0.2813 0.5344 -0.2813 0.1125 0 0.3094 -0.1125 0.45 -0.2531 0.3094 -0.2813 0.6187 -0.4922 1.3359 -0.8719 0.2813 -0.1547 0.5203 -0.3375 0.5203 -0.4078 0 -0.0703 0.2391 -0.2109 0.5344 -0.2953 0.2813 -0.0984 0.6469 -0.2813 0.8016 -0.4078 0.2531 -0.2109 0.9703 -0.6328 1.4766 -0.8719 0.5766 -0.2531 2.2781 -1.125 3.0938 -1.5609 0.5062 -0.2672 0.9984 -0.4641 1.0969 -0.4219 0.0984 0.0281 0.3937 -0.1125 0.6609 -0.3094 0.2531 -0.1969 0.5625 -0.3656 0.6891 -0.3656 0.1125 0 0.2531 -0.0703 0.2953 -0.1406 0.0422 -0.0844 0.2391 -0.1406 0.4219 -0.1406 0.1828 0 0.3797 -0.0703 0.4219 -0.1406 0.0422 -0.0844 0.2391 -0.1406 0.4359 -0.1406 0.1969 0 0.45 -0.0844 0.5625 -0.1969 0.1125 -0.1125 0.5344 -0.2531 0.9562 -0.2953 0.45 -0.0562 0.8016 -0.1828 0.8438 -0.2953 0.0422 -0.1125 0.225 -0.1969 0.4219 -0.1969 0.1969 0 0.3937 -0.0562 0.4359 -0.1406 0.0422 -0.0703 0.3234 -0.1406 0.6187 -0.1406 0.2953 0 0.6187 -0.0844 0.7031 -0.1969 0.0984 -0.1266 0.5906 -0.2391 1.2094 -0.2953 0.5766 -0.0562 1.1109 -0.1828 1.1953 -0.2813 0.0844 -0.0984 0.6047 -0.225 1.1672 -0.2813 0.5625 -0.0562 1.1109 -0.1828 1.2234 -0.2813 0.1266 -0.1125 0.8859 -0.2109 1.9688 -0.2813 1.3781 -0.0844 1.7859 -0.1406 1.9125 -0.3375 0.1547 -0.1969 0.8438 -0.225 7.3687 -0.225 6.4969 0 7.2141 0.0281 7.3687 0.225 0.1266 0.1828 0.5484 0.2531 1.9828 0.3375 1.1531 0.0703 1.9125 0.1687 2.0391 0.2813 0.1125 0.0984 0.7031 0.225 1.3078 0.2813 0.6891 0.0703 1.125 0.1687 1.1672 0.2813 0.0562 0.1125 0.4922 0.225 1.1812 0.2813 0.675 0.0562 1.1812 0.1828 1.2797 0.2953 0.0844 0.1125 0.3656 0.1969 0.6328 0.1969 0.2531 0 0.5062 0.0703 0.5484 0.1406 0.0422 0.0844 0.2391 0.1406 0.4078 0.1406 0.1828 0 0.4078 0.0844 0.4922 0.1969 0.0844 0.1125 0.5062 0.2391 0.9281 0.2953 0.4078 0.0422 0.8297 0.1828 0.9281 0.2953 0.0844 0.1125 0.3375 0.1969 0.5625 0.1969 0.225 0 0.4078 0.0703 0.4078 0.1406 0 0.0844 0.1125 0.1406 0.2672 0.1406 0.1406 0 0.6891 0.225 1.2094 0.4922 0.5203 0.2672 1.0125 0.45 1.0828 0.4078 0.0703 -0.0422 0.2391 0.0141 0.3656 0.1266 0.1266 0.1125 0.5625 0.3656 0.9422 0.5484 0.6047 0.3094 1.2797 0.6469 2.2219 1.1109 0.1266 0.0703 0.3516 0.1828 0.4922 0.2531 0.1266 0.0703 0.3375 0.1687 0.45 0.2109 0.1125 0.0562 0.4078 0.2109 0.6328 0.3656 0.2391 0.1547 0.7031 0.4078 1.0406 0.5625 0.3516 0.1687 0.7172 0.4219 0.8156 0.5625 0.1125 0.1547 0.2953 0.2813 0.3937 0.2813 0.1125 0 0.5766 0.2531 1.0125 0.5625 0.45 0.3094 0.8859 0.5625 0.9844 0.5625 0.0844 0 0.1828 0.0562 0.2109 0.1266 0.1125 0.2953 1.4063 1.1391 1.7719 1.1391 0.4359 0 2.1375 -0.7875 2.1375 -0.9984 0 -0.0703 0.1547 -0.1969 0.3516 -0.2672 0.2109 -0.0844 0.7031 -0.2953 1.1109 -0.4922 0.4078 -0.1969 0.7875 -0.3516 0.8297 -0.3516 0.0562 0 0.225 -0.1266 0.3937 -0.2953 0.1687 -0.1687 0.4078 -0.2672 0.5625 -0.225 0.1687 0.0422 0.3234 -0.0281 0.4078 -0.1828 0.0703 -0.1406 0.3516 -0.2953 0.6328 -0.3375 0.2672 -0.0562 0.4922 -0.1547 0.4922 -0.225 0 -0.0703 0.2531 -0.2109 0.5625 -0.2953 0.3094 -0.0984 0.6328 -0.2531 0.7172 -0.3656 0.0844 -0.0984 0.2813 -0.1828 0.4219 -0.1828 0.1547 0 0.3937 -0.0562 0.5484 -0.1406 0.1547 -0.0703 0.4078 -0.1969 0.5625 -0.2813 0.1547 -0.0703 0.45 -0.1406 0.6609 -0.1406 0.225 0 0.5203 -0.0984 0.6609 -0.2109 0.1547 -0.1125 0.3937 -0.1828 0.5344 -0.1266 0.1406 0.0422 0.3937 -0.0281 0.5625 -0.1406 0.1687 -0.1266 0.5203 -0.225 0.7734 -0.225 0.2391 0 0.4922 -0.0562 0.5344 -0.1406 0.0562 -0.0844 0.8719 -0.1406 1.9688 -0.1406 1.0969 0 1.9125 0.0562 1.9688 0.1406 0.0422 0.0844 0.5203 0.1406 1.0547 0.1406 0.5344 0 1.0125 0.0562 1.0547 0.1406 0.0422 0.0703 0.3234 0.2391 0.6047 0.3656 0.9844 0.4219 1.1812 0.5344 1.5187 0.8578 0.1969 0.1828 0.4219 0.3234 0.5203 0.3234 0.2109 0 1.5047 0.675 1.7859 0.9422 0.4219 0.3797 1.3078 1.0266 1.4203 1.0266 0.0703 0 0.1266 0.1125 0.1266 0.2391 0 0.1266 0.675 0.9141 1.5047 1.7437 0.9562 0.9703 1.5609 1.7016 1.6734 2.025 0.0984 0.2813 0.2953 0.6609 0.4641 0.8297 0.1547 0.1687 0.3797 0.5203 0.4922 0.8016 0.1125 0.2813 0.3094 0.5766 0.4219 0.6891 0.1266 0.0984 0.225 0.2953 0.225 0.45 0 0.1406 0.0984 0.2953 0.2109 0.3375 0.1125 0.0562 0.2109 0.1687 0.2109 0.2813 0 0.1969 0.2813 0.7594 0.4359 0.9 0.0984 0.0844 0.2672 0.7312 0.3656 1.4766 0.0422 0.3094 0.1687 0.6187 0.2672 0.675 0.1125 0.0703 0.1969 0.3375 0.1969 0.6328 0 0.2953 0.0844 0.6187 0.1828 0.7172 0.2109 0.2109 0.1828 3.9234 -0.0422 4.1484 -0.0703 0.0703 -0.1406 0.4641 -0.1406 0.8578 0 0.5203 -0.0844 0.8438 -0.3516 1.2234 -0.1969 0.2813 -0.3516 0.6469 -0.3516 0.8016 0 0.1687 -0.0422 0.2953 -0.0984 0.2953 -0.1125 0 -0.4641 0.6609 -0.4641 0.8719 0 0.0562 -0.1547 0.2531 -0.3516 0.45 -0.1969 0.1969 -0.3516 0.45 -0.3516 0.5766 0 0.1125 -0.0562 0.2109 -0.1266 0.2109 -0.0703 0 -0.1687 0.2109 -0.2109 0.4641 -0.0562 0.3094 -0.3516 0.7172 -0.8578 1.2234 -0.4219 0.4219 -0.7734 0.8297 -0.7734 0.9141 0 0.0844 -0.3516 0.4922 -0.7734 0.9141 -0.4219 0.4219 -0.7734 0.8297 -0.7734 0.9141 0 0.0703 -0.9281 1.0688 -2.0672 2.2078 -1.9266 1.9406 -2.0531 2.0812 -1.8422 2.3203 0.225 0.2531 0.4078 1.1391 0.3937 1.9547 0 0.2531 0.0984 0.5203 0.2109 0.6187 0.1125 0.0984 0.2109 0.3234 0.2109 0.5062 0 0.1687 0.0703 0.3656 0.1406 0.4078 0.0703 0.0422 0.1406 0.2953 0.1406 0.5484 0 0.2672 0.0844 0.5484 0.1969 0.6328 0.1125 0.0984 0.2391 0.5906 0.2953 1.2094 0.0562 0.6187 0.1687 1.1109 0.2953 1.2094 0.1125 0.0984 0.1969 0.4219 0.1969 0.8438 0 0.3656 0.0703 0.7172 0.1406 0.7594 0.0844 0.0422 0.1406 0.2953 0.1406 0.5625 0 0.2672 0.0703 0.5203 0.1406 0.5625 0.0844 0.0422 0.1406 0.3937 0.1406 0.7734 0 0.3797 0.0703 0.7312 0.1406 0.7734 0.0703 0.0422 0.1406 0.4641 0.1406 0.9281 0 0.4641 0.0562 0.8297 0.1406 0.8297 0.0844 0 0.1406 0.3937 0.1406 0.9 0 0.6187 0.0703 0.9422 0.2109 1.0688 0.1687 0.1406 0.2109 0.5344 0.2109 1.9125 0 0.9984 0.0562 1.7578 0.1406 1.8141 0.1969 0.1125 0.1969 5.9344 0 6.0469 -0.0844 0.0562 -0.1406 0.8719 -0.1406 1.9828 0 1.5469 -0.0422 1.9125 -0.2109 1.9688 -0.1687 0.0703 -0.2109 0.3656 -0.2109 1.3922 0 0.7312 -0.0562 1.3641 -0.1406 1.4063 -0.0703 0.0422 -0.1406 0.5625 -0.1406 1.1391 0 0.6047 -0.0562 1.0406 -0.1406 1.0406 -0.0844 0 -0.1406 0.3656 -0.1406 0.8297 0 0.4641 -0.0562 0.8859 -0.1406 0.9281 -0.0703 0.0422 -0.1406 0.4641 -0.1406 0.9281 0 0.4641 -0.0562 0.8297 -0.1406 0.8297 -0.0703 0 -0.1406 0.3094 -0.1406 0.6891 0 0.4078 -0.0844 0.7734 -0.1969 0.8859 -0.1125 0.1266 -0.225 0.7031 -0.2953 1.4906 -0.0562 0.8016 -0.1828 1.3781 -0.2953 1.5047 -0.1125 0.1125 -0.1969 0.4781 -0.1969 0.9 0 0.3797 -0.0562 0.7453 -0.1406 0.7875 -0.0703 0.0422 -0.1406 0.3656 -0.1406 0.6891 0 0.3797 -0.0844 0.675 -0.2109 0.7875 -0.1125 0.0984 -0.2109 0.2531 -0.2109 0.3516 0 0.0984 0.0984 0.2531 0.2109 0.3516 0.1406 0.1125 0.2109 0.4359 0.2109 0.9984 0 0.45 0.0703 0.8578 0.1547 0.9141 0.0984 0.0562 0.1406 0.4078 0.0984 0.9281 -0.0562 0.675 -0.0141 0.8578 0.1828 0.9562 0.1969 0.1125 0.2531 0.4641 0.3375 2.0953 0.0703 1.4063 0.1547 2.025 0.2953 2.1375 0.1406 0.1125 0.1969 0.4922 0.1969 1.2656 0 0.6047 0.0703 1.1391 0.1406 1.1812 0.0844 0.0422 0.1406 0.5906 0.1406 1.1953 0 0.6047 0.0703 1.1531 0.1406 1.1953 0.0844 0.0422 0.1406 0.6469 0.1406 1.3359 0 0.6891 0.0703 1.2937 0.1406 1.3359 0.0844 0.0422 0.1406 0.7312 0.1406 1.5469 0 0.8156 0.0562 1.5047 0.1406 1.5469 0.0844 0.0422 0.1406 0.7172 0.1406 1.5328 0 1.0969 0.0562 1.5047 0.1969 1.6172 0.1406 0.1266 0.225 0.6047 0.2813 1.6031 0.0422 0.7875 0.1125 2.0953 0.1687 2.9109 0.0422 0.8156 0.1406 1.5328 0.2109 1.6172 0.0703 0.0703 0.1266 0.8016 0.1266 1.6312 0 0.8578 0.0562 1.5609 0.1406 1.6031 0.0844 0.0562 0.1406 0.8156 0.1406 1.8141 0 1.35 0.0422 1.7719 0.1969 1.9125 0.225 0.1687 0.3375 1.9688 0.4078 5.9766 0.0141 1.2797 0.0844 1.8562 0.2109 1.9406 0.1266 0.0844 0.1687 0.7453 0.1687 2.4609 0.0141 1.8422 0.0562 2.4047 0.2109 2.6156 0.1828 0.2391 0.2109 0.9422 0.1828 4.2609 -0.0141 2.1797 0.0141 4.0219 0.0703 4.0781 0.1406 0.1266 0.1266 1.8703 0 1.8703 -0.0703 0 -0.0984 2.2078 -0.0703 4.9078 0.0281 4.2469 0.0141 4.9219 -0.1828 5.0766 -0.1687 0.1406 -0.2109 0.5203 -0.2109 1.8281 0 0.9141 -0.0422 1.7578 -0.0844 1.8844 -0.0844 0.2109 -5.7516 0.225 -62.9016 0.225 -34.5516 0 -62.8734 -0.0422 -62.9156 -0.0984z m38.7141 -80.1281 c0.7875 -0.4219 3.4734 -3.6844 4.2188 -5.1328 0.6047 -1.1953 0.3516 -2.0953 -0.7312 -2.5453 -0.3937 -0.1547 -0.5062 -0.1406 -1.1672 0.1969 -0.9422 0.5062 -3.0938 2.3906 -4.0641 3.5578 -1.2375 1.5047 -1.35 2.5313 -0.3937 3.4734 0.8297 0.8016 1.2656 0.9 2.1375 0.45z m49.0641 -0.8438 c0.9562 -0.8156 0.9562 -2.3203 -0.0281 -3.825 -0.7594 -1.1812 -1.9688 -2.3344 -2.6859 -2.5734 -1.0828 -0.3516 -2.3203 0.4359 -2.3766 1.5047 -0.0141 0.5484 0.4922 1.7578 1.0125 2.3625 0.1406 0.1547 0.4781 0.6328 0.7453 1.0547 1.125 1.7156 2.3766 2.2781 3.3328 1.4766z m-54.6047 -3.3187 c0.3797 -0.2391 1.0125 -0.7312 1.4063 -1.0969 0.3937 -0.3516 1.4203 -1.2797 2.2922 -2.0391 1.8703 -1.6594 2.4047 -2.3625 2.4047 -3.15 0 -0.45 -0.0844 -0.6328 -0.4219 -0.9141 -0.225 -0.1969 -0.5484 -0.4078 -0.7031 -0.45 -0.4219 -0.1406 -1.4484 0.2531 -3.1641 1.2094 -4.05 2.25 -5.6812 4.2609 -4.6969 5.8359 0.7031 1.1531 1.6734 1.3641 2.8828 0.6047z m59.6391 0.1266 c0.9141 -0.4078 1.4344 -1.1391 1.4625 -2.0391 0.0562 -1.35 -1.1812 -2.7281 -3.4312 -3.8109 -2.2922 -1.0969 -2.5031 -1.1812 -3.5719 -1.2516 -0.9844 -0.0844 -1.0266 -0.0703 -1.4344 0.3516 -0.3516 0.3516 -0.4359 0.5484 -0.4359 1.0688 0 0.8719 0.1687 1.2375 0.9422 2.0812 0.675 0.7172 1.7016 1.4344 3.4734 2.4469 1.7016 0.9703 2.0531 1.1672 2.3062 1.2234 0.1266 0.0422 0.2531 0.0703 0.2672 0.0844 0.0141 0 0.2109 -0.0703 0.4219 -0.1547z m-27.9 -11.4187 c0.5203 -0.1828 1.4063 -0.6328 1.9688 -0.9844 1.1109 -0.6891 4.0359 -2.9953 4.9922 -3.8953 0.5484 -0.5484 0.5906 -0.6328 0.5906 -1.3359 0 -1.1109 -0.45 -1.9406 -1.2656 -2.3484 -0.6328 -0.3094 -0.7031 -0.3094 -7.9453 -0.3516 -4.0219 -0.0281 -7.5234 0 -7.7906 0.0422 -0.7172 0.1406 -1.7719 1.2516 -2.0391 2.1937 -0.1266 0.4078 -0.225 0.8578 -0.225 1.0125 0 0.3937 2.2922 2.5875 3.8391 3.6563 1.4203 0.9844 2.6297 1.6594 3.7969 2.0812 1.0828 0.3797 2.8547 0.3516 4.0781 -0.0703z m27.3937 -3.1922 c7.3969 -0.7453 13.4578 -4.7672 16.3687 -10.8562 1.2516 -2.6016 1.6875 -4.8094 1.575 -7.9031 -0.1266 -3.3609 -0.9703 -5.9906 -2.8406 -8.7891 -3.7547 -5.6109 -10.8562 -9.0422 -17.8734 -8.6625 -5.4703 0.2953 -10.1812 2.3203 -13.7672 5.9203 -6.4547 6.4547 -6.9891 16.0172 -1.2797 23.0625 4.0922 5.0625 11.1234 7.9172 17.8172 7.2281z m-53.8031 -0.1266 c6.6656 -0.7734 12.1219 -4.1062 15.2859 -9.3656 4.7531 -7.8891 2.3484 -17.8734 -5.625 -23.2734 -3.7687 -2.5734 -9.0844 -3.9516 -13.5422 -3.5156 -8.775 0.8438 -15.7219 6.3281 -17.6484 13.9219 -1.3641 5.3578 -0.1547 10.6172 3.4734 15.1172 4.05 5.0203 11.3203 7.875 18.0562 7.1156z"/>
    <path
      d="M93.1641 64.9688 c-1.9828 -0.3094 -5.4141 -1.7156 -7.0172 -2.8547 -0.8438 -0.6187 -2.2922 -2.0109 -3.2062 -3.0938 -0.8156 -0.9844 -1.9547 -3.2766 -2.3625 -4.7391 -0.8578 -3.1641 0.1125 -6.9047 2.6156 -9.9844 0.9141 -1.1391 1.575 -1.7719 1.7016 -1.6453 0.0422 0.0562 0.0141 1.3219 -0.0703 2.8125 -0.1125 1.8281 -0.1125 3.0094 -0.0281 3.6844 0.5484 3.8391 2.6859 6.9469 5.9344 8.5781 1.7016 0.8438 2.9531 1.1109 5.0062 1.0266 1.8422 -0.0844 3.2344 -0.4922 4.7531 -1.3922 1.0406 -0.6047 2.9391 -2.5031 3.5437 -3.5297 1.0688 -1.8 1.7156 -4.1062 1.7156 -6.0891 0 -0.7594 -0.5766 -4.6266 -0.7875 -5.3016 -0.0422 -0.1406 -0.0281 -0.2531 0.0422 -0.2531 0.1547 0 2.1234 2.025 2.7 2.7703 0.6187 0.8016 1.6031 2.8406 1.9969 4.1203 0.4641 1.4906 0.4641 3.9656 0 5.4844 -1.2516 4.0641 -4.2328 7.3125 -8.3672 9.0984 -2.1375 0.9281 -3.6703 1.3078 -5.6391 1.3781 -0.9281 0.0281 -2.0672 0 -2.5313 -0.0703z"/>
    <path
      d="M38.6016 64.7719 c-2.2359 -0.5062 -5.0906 -1.7297 -6.6094 -2.8125 -0.9844 -0.7172 -2.7984 -2.5313 -3.5297 -3.5578 -0.8297 -1.1391 -1.6594 -2.9391 -2.0391 -4.4016 -0.2531 -1.0125 -0.2953 -1.4344 -0.225 -2.7422 0.1125 -2.0812 0.8719 -4.3031 2.0812 -6.0609 0.4641 -0.6891 2.3484 -2.7281 2.5031 -2.7281 0.0422 0 0.0281 0.8438 -0.0281 1.8703 -0.1828 2.9812 -0.0562 5.4562 0.3656 6.7359 2.0953 6.5109 8.8875 9.4641 14.7797 6.3984 1.4203 -0.7312 3.2906 -2.5172 4.1344 -3.9656 1.5187 -2.6016 1.8844 -5.2594 1.2375 -9 -0.2109 -1.1531 -0.3937 -2.1937 -0.4359 -2.2781 -0.1406 -0.4078 0.2391 -0.1125 1.35 1.0547 1.4063 1.4484 1.9547 2.2078 2.6016 3.6281 0.8016 1.7297 1.0547 2.6719 1.1391 4.3453 0.0703 1.3078 0.0281 1.7297 -0.225 2.7422 -0.3516 1.3641 -1.2937 3.4031 -2.0391 4.4297 -0.7172 0.9984 -2.5453 2.8125 -3.5437 3.5297 -1.1812 0.8438 -3.4734 1.9125 -5.2594 2.4609 -1.2937 0.3797 -1.7297 0.45 -3.4453 0.4922 -1.3359 0.0281 -2.2359 -0.0141 -2.8125 -0.1406z"/>
  </g>

</svg>
