<!DOCTYPE svg PUBLIC "-//W3C//DTD SVG 20010904//EN"
  "http://www.w3.org/TR/2001/REC-SVG-20010904/DTD/svg10.dtd">
<svg xmlns="http://www.w3.org/2000/svg" width="135px" height="169px" id="warrior"
     viewBox="0 0 135 169" preserveAspectRatio="xMidYMid meet">
  <g id="layer101" fill="#000000" stroke="none">
    <path
      d="M4.0781 163.8 c0 -5.5687 0.1828 -11.7281 0.5062 -16.3547 0.1266 -1.7016 0.2672 -3.8812 0.3375 -4.8516 0.1828 -2.7281 0.9281 -9.5484 1.4203 -12.8672 0.1406 -0.9984 0.3234 -2.3062 0.3937 -2.8828 0.3094 -2.475 1.3641 -8.3391 2.7703 -15.4688 1.3781 -6.9891 1.4344 -7.2844 1.6734 -8.8594 0.3375 -2.3344 0.4078 -3.6422 0.225 -4.5281 -0.0984 -0.4641 -0.7734 -2.0531 -1.5609 -3.6844 -2.2781 -4.6828 -3.3187 -7.5375 -4.1062 -11.2641 -0.2953 -1.4484 -0.3234 -1.8703 -0.3234 -6.3281 0.0141 -4.6828 0.0141 -4.8234 0.3937 -6.5391 1.7156 -7.8187 5.2172 -15.9187 8.6906 -20.1094 1.4906 -1.7859 2.3906 -4.6969 3.7828 -12.0938 1.4625 -7.7625 2.7562 -12.8109 4.4297 -17.3109 0.1266 -0.3375 0.3516 -0.9281 0.4922 -1.3219 3.0234 -8.2688 7.3125 -16.2563 9.8719 -18.3937 1.2516 -1.0547 2.1094 -0.8438 4.6125 1.1391 1.4625 1.1531 5.5547 5.1891 7.875 7.7625 0.8016 0.8859 1.7437 1.9406 2.0953 2.3203 0.3656 0.3937 1.8984 2.0672 3.4031 3.7266 4.8516 5.3297 6.975 7.3266 8.4937 8.0297 2.0812 0.9703 6.6516 1.3078 12.7969 0.9562 1.9688 -0.1125 2.8125 -0.2109 3.2344 -0.3937 1.7437 -0.7594 4.5 -3.6281 12.0234 -12.4734 6.3984 -7.5094 9.6469 -10.8422 11.5172 -11.7984 1.6875 -0.8578 3.8812 1.1672 7.0734 6.525 2.1937 3.6844 4.1625 7.875 6.1031 13.0078 0.6187 1.6312 2.0812 6.2156 2.7984 8.8031 0.3797 1.4063 1.5891 6.1594 1.7156 6.8203 0.0844 0.3937 0.2813 1.2797 0.4359 1.9688 0.5344 2.2781 0.8297 3.6141 1.4203 6.2578 0.3234 1.4344 0.6469 2.8406 0.7312 3.1359 0.0703 0.2813 0.8719 1.8 1.7719 3.375 5.1891 9.0703 7.8609 15.6234 8.6906 21.1922 0.5906 4.0641 0.2672 8.0859 -1.0688 13.05 -0.5062 1.8984 -2.25 6.9609 -2.9391 8.5359 -1.1531 2.6437 -2.3906 6.3984 -2.3906 7.2703 0 0.9984 0.7172 5.3016 1.4063 8.4094 0.3516 1.575 0.6891 3.3047 1.4766 7.3828 0.3516 1.8562 0.8016 4.1344 0.9844 5.0625 0.1828 0.9281 0.4641 2.5734 0.6328 3.6563 0.1547 1.0828 0.3797 2.5031 0.4922 3.1641 0.6609 3.9656 1.4063 10.0266 1.8984 15.5672 0.2672 2.9953 0.2672 3.5578 -0.0141 3.5578 -0.0703 0 -0.1266 0.225 -0.1266 0.4922 0 0.3234 0.0703 0.4922 0.1969 0.4922 0.2391 0 0.2953 0.5766 0.5766 5.625 0.1266 2.1937 0.2109 6.075 0.2109 9.4641 l-0.0141 5.7234 -63.5484 0 -63.5625 0 0 -4.95z"/>
  </g>
  <g id="layer102" fill="#d26024" stroke="none">
    <path
      d="M4.0781 163.8 c0 -5.5687 0.1828 -11.7281 0.5062 -16.3547 0.1266 -1.7016 0.2672 -3.8812 0.3375 -4.8516 0.1828 -2.7281 0.9281 -9.5484 1.4203 -12.8672 0.1406 -0.9984 0.3234 -2.3062 0.3937 -2.8828 0.3094 -2.475 1.3641 -8.3391 2.7703 -15.4688 1.3781 -6.9891 1.4344 -7.2844 1.6734 -8.8594 0.3375 -2.3344 0.4078 -3.6422 0.225 -4.5281 -0.0984 -0.4641 -0.7734 -2.0531 -1.5609 -3.6844 -2.2781 -4.6828 -3.3187 -7.5375 -4.1062 -11.2641 -0.2953 -1.4484 -0.3234 -1.8703 -0.3234 -6.3281 0.0141 -4.6828 0.0141 -4.8234 0.3937 -6.5391 1.7156 -7.8187 5.2172 -15.9187 8.6906 -20.1094 1.4906 -1.7859 2.3906 -4.6969 3.7828 -12.0938 1.4625 -7.7625 2.7562 -12.8109 4.4297 -17.3109 0.1266 -0.3375 0.3516 -0.9281 0.4922 -1.3219 3.0234 -8.2688 7.3125 -16.2563 9.8719 -18.3937 1.2516 -1.0547 2.1094 -0.8438 4.6125 1.1391 1.4625 1.1531 5.5547 5.1891 7.875 7.7625 0.8016 0.8859 1.7437 1.9406 2.0953 2.3203 0.3656 0.3937 1.8984 2.0672 3.4031 3.7266 4.8516 5.3297 6.975 7.3266 8.4937 8.0297 2.0812 0.9703 6.6516 1.3078 12.7969 0.9562 1.9688 -0.1125 2.8125 -0.2109 3.2344 -0.3937 1.7437 -0.7594 4.5 -3.6281 12.0234 -12.4734 6.3984 -7.5094 9.6469 -10.8422 11.5172 -11.7984 1.6875 -0.8578 3.8812 1.1672 7.0734 6.525 2.1937 3.6844 4.1625 7.875 6.1031 13.0078 0.6187 1.6312 2.0812 6.2156 2.7984 8.8031 0.3797 1.4063 1.5891 6.1594 1.7156 6.8203 0.0844 0.3937 0.2813 1.2797 0.4359 1.9688 0.5344 2.2781 0.8297 3.6141 1.4203 6.2578 0.3234 1.4344 0.6469 2.8406 0.7312 3.1359 0.0703 0.2813 0.8719 1.8 1.7719 3.375 5.1891 9.0703 7.8609 15.6234 8.6906 21.1922 0.5906 4.0641 0.2672 8.0859 -1.0688 13.05 -0.5062 1.8984 -2.25 6.9609 -2.9391 8.5359 -1.1531 2.6437 -2.3906 6.3984 -2.3906 7.2703 0 0.9984 0.7172 5.3016 1.4063 8.4094 0.3516 1.575 0.6891 3.3047 1.4766 7.3828 0.3516 1.8562 0.8016 4.1344 0.9844 5.0625 0.1828 0.9281 0.4641 2.5734 0.6328 3.6563 0.1547 1.0828 0.3797 2.5031 0.4922 3.1641 0.6609 3.9656 1.4063 10.0266 1.8984 15.5672 0.2672 2.9953 0.2672 3.5578 -0.0141 3.5578 -0.0703 0 -0.1266 0.225 -0.1266 0.4922 0 0.3234 0.0703 0.4922 0.1969 0.4922 0.2391 0 0.2953 0.5766 0.5766 5.625 0.1266 2.1937 0.2109 6.075 0.2109 9.4641 l-0.0141 5.7234 -63.5484 0 -63.5625 0 0 -4.95z m58.7813 -51.7078 c1.3922 -0.2531 1.8562 -0.3937 3.8672 -1.1391 0.7031 -0.2531 1.0547 -0.2953 2.1234 -0.2531 0.7172 0.0281 1.3781 0.1266 1.4766 0.1969 0.4219 0.3234 2.4891 0.9422 3.7687 1.125 3.3469 0.4781 5.1047 0.1547 6.4969 -1.1672 0.4359 -0.4219 0.9562 -1.0547 1.1531 -1.4203 1.0125 -1.8984 1.1812 -2.2641 1.3359 -2.8406 0.6187 -2.4609 0.6609 -2.7984 0.6609 -4.5844 0 -1.7859 -0.0141 -1.8562 -0.3937 -2.4047 -0.4359 -0.6469 -0.8859 -0.8859 -1.6875 -0.9141 -0.5625 -0.0141 -0.9844 0.2672 -1.2937 0.8719 -0.225 0.4359 -0.4359 1.7719 -0.6469 4.1062 -0.1547 1.7297 -0.1828 1.8281 -0.7453 2.7281 -0.4078 0.6469 -0.8297 1.0969 -1.4063 1.5187 -0.7875 0.5484 -0.8719 0.5766 -1.8984 0.5766 -1.2937 0 -1.8281 -0.225 -2.9531 -1.2797 -1.4625 -1.35 -1.9406 -2.9953 -2.0109 -6.8766 -0.0422 -2.7422 -0.0141 -2.8547 1.1391 -3.9797 1.7297 -1.6875 3.1078 -4.1062 3.1078 -5.4281 0 -0.8859 -0.2953 -1.3359 -1.1672 -1.8141 -0.5766 -0.2953 -0.7031 -0.3094 -5.2312 -0.3094 -4.4719 0 -4.6687 0.0141 -5.3016 0.3094 -1.6312 0.7453 -1.6172 2.025 0.0422 4.9219 0.2391 0.4078 0.8719 1.1953 1.4203 1.7578 0.9984 1.0406 1.5469 1.8984 1.7297 2.7562 0.0844 0.4219 0.0281 1.2797 -0.3656 4.8094 -0.2531 2.25 -1.125 3.7125 -2.7703 4.6687 -0.7172 0.4078 -0.9141 0.4641 -1.9266 0.4641 -1.0969 0 -1.1531 -0.0141 -1.9828 -0.5906 -0.675 -0.4641 -0.9703 -0.7875 -1.35 -1.4766 -0.5766 -1.0547 -0.7734 -1.9547 -0.9422 -4.4156 -0.1406 -1.9266 -0.2813 -2.4047 -0.8859 -2.9672 -0.3516 -0.3234 -0.4922 -0.3656 -1.2234 -0.3375 -0.675 0.0141 -1.4766 0.9 -1.7156 1.8703 -0.225 0.9422 0.0562 3.9656 0.5062 5.3156 0.1125 0.3516 0.225 0.8016 0.2672 1.0266 0.0562 0.3516 0.2953 0.8156 1.1953 2.4188 0.4219 0.7453 1.7719 2.1234 2.3766 2.4047 0.6469 0.3094 2.0672 0.5906 2.9812 0.6047 0.4219 0 1.4344 -0.1125 2.25 -0.2531z m-18.9141 -18.3516 c1.7297 -0.1969 2.925 -0.4781 3.9797 -0.9422 0.3234 -0.1406 0.7031 -0.2672 0.8438 -0.2672 0.3094 0 2.3203 -0.7172 2.9812 -1.0547 0.2672 -0.1406 1.0125 -0.6047 1.6594 -1.0406 0.6469 -0.4359 1.2797 -0.8438 1.4063 -0.9281 0.1266 -0.0703 0.5625 -0.4219 0.9562 -0.7734 0.3797 -0.3516 1.2797 -1.125 1.9828 -1.7297 2.3906 -2.0531 3.6 -3.5297 4.6406 -5.6391 0.5344 -1.0969 0.6047 -1.3781 0.6047 -2.2078 0 -1.4625 -0.3375 -1.9547 -2.8687 -4.1062 -0.4359 -0.3797 -1.7859 -1.3359 -3.0094 -2.1375 -1.2094 -0.8016 -2.6156 -1.8281 -3.1219 -2.2922 -0.5062 -0.4641 -1.5469 -1.3641 -2.3203 -1.9969 -1.5187 -1.2516 -2.4188 -2.0953 -4.7109 -4.4156 -0.8156 -0.8297 -2.1375 -2.0812 -2.9531 -2.7984 -0.8016 -0.7031 -2.9812 -2.7844 -4.8516 -4.6125 -3.2766 -3.2203 -4.5422 -4.4156 -5.5406 -5.2734 -0.2672 -0.225 -0.8859 -0.7734 -1.3922 -1.2094 -1.5469 -1.4063 -3.6422 -2.2078 -5.0203 -1.9547 -1.0547 0.2109 -1.6734 0.5766 -2.7422 1.6875 -1.2937 1.3219 -2.4188 3.1922 -4.9781 8.2688 -0.9 1.7859 -1.0969 2.3062 -1.5609 3.9797 -0.1828 0.6609 -0.4922 1.6594 -0.6891 2.2219 -0.45 1.3219 -0.6328 2.6578 -0.7312 5.3719 -0.0844 1.9266 0.0562 4.4156 0.2953 5.6953 0.1687 0.8859 1.7016 4.4156 2.4469 5.625 1.0547 1.7297 1.5891 2.4609 2.8969 4.0078 1.3781 1.6312 1.5469 1.8 2.9391 2.9531 3.6422 3.0234 4.6125 3.6141 6.7359 4.1062 0.7172 0.1547 1.6875 0.4078 2.1516 0.5484 0.4781 0.1406 1.3359 0.3234 1.8984 0.4078 0.5766 0.0844 1.2937 0.2109 1.6031 0.2953 0.3094 0.0703 1.4203 0.1828 2.4609 0.2531 1.0406 0.0562 1.9969 0.1266 2.1094 0.1266 0.1125 0.0141 0.9703 -0.0562 1.8984 -0.1687z m52.2422 -0.0562 c0.8859 -0.0984 1.8984 -0.2672 2.25 -0.3797 0.3516 -0.1125 0.8016 -0.1969 0.9844 -0.1969 0.1969 0.0141 0.7031 -0.1125 1.125 -0.2813 0.4219 -0.1547 0.9281 -0.2953 1.0969 -0.2953 0.1828 0 0.6609 -0.0984 1.0547 -0.2109 0.4078 -0.1125 0.8859 -0.225 1.0828 -0.2391 0.3375 -0.0422 1.3219 -0.4641 2.1797 -0.9281 0.7312 -0.3937 2.7844 -1.9969 3.7969 -2.9672 0.5484 -0.5203 1.2094 -1.125 1.4766 -1.3359 0.7453 -0.5766 3.2766 -3.7687 4.2469 -5.3578 0.7594 -1.2234 1.8422 -3.4734 2.3344 -4.8516 0.7594 -2.1516 1.0969 -5.9203 0.7172 -7.9594 -0.0984 -0.45 -0.1687 -0.9281 -0.1547 -1.0406 0 -0.675 -0.9844 -4.3453 -1.5891 -5.9063 -0.1125 -0.2672 -0.2391 -0.6469 -0.2953 -0.8438 -0.0422 -0.1969 -0.5906 -1.3922 -1.2094 -2.6719 -2.1094 -4.3734 -4.2469 -7.7625 -5.5687 -8.8594 -1.4625 -1.1953 -3.8109 -1.3641 -5.3016 -0.3656 -0.8016 0.5344 -3.3328 2.7984 -4.8234 4.3172 -0.8297 0.8438 -1.7016 1.6734 -1.9547 1.8562 -1.1953 0.8719 -3.5297 3.0375 -6.8625 6.3 -2.0109 1.9969 -4.0359 3.9375 -4.5 4.3453 -0.4641 0.3937 -1.2234 1.0969 -1.6875 1.5328 -2.4328 2.3484 -5.1609 4.5844 -7.0734 5.8078 -1.9266 1.2234 -4.4156 3.3469 -5.0625 4.3172 -0.5344 0.8156 -0.5625 0.9 -0.5344 1.8 0.0703 1.6453 0.7734 2.9109 2.9812 5.3156 0.4219 0.4641 1.0969 1.2375 1.5047 1.7016 1.0125 1.1953 3.9375 3.4734 6.2859 4.8937 0.8859 0.5484 1.575 0.8438 3.0938 1.35 0.4219 0.1406 1.2375 0.4359 1.8141 0.6328 1.9547 0.6891 5.1469 0.8719 8.5922 0.5203z"/>
    <path
      d="M39.2344 88.0172 c-2.3484 -0.4781 -3.8391 -0.8578 -4.6406 -1.1812 -0.4219 -0.1687 -0.9562 -0.3656 -1.1953 -0.4078 -0.225 -0.0562 -1.2797 -0.5203 -2.3203 -1.0406 -1.7578 -0.8719 -1.9969 -1.0266 -3.4172 -2.4188 -1.6594 -1.5891 -2.8687 -3.0094 -3.5859 -4.1766 -0.4781 -0.8016 -1.2937 -2.4891 -1.2937 -2.6859 0 -0.0703 -0.1266 -0.4078 -0.2672 -0.7453 -0.1547 -0.3375 -0.3094 -0.7734 -0.3516 -0.9703 -0.0281 -0.1969 -0.1969 -0.7312 -0.3516 -1.1812 -0.2391 -0.6891 -0.2953 -1.1672 -0.2953 -2.8125 0 -3.6281 0.2672 -5.5406 0.9984 -7.2281 0.1547 -0.3234 0.2672 -0.675 0.2672 -0.7734 0 -0.3234 0.6328 -1.7297 1.3219 -2.9109 0.3797 -0.6609 0.9 -1.6031 1.1812 -2.1094 1.1953 -2.2641 2.4609 -2.7281 4.1766 -1.5469 0.7031 0.4922 4.7953 4.6547 5.3016 5.4141 0.3375 0.4922 0.3937 0.7031 0.3937 1.5891 0 0.7031 -0.0844 1.2375 -0.2672 1.6875 -0.7594 1.8141 -1.3219 3.5719 -1.4484 4.4578 -0.0703 0.5484 -0.1125 2.2781 -0.0844 3.8672 l0.0422 2.8828 0.4641 0.9141 c0.9984 2.025 2.3766 2.8406 5.2453 3.1641 1.2797 0.1406 4.6406 -0.5344 6.4547 -1.3078 0.2672 -0.1125 1.1531 -0.6047 1.9688 -1.0828 1.9688 -1.1672 2.8828 -1.6172 3.2766 -1.6172 0.1828 0 0.6609 0.0984 1.0547 0.2109 1.0266 0.3094 2.8547 2.0953 3.1078 3.0516 0.2813 0.9844 -0.0422 1.7719 -1.1953 2.9953 -0.5062 0.5484 -1.125 1.2094 -1.3781 1.4766 -0.45 0.4922 -2.2359 1.9688 -2.3766 1.9688 -0.0562 0 -0.3234 0.1687 -0.6187 0.3656 -1.2656 0.8578 -2.5313 1.3641 -5.4 2.1516 -1.3359 0.3656 -2.9531 0.3656 -4.7672 0z"/>
    <path
      d="M91.2656 88.0875 c-0.4219 -0.1266 -1.0266 -0.2672 -1.3359 -0.3234 -3.1781 -0.6187 -4.4016 -1.3781 -7.9031 -4.8797 -1.6031 -1.6031 -2.2922 -2.6578 -2.2922 -3.5297 0 -0.5766 0.6609 -1.6734 1.4344 -2.3625 1.0547 -0.9281 1.6312 -1.1953 2.5875 -1.1953 0.8859 0 1.4063 0.2531 3.3609 1.5609 2.6016 1.7578 5.1891 2.4609 8.7188 2.3484 1.2937 -0.0422 2.1094 -0.1406 2.3906 -0.2672 1.9266 -0.9141 2.9953 -2.5313 3.4594 -5.2594 0.2531 -1.5469 0.1969 -3.0234 -0.2109 -4.4297 -0.1266 -0.4219 -0.2813 -1.0547 -0.3656 -1.4063 -0.2672 -1.125 -0.4078 -1.5891 -0.8438 -2.9812 -0.3234 -1.0266 -0.4219 -1.6312 -0.4219 -2.4609 0 -1.3641 0.2109 -1.8281 1.3219 -2.8687 0.45 -0.4219 1.6031 -1.5328 2.5453 -2.475 2.0391 -2.0109 2.2641 -2.1797 3.0516 -2.1797 0.9422 -0.0141 1.6875 0.45 2.3906 1.4766 0.7172 1.0547 2.5031 3.9797 2.5031 4.1062 0 0.0422 0.1266 0.3797 0.2953 0.7312 0.1547 0.3516 0.3094 0.8297 0.3375 1.0406 0.0281 0.2109 0.1547 0.5766 0.2672 0.8016 0.1125 0.225 0.2391 0.6328 0.2672 0.8859 0.0422 0.2672 0.1266 0.7594 0.2109 1.1109 0.225 0.9984 0.4781 4.3312 0.3797 5.0484 -0.1266 0.9141 -0.45 2.3344 -0.7734 3.3187 -0.1406 0.4641 -0.3094 1.0688 -0.3516 1.3359 -0.1266 0.6328 -0.6891 2.2359 -1.0406 2.925 -0.675 1.3359 -1.5891 2.4891 -3.3891 4.2469 -1.8984 1.8844 -1.9266 1.8984 -4.0219 2.9672 -2.2781 1.1672 -3.5719 1.6312 -5.7516 2.0953 -0.7734 0.1547 -1.7297 0.3937 -2.1375 0.5062 -1.0969 0.3094 -3.7406 0.3797 -4.6828 0.1125z"/>
  </g>

</svg>
