<?xml version="1.0" standalone="yes"?>
<svg xmlns="http://www.w3.org/2000/svg" width="152" height="186">
<path style="fill:#3f6eb0; stroke:none;" d="M110 0C106.669 2.52383 103.187 1.51161 99.2855 2.45525C90.9662 4.46713 83.5358 7.67296 76.0139 11.8179C63.5751 18.6723 53.6124 28.5255 45.223 39.7454C42.0446 43.9961 39.9923 50.6096 36.125 54.1211C33.174 56.8006 27.0435 57.077 23.2747 58.4059C15.907 61.0037 5.39437 66.8136 1.2963 73.7454C-1.29153 78.1226 4.07013 80.2329 7.19985 81.8002C16.2466 86.3304 25.8274 94.6447 36 96C35.5158 103.459 31.8776 110.859 30.2407 118.166C27.0457 132.428 24.3744 146.565 21.7415 160.911C20.2081 169.267 18.0009 177.427 18 186L152 186C152 167.312 150.456 150.059 145.29 132.004C143.439 125.535 141.719 118.711 139.29 112.435C137.563 107.971 135.102 103.694 134.259 98.9105C131.71 84.4395 134.993 68.694 133.946 54.0394C132.611 35.3404 126.493 17.8333 121 0C117.081 0.724991 113.9 0.917847 110 0z"/>
<path style="fill:#0a101b; stroke:none;" d="M121 1C122.676 6.31729 125.292 11.4417 126 17C127.881 12.3971 124.942 3.94138 121 1M127 17C127.648 19.7092 127.942 22.2155 128 25C129.223 22.0803 129.476 19.1633 127 17M84 37C85.801 33.9083 89.8502 32.7186 91.2531 29.6975C93.9514 23.8868 87.643 21.3029 83 22.4961C76.9223 24.0581 64.5336 31.0355 63.581 37.8966C63.1454 41.0339 66.6775 42.7032 65.9992 45.9537C65.0979 50.2733 61.7001 53.3051 61.1744 58C59.7442 70.7728 71.8882 80.0944 84 79.9807C87.811 79.9449 91.4326 79.0078 95 77.7137C97.8639 76.6749 101.144 75.4882 103.387 73.3519C118.917 58.5622 100.302 38.3333 84 37M129 25C129.802 28.3679 129.99 31.5448 130 35C131.361 31.7557 131.789 27.4371 129 25M131 35C136.017 56.0728 131.561 77.6185 134.129 98.9105C135.455 109.909 142.573 119.792 144 131C147.057 123.521 139.876 111.961 137.406 104.869C131.039 86.5843 138.908 66.104 133.71 47.7145C132.546 43.5965 134.369 37.9441 131 35z"/>
<path style="fill:#3f6eb0; stroke:none;" d="M72 68C72.274 63.7787 73.6151 57.5381 76.5139 54.2994C81.7513 48.4477 90.8499 50.0312 94.7215 56.5177C97.0794 60.4683 96 66.5712 96 71C115.464 63.81 94.7694 38.8051 80 42.314C69.7476 44.7498 59.6849 61.6386 72 68z"/>
</svg>
