<?xml version="1.0" standalone="yes"?>
<svg xmlns="http://www.w3.org/2000/svg" width="136" height="182">
<path style="fill:#df7a3a; stroke:none;" d="M0 182L136 182C136 170.595 137.235 158.409 135.871 147.09C134.334 134.331 130.879 120.92 130.91 108C130.923 102.894 134.346 97.6218 135.545 92.7145C136.834 87.4369 136.71 79.5112 135.741 74.1698C133.869 63.8532 127.047 55.828 124.451 45.8341C121.591 34.827 118.232 24.566 114.405 13.8696C112.958 9.8233 109.809 2.68442 105.522 0.898148C101.853 -0.630188 98.5643 4.1026 96.3333 6.33333C91.2226 11.4436 86.1532 16.5993 80.9992 21.6659C77.5908 25.0166 74.2239 27.1825 70 24L68 24C63.7761 27.1825 60.4092 25.0166 57.0008 21.6659C51.8468 16.5993 46.7774 11.4436 41.6667 6.33333C39.4357 4.1026 36.1466 -0.630188 32.4784 0.898148C29.3013 2.22186 27.5839 6.34401 25.7315 9C18.6152 19.203 16.7117 33.0025 13.2909 44.7153C9.96065 56.1179 2.47449 66.7929 2.01852 79.0147C1.76316 85.8593 2.58377 92.1444 4.45525 98.7114C5.33351 101.793 7.80107 104.517 7.41589 107.87C6.75449 113.626 4.82059 119.35 4.12886 125.09C2.60785 137.71 2.83521 150.283 1.94599 162.985C1.49461 169.433 0 175.347 0 182z"/>
<path style="fill:#210f08; stroke:none;" d="M18 92C22.4901 94.4136 24.9386 98.6355 30.0039 100.461C42.9042 105.109 64.1257 98.9253 65 83C55.756 78.7657 47.5952 70.026 40.348 63.0008C37.016 59.7709 33.4162 54.4417 28.9074 52.8981C23.343 50.9933 19.8314 56.7429 17.7955 61.0147C14.7784 67.3453 12.8726 74.9764 14.2778 82C14.9823 85.5216 17.1775 88.4881 18 92M108 52.7469C103.193 54.4939 100.095 59.3645 96.7153 62.9066C92.2697 67.5654 86.852 72.2588 81.8295 76.3048C78.8947 78.6689 74.7488 81.0292 73.7917 84.9853C72.8536 88.8626 76.5905 91.9185 79 94.3333C86.7152 102.066 97.5772 104.313 107.996 100.285C120.728 95.3639 126.425 80.3983 122.691 68C120.872 61.9611 116.257 49.7463 108 52.7469z"/>
<path style="fill:#df7a3a; stroke:none;" d="M25.3287 62.1358C19.8317 64.9233 19.1514 75.4685 21.054 80.4244C25.2654 91.3942 38.0617 99.9414 49.2809 92.1605C51.1569 90.8594 58.0581 84.328 51.8511 83.7076C46.0848 83.1312 39.9822 90.0397 34.5725 84.5656C28.9999 78.9266 35.0614 73.1159 33.436 67.2863C32.6262 64.3822 28.4923 60.5316 25.3287 62.1358M109.079 62.1366C99.8069 66.199 108.742 77.2425 103.991 83.7716C101.17 87.6474 96.0104 87.3157 92 85.7415C89.8661 84.9039 86.8018 82.6234 84.6474 84.6574C81.3589 87.762 86.6075 91.8792 89.0934 93.0949C95.0113 95.9892 102.044 94.6735 107.816 91.9414C115.276 88.4096 117.672 78.4157 116.571 71C116.04 67.4201 114.469 59.7752 109.079 62.1366z"/>
<path style="fill:#210f08; stroke:none;" d="M134 94C133.689 98.7887 130.521 103.312 130.519 108C130.515 115.206 133.032 122.889 133.871 130.039C134.387 134.43 132.419 140.871 136 144C134.73 138.666 135.518 133.46 134.871 128.09C134.535 125.302 133.252 122.817 133.054 119.985C132.79 116.209 134.05 111.666 131 109L131 107C134.339 104.158 134.954 98.1637 136 94L134 94M55 110C55.2186 114.702 56.436 121.036 62.054 121.848C65.0901 122.287 67.9875 121.056 71 121.165C74.3687 121.287 78.2659 123.046 81.4012 120.972C86.1183 117.852 86.8943 111.095 87 106L82 106C81.8701 108.835 81.8154 112.313 79.9113 114.638C77.0458 118.137 73.8744 113.991 73.3634 110.985C72.456 105.648 77.3056 101.212 78 96C74.4954 95.3494 62.3772 92.5303 61.6582 98.1088C61.0385 102.917 67.4797 106.1 67.794 110.999C67.9423 113.311 66.8658 116.643 64.1296 116.883C60.7746 117.177 58.3423 111.108 55 110z"/>
</svg>
