<?xml version="1.0" standalone="yes"?>
<svg xmlns="http://www.w3.org/2000/svg" width="160" height="158">
<path style="fill:#66b653; stroke:none;" d="M26 82L26 84C21.7178 87.6444 20.9103 96.5475 19.5494 101.834C14.7943 120.305 14 138.907 14 158L148 158C148 149.197 148.924 139.828 147.871 131.09C147.022 124.04 144.973 117.012 144.129 109.961C143.282 102.889 141.706 88.856 136 84L136 82C145.748 78.0838 156.703 69.3557 159.54 58.7106C160.988 53.2762 160 46.5923 160 41C160 33.3666 159.765 26.0297 155.749 19.2361C149.243 8.22769 134.474 0.741776 121.965 0.0586395C110.388 -0.573578 96.0951 6.55473 89.223 15.7454C85.8498 20.2567 84.3814 26.5739 80 30C79.3994 25.4917 77.1313 22.4941 74.7052 18.7685C63.6558 1.80023 40.6366 -4.39499 22.51 4.82022C6.84735 12.7828 -2.8908 32.4679 0.259259 49.8302C1.21347 55.0896 3.8327 60.0727 6.19985 64.8002C10.3061 73.0008 17.51 78.5956 26 82z"/>
<path style="fill:#0b160b; stroke:none;" d="M34 34C34.5503 38.3807 37.009 41.7808 38 46C35.5917 44.2549 33.7451 42.4083 32 40C24.2007 44.3616 35.2586 54.2716 38 46C46.6661 44.5503 39.5583 34.8851 34 34M118 46L122 46C123.792 41.7334 127.264 38.6639 128 34C120.756 34.2359 118.451 39.2142 118 46M128 40C126.203 42.6626 124.333 45.0804 123 48C126.676 48.8596 128.636 47.426 132 46C131.737 42.5902 131.321 41.0989 128 40M0 52C2.89227 63.514 9.5931 79.0481 23 81C22.8753 92.2684 17.2713 104.044 15.2593 115.17C12.7251 129.182 13 143.7 13 158C15.6578 151.666 13.7674 142.821 14.0185 136.004C14.137 132.787 15.4931 130.047 15.8711 126.91C16.9093 118.297 17.8524 110.346 19.7593 101.834C21.0441 96.0988 22.3448 88.6714 26 84L26 82C19.8954 78.5656 12.6143 74.8016 8.71451 68.7639C5.5964 63.9364 4.19899 55.5736 0 52M51 52.7284C47.6169 53.6951 43.0444 55.1366 40.4151 57.5494C38.0625 59.7082 37.0051 63.0661 36.0039 66C34.924 69.1643 33.6855 72.4322 34.2647 75.8295C36.4798 88.823 54.7597 94.4127 66 91.5255C77.4295 88.5897 80.3228 73.7421 76.0972 64.1844C71.8823 54.651 60.7908 49.9307 51 52.7284M105.015 52.6165C95.8325 54.9933 85.3482 64.306 84.1327 74C82.4007 87.8134 98.4083 97.3595 110.996 93.9051C122.131 90.8495 130.062 78.6607 127.736 67.1736C126.069 58.9399 113.031 50.5416 105.015 52.6165z"/>
<path style="fill:#66b653; stroke:none;" d="M62 87C60.9282 83.1095 57.8273 80.6514 56.1898 76.9861C53.5552 71.0888 56.4867 64.1245 61 60L61 57C50.3943 54.592 35.5845 66.4454 41.3032 77.9954C45.31 86.0877 53.95 86.9778 62 87M110 89C109.051 85.5449 106.489 83.2522 105.133 79.9599C102.272 73.0067 104.369 64.2398 112 62L112 58C103.05 58.0996 94.2229 63.4632 90.7793 72C89.2754 75.7283 88.5559 80.7889 91.2785 84.1605C95.6681 89.5962 103.804 89 110 89z"/>
<path style="fill:#0b160b; stroke:none;" d="M72 98C72.6698 102.596 76.1838 104.916 78 109C84.0792 107.995 85.6452 101.523 86 96C81.1966 96.1389 76.8034 97.8611 72 98z"/>
</svg>
