<?xml version="1.0" standalone="yes"?>
<svg xmlns="http://www.w3.org/2000/svg" width="180" height="186">
<path style="fill:#f4f4f5; stroke:none;" d="M1 78C1.72782 87.9038 12.6155 94.8045 20.1165 99.9637C22.8622 101.852 28.2361 103.564 29.0718 107.13C30.5282 113.344 25.8581 120.855 25.5455 127C25.2283 133.236 23.9428 138.862 23.3488 145C22.9334 149.292 24.2447 153.627 23.8302 158C23.3254 163.326 21.4486 168.743 21.2184 174C21.0457 177.943 21.989 182.012 22 186L161 186C158.29 178.926 157.708 170.568 158.039 163C158.167 160.085 159.088 157.083 158.701 154.17C156.516 137.725 152.002 120.651 152 104C160.238 102.203 167.891 95.5535 173.671 89.652C175.946 87.3291 179.144 84.5154 179.552 81.0926C179.985 77.4651 175.93 74.5926 173.667 72.3333C166.807 65.4856 158.184 56.6558 148 56C146.67 42.6374 142.652 28.165 136.465 16.1698C134.052 11.4933 130.629 7.52019 128 3C122.109 4.75092 118.34 8.93297 113.985 13.0895C106.324 20.4025 96.541 28.2465 92 38C83.6343 32.0536 78.5164 23.4886 71.5448 16.2994C69.6639 14.3598 67.0845 13.3629 65.0401 11.6165C62.4934 9.44107 59.4073 4.36554 55.8202 4.02007C52.8737 3.73628 50.9955 6.58835 49.554 8.70448C46.0942 13.7833 43.2426 19.3002 41.0355 25.0394C38.4008 31.8904 36.9025 38.9536 35.0008 46C34.3552 48.3919 34.3287 51.5961 32.973 53.7006C30.7449 57.1593 24.7955 58.3812 21.4282 60.5795C17.1115 63.3975 12.4041 67.0115 8.61497 70.4954C5.85268 73.0351 4.30364 76.1451 1 78z"/>
<path style="fill:#1b1b1b; stroke:none;" d="M16 94C23.9007 97.9321 33.8813 99.9749 34 110C40.2139 107.108 45.5447 102.846 52 100.211C58.1725 97.6919 65.0511 96.9583 71 93.946C75.7151 91.5584 81.0691 88.0945 83.142 82.9992C86.9434 73.6551 80.6902 58.5898 71.9606 54.1389C53.3977 44.6742 31.1005 66.0046 21.6713 80C18.6457 84.4907 16.7279 88.625 16 94M146 109L146 102C150.366 101.055 161.7 97.394 163.353 92.8557C165.081 88.1136 160.194 81.464 157.481 78C149.489 67.7934 136.381 54.7976 123 52.2739C119.035 51.5261 113.269 51.3664 109.576 53.1481C99.4208 58.0474 92.9509 75.8347 99.2785 85.8156C106 96.4168 123.342 97.9838 134 102.383C138.282 104.151 141.666 107.333 146 109z"/>
<path style="fill:#f4f4f5; stroke:none;" d="M49 60C51.3844 64.7477 56.8546 67.4202 57.767 73C58.455 77.2075 53.5541 82.2033 55.1752 85.6829C56.1402 87.7542 59.0409 88.0613 61.0008 88.4051C65.8473 89.2552 72.8282 89.4891 75.821 84.6597C82.3728 74.0872 69.8564 57.4315 59 56.5093C55.4357 56.2065 52.0773 58.5004 49 60M112 59C113.19 63.0679 116.791 65.1375 118.254 69.0147C120.931 76.1111 114.776 80.4759 112 86C118.869 87.5318 125.978 90.8687 132.895 87.2315C142.962 81.9379 136.695 65.489 129.482 60.5185C124.193 56.8737 117.901 58.2543 112 59z"/>
<path style="fill:#1b1b1b; stroke:none;" d="M80 90C80.7798 95.8565 83.9851 99.5585 89.0008 102.59C91.1283 103.875 94.2002 105.377 96.3966 103.356C99.1652 100.81 98.8681 92.3941 95.6821 90.3179C91.2356 87.4202 84.6545 88.5862 80 90z"/>
</svg>
